<?xml version="1.0" standalone="no"?>
<!DOCTYPE svg PUBLIC "-//W3C//DTD SVG 1.1//EN" "http://www.w3.org/Graphics/SVG/1.1/DTD/svg11.dtd" >
<svg xmlns="http://www.w3.org/2000/svg" xmlns:xlink="http://www.w3.org/1999/xlink" version="1.1">
<metadata>
Created by FontForge 20170731 at Mon Jul  6 18:45:36 2020
 By Aleksey,,,
Copyright (c) 2011 by Mark Simonson. All rights reserved.
</metadata>
<defs>
<font id="Bookmania-Semibold" horiz-adv-x="1415" >
  <font-face 
    font-family="Bookmania Light"
    font-weight="600"
    font-stretch="normal"
    units-per-em="2048"
    panose-1="2 0 5 3 7 0 0 2 0 3"
    ascent="1536"
    descent="-512"
    x-height="934"
    cap-height="1434"
    bbox="-952 -1237 3740 2087"
    underline-thickness="102"
    underline-position="-307"
    unicode-range="U+000D-FB06"
  />
<missing-glyph horiz-adv-x="1640" 
d="M227 0v1434h1186v-1434h-1186zM375 1319v-1202h891v1202h-891z" />
    <glyph glyph-name="longs_h" unicode="&#x17f;h" horiz-adv-x="1804" 
d="M1139 0h-500v70q76 7 101.5 26.5t25.5 69.5v1020h-10q-32 0 -56.5 17t-40.5 41t-31 48t-35.5 41t-45.5 17q-56 0 -91.5 -47t-35.5 -129v-1008q0 -49 29.5 -68.5t107.5 -27.5v-70h-510v70q76 7 100.5 26.5t24.5 69.5v661h-125v107h125v67q0 109 36 197.5t98 146
t143.5 88.5t175.5 31q138 0 209 -65l90 65h90v-600q66 42 150.5 71.5t160.5 29.5q45 0 85 -7t82 -26.5t72 -51.5t49 -86.5t19 -125.5v-502q0 -50 25.5 -69.5t101.5 -26.5v-70h-499v70q76 7 100 26.5t24 69.5v506q0 79 -38.5 116t-106.5 37q-115 0 -225 -73v-586
q0 -50 24.5 -69.5t100.5 -26.5v-70z" />
    <glyph glyph-name="longs_i" unicode="&#x17f;i" horiz-adv-x="1185" 
d="M47 827v107h125v67q0 94 29.5 172.5t78 131.5t113.5 89.5t135.5 53t143.5 16.5q140 0 223.5 -57.5t83.5 -132.5q0 -50 -32 -83.5t-81 -33.5q-11 0 -21.5 2t-19 4t-17.5 8t-14.5 9t-14 12t-12 12.5t-11.5 14.5t-9.5 13.5t-10 15.5t-9.5 14q-63 96 -139 96q-72 0 -120 -54
t-48 -159v-979q0 -49 29.5 -68.5t107.5 -27.5v-70h-510v70q76 7 100.5 26.5t24.5 69.5v661h-125zM1139 0h-500v70q76 7 101.5 26.5t25.5 69.5v508q0 35 -13 49t-44 14h-70v62l285 166h90v-799q0 -50 24.5 -69.5t100.5 -26.5v-70z" />
    <glyph glyph-name="longs_l" unicode="&#x17f;l" horiz-adv-x="1185" 
d="M1139 0h-500v70q76 7 101.5 26.5t25.5 69.5v1020h-10q-32 0 -56.5 17t-40.5 41t-31 48t-35.5 41t-45.5 17q-56 0 -91.5 -47t-35.5 -129v-1008q0 -49 29.5 -68.5t107.5 -27.5v-70h-510v70q76 7 100.5 26.5t24.5 69.5v659h-125v109h125v67q0 109 36 197.5t98 146
t143.5 88.5t175.5 31q138 0 209 -65l90 65h90v-1298q0 -50 24.5 -69.5t100.5 -26.5v-70z" />
    <glyph glyph-name="ff" unicode="ff" horiz-adv-x="1228" 
d="M1149 0h-510v70q76 7 101.5 26.5t25.5 69.5v661h-346v-661q0 -49 29.5 -68.5t107.5 -27.5v-70h-510v70q76 7 100.5 26.5t24.5 69.5v661h-125v107h125v82q0 138 58 241t154.5 155t217.5 52q89 0 145 -36.5t56 -98.5q0 -55 -34 -90t-89 -35q-39 0 -65.5 21t-38 45.5
t-30 45.5t-42.5 21q-38 0 -61 -36t-23 -99v-268h346v82q0 207 121 327.5t307 120.5q89 0 145 -36.5t56 -98.5q0 -54 -33.5 -89.5t-87.5 -35.5q-39 0 -66.5 21t-38.5 45.5t-29 45.5t-42 21q-40 0 -62 -36t-22 -99v-268h184v-107h-184v-661q0 -49 28.5 -68.5t106.5 -27.5v-70z
" />
    <glyph glyph-name="fi" unicode="fi" horiz-adv-x="1185" 
d="M1139 0h-500v70q76 7 101.5 26.5t25.5 69.5v598q0 32 -12.5 46.5t-40.5 16.5h-293v-661q0 -49 29.5 -68.5t107.5 -27.5v-70h-510v70q76 7 100.5 26.5t24.5 69.5v661h-125v107h125v67q0 94 29.5 172.5t78 131.5t113.5 89.5t135.5 53t143.5 16.5q140 0 223.5 -57.5
t83.5 -132.5q0 -50 -32 -83.5t-81 -33.5q-11 0 -21.5 2t-19 4t-17.5 8t-14.5 9t-14 12t-12 12.5t-11.5 14.5t-9.5 13.5t-10 15.5t-9.5 14q-63 96 -139 96q-72 0 -120 -54t-48 -159v-211h594v-768q0 -50 24.5 -69.5t100.5 -26.5v-70z" />
    <glyph glyph-name="fl" unicode="fl" horiz-adv-x="1185" 
d="M1139 0h-500v70q76 7 101.5 26.5t25.5 69.5v661h-346v-661q0 -49 29.5 -68.5t107.5 -27.5v-70h-510v70q76 7 100.5 26.5t24.5 69.5v661h-125v107h125v67q0 109 36 197.5t98 146t143.5 88.5t175.5 31q138 0 209 -65l90 65h90v-1298q0 -50 24.5 -69.5t100.5 -26.5v-70z
M420 1174v-240h346v250q-36 0 -62.5 17t-43 41.5t-31.5 49t-35.5 41.5t-46.5 17q-56 0 -91.5 -47t-35.5 -129z" />
    <glyph glyph-name="ffi" unicode="ffi" horiz-adv-x="1777" 
d="M1733 0h-500v70q76 7 100.5 26.5t24.5 69.5v598q0 32 -11.5 47t-39.5 16h-293v-661q0 -49 28.5 -68.5t106.5 -27.5v-70h-510v70q76 7 101.5 26.5t25.5 69.5v661h-346v-661q0 -49 29.5 -68.5t107.5 -27.5v-70h-510v70q76 7 100.5 26.5t24.5 69.5v661h-125v107h125v82
q0 138 58 241t154.5 155t217.5 52q89 0 145 -36.5t56 -98.5q0 -55 -34 -90t-89 -35q-39 0 -65.5 21t-38 45.5t-30 45.5t-42.5 21q-38 0 -61 -36t-23 -99v-268h346v67q0 117 44 209t117 145.5t159 81t180 27.5q139 0 223 -58t84 -132q0 -50 -33 -83.5t-82 -33.5q-11 0 -21 2
t-18.5 4t-17.5 8t-14.5 9t-13.5 12t-11.5 12.5t-11.5 14.5t-10 14l-10 15t-9 14q-67 96 -139 96q-74 0 -121 -54t-47 -159v-211h592v-768q0 -50 25.5 -69.5t101.5 -26.5v-70z" />
    <glyph glyph-name="ffl" unicode="ffl" horiz-adv-x="1777" 
d="M1733 0h-500v70q76 7 100.5 26.5t24.5 69.5v661h-344v-661q0 -49 28.5 -68.5t106.5 -27.5v-70h-510v70q76 7 101.5 26.5t25.5 69.5v661h-346v-661q0 -49 29.5 -68.5t107.5 -27.5v-70h-510v70q76 7 100.5 26.5t24.5 69.5v661h-125v107h125v82q0 138 58 241t154.5 155
t217.5 52q89 0 145 -36.5t56 -98.5q0 -55 -34 -90t-89 -35q-39 0 -65.5 21t-38 45.5t-30 45.5t-42.5 21q-38 0 -61 -36t-23 -99v-268h346v67q0 109 36 197.5t98 146t143.5 88.5t175.5 31q135 0 206 -65l93 65h88v-1298q0 -50 25.5 -69.5t101.5 -26.5v-70zM1014 1174v-240
h344v250q-36 0 -62.5 17t-42.5 41.5t-30.5 49t-35 41.5t-46.5 17q-57 0 -92 -46.5t-35 -129.5z" />
    <glyph glyph-name="uniFB05" unicode="&#x17f;t" horiz-adv-x="1296" 
d="M1249 115v-103q-86 -39 -205 -39q-143 0 -209.5 66.5t-66.5 234.5v553h-127v60q118 36 172.5 106t54.5 156q0 97 -62.5 153t-160.5 56q-225 0 -225 -307v-885q0 -49 29.5 -68.5t107.5 -27.5v-70h-510v70q76 7 100.5 26.5t24.5 69.5v661h-125v107h125v82q0 208 130 328
t337 120q73 0 138.5 -19.5t120 -58t86.5 -103.5t32 -148v-201h233v-107h-233v-596q0 -141 112 -141q66 0 121 25z" />
    <glyph glyph-name="f_b" unicode="fb" horiz-adv-x="1773" 
d="M766 -31v858h-346v-661q0 -49 29.5 -68.5t107.5 -27.5v-70h-510v70q76 7 100.5 26.5t24.5 69.5v661h-125v107h125v67q0 109 36 197.5t98 146t143.5 88.5t175.5 31q138 0 209 -65l90 65h90v-600q106 101 268 101q196 0 313 -138t117 -360q0 -223 -121.5 -360.5
t-335.5 -137.5q-173 0 -276 103l-119 -103h-94zM1208 848q-127 0 -194 -98v-566q67 -98 194 -98q129 0 186.5 97t57.5 284t-57.5 284t-186.5 97zM420 1174v-240h346v252q-35 0 -61 17t-43 41t-32 48t-36 41t-47 17q-56 0 -91.5 -47t-35.5 -129z" />
    <glyph glyph-name="f_h" unicode="fh" horiz-adv-x="1804" 
d="M1139 0h-500v70q76 7 101.5 26.5t25.5 69.5v661h-346v-661q0 -49 29.5 -68.5t107.5 -27.5v-70h-510v70q76 7 100.5 26.5t24.5 69.5v661h-125v107h125v67q0 109 36 197.5t98 146t143.5 88.5t175.5 31q138 0 209 -65l90 65h90v-600q66 42 150.5 71.5t160.5 29.5
q52 0 93.5 -8t82.5 -30t69 -59t45 -99.5t17 -145.5v-457q0 -50 25.5 -69.5t101.5 -26.5v-70h-499v70q76 7 100 26.5t24 69.5v506q0 79 -38.5 116t-106.5 37q-115 0 -225 -73v-586q0 -50 24.5 -69.5t100.5 -26.5v-70zM420 1174v-240h346v252q-35 0 -61 17t-43 41t-32 48
t-36 41t-47 17q-56 0 -91.5 -47t-35.5 -129z" />
    <glyph glyph-name="f_j" unicode="fj" horiz-adv-x="1167" 
d="M584 -408q-91 0 -148 39t-57 111q0 46 37 80.5t84 34.5q38 0 65.5 -21.5t39.5 -47.5t30.5 -47.5t40.5 -21.5q41 0 65.5 35t24.5 101v909q0 34 -13 48.5t-44 14.5h-289v-661q0 -49 29.5 -68.5t107.5 -27.5v-70h-510v70q76 7 100.5 26.5t24.5 69.5v661h-125v107h125v67
q0 94 29.5 172.5t78 131.5t113.5 89.5t135.5 53t143.5 16.5q140 0 223.5 -57.5t83.5 -132.5q0 -50 -32 -83.5t-81 -33.5q-11 0 -21.5 2t-19 4t-17.5 8t-14.5 9t-14 12t-12 12.5t-11.5 14.5t-9.5 13.5t-10 15.5t-9.5 14q-63 96 -139 96q-72 0 -120 -54t-48 -159v-211h594
v-877q0 -114 -34 -204t-93 -146.5t-136 -85.5t-167 -29z" />
    <glyph glyph-name="f_k" unicode="fk" horiz-adv-x="1753" 
d="M1139 0h-500v70q76 7 101.5 26.5t25.5 69.5v661h-346v-661q0 -49 29.5 -68.5t107.5 -27.5v-70h-510v70q76 7 100.5 26.5t24.5 69.5v661h-125v107h125v67q0 109 36 197.5t98 146t143.5 88.5t175.5 31q138 0 209 -65l90 65h90v-970l231 229q27 26 38.5 49t7 43t-34.5 33.5
t-85 17.5v68h506v-68q-81 -7 -132.5 -33.5t-125.5 -97.5l-114 -114l317 -431q51 -67 85 -89.5t83 -30.5v-70h-553v70q59 5 86.5 24t26 44.5t-24.5 56.5l-199 256l-112 -111v-174q0 -50 24.5 -69.5t100.5 -26.5v-70zM420 1174v-240h346v250q-36 0 -62.5 17t-43 41.5t-31.5 49
t-35.5 41.5t-46.5 17q-56 0 -91.5 -47t-35.5 -129z" />
    <glyph glyph-name="f_f_b" unicode="ffb" horiz-adv-x="2377" 
d="M1847 -31q-176 0 -274 103l-119 -103h-96v858h-344v-661q0 -49 28.5 -68.5t106.5 -27.5v-70h-510v70q76 7 101.5 26.5t25.5 69.5v661h-346v-661q0 -49 29.5 -68.5t107.5 -27.5v-70h-510v70q76 7 100.5 26.5t24.5 69.5v661h-125v107h125v82q0 138 58 241t154.5 155
t217.5 52q89 0 145 -36.5t56 -98.5q0 -55 -34 -90t-89 -35q-39 0 -65.5 21t-38 45.5t-30 45.5t-42.5 21q-38 0 -61 -36t-23 -99v-268h346v67q0 109 36 197.5t98 146t143.5 88.5t175.5 31q135 0 206 -65l93 65h88v-600q106 101 270 101q195 0 312.5 -138t117.5 -360
q0 -223 -122.5 -360.5t-336.5 -137.5zM1802 848q-126 0 -196 -98v-566q70 -98 196 -98q128 0 186 97t58 284t-58 284t-186 97zM1014 1174v-240h344v252q-34 0 -60 17t-42.5 41t-31.5 48t-36 41t-47 17q-57 0 -92 -46.5t-35 -129.5z" />
    <glyph glyph-name="f_f_j" unicode="ffj" horiz-adv-x="1767" 
d="M1178 -408q-91 0 -148 39t-57 111q0 46 36 80.5t83 34.5q39 0 66.5 -21.5t40 -47.5t31 -47.5t40.5 -21.5q40 0 64 35t24 101v909q0 34 -13.5 48.5t-44.5 14.5h-286v-661q0 -49 28.5 -68.5t106.5 -27.5v-70h-510v70q76 7 101.5 26.5t25.5 69.5v661h-346v-661
q0 -49 29.5 -68.5t107.5 -27.5v-70h-510v70q76 7 100.5 26.5t24.5 69.5v661h-125v107h125v82q0 138 58 241t154.5 155t217.5 52q89 0 145 -36.5t56 -98.5q0 -55 -34 -90t-89 -35q-39 0 -65.5 21t-38 45.5t-30 45.5t-42.5 21q-38 0 -61 -36t-23 -99v-268h346v67q0 117 44 209
t117 145.5t159 81t180 27.5q139 0 223 -58t84 -132q0 -50 -33 -83.5t-82 -33.5q-11 0 -21 2t-18.5 4t-17.5 8t-14.5 9t-13.5 12t-11.5 12.5t-11.5 14.5t-10 14l-10 15t-9 14q-67 96 -139 96q-74 0 -121 -54t-47 -159v-211h592v-877q0 -114 -33.5 -204t-92.5 -146.5
t-135.5 -85.5t-166.5 -29z" />
    <glyph glyph-name="f_f_k" unicode="ffk" horiz-adv-x="2347" 
d="M2382 0h-551v70q58 5 85.5 24t26.5 44.5t-24 56.5l-199 256l-114 -111v-174q0 -50 25.5 -69.5t101.5 -26.5v-70h-500v70q76 7 100.5 26.5t24.5 69.5v661h-344v-661q0 -49 28.5 -68.5t106.5 -27.5v-70h-510v70q76 7 101.5 26.5t25.5 69.5v661h-346v-661q0 -49 29.5 -68.5
t107.5 -27.5v-70h-510v70q76 7 100.5 26.5t24.5 69.5v661h-125v107h125v82q0 138 58 241t154.5 155t217.5 52q89 0 145 -36.5t56 -98.5q0 -55 -34 -90t-89 -35q-39 0 -65.5 21t-38 45.5t-30 45.5t-42.5 21q-38 0 -61 -36t-23 -99v-268h346v67q0 109 36 197.5t98 146
t143.5 88.5t175.5 31q135 0 206 -65l93 65h88v-970l233 229q26 26 37.5 49t7 43.5t-34.5 33.5t-86 17v68h508v-68q-83 -7 -134.5 -33.5t-125.5 -97.5l-115 -114l320 -431q49 -66 83 -89t83 -31v-70zM1014 1174v-240h344v250q-36 0 -62.5 17t-42.5 41.5t-30.5 49t-35 41.5
t-46.5 17q-57 0 -92 -46.5t-35 -129.5z" />
    <glyph glyph-name="longs_b" unicode="&#x17f;b" horiz-adv-x="1773" 
d="M766 -31v1217h-10q-32 0 -56.5 17t-40.5 41t-31 48t-35.5 41t-45.5 17q-56 0 -91.5 -47t-35.5 -129v-1008q0 -49 29.5 -68.5t107.5 -27.5v-70h-510v70q76 7 100.5 26.5t24.5 69.5v661h-125v107h125v67q0 109 36 197.5t98 146t143.5 88.5t175.5 31q138 0 209 -65l90 65h90
v-600q106 101 268 101q196 0 313 -138t117 -360q0 -223 -121.5 -360.5t-335.5 -137.5q-173 0 -276 103l-119 -103h-94zM1208 848q-127 0 -194 -98v-566q67 -98 194 -98q129 0 186.5 97t57.5 284t-57.5 284t-186.5 97z" />
    <glyph glyph-name="longs_k" unicode="&#x17f;k" horiz-adv-x="1753" 
d="M1139 0h-500v70q76 7 101.5 26.5t25.5 69.5v1020h-10q-32 0 -56.5 17t-40.5 41t-31 48t-35.5 41t-45.5 17q-56 0 -91.5 -47t-35.5 -129v-1008q0 -49 29.5 -68.5t107.5 -27.5v-70h-510v70q76 7 100.5 26.5t24.5 69.5v661h-125v107h125v67q0 109 36 197.5t98 146
t143.5 88.5t175.5 31q138 0 209 -65l90 65h90v-970l231 229q27 26 38.5 49t7 43t-34.5 33.5t-85 17.5v68h506v-68q-81 -7 -132.5 -33.5t-125.5 -97.5l-114 -114l317 -431q51 -67 85 -89.5t83 -30.5v-70h-553v70q59 5 86.5 24t26 44.5t-24.5 56.5l-199 256l-112 -111v-174
q0 -50 24.5 -69.5t100.5 -26.5v-70z" />
    <glyph glyph-name=".notdef" horiz-adv-x="1640" 
d="M227 0v1434h1186v-1434h-1186zM375 1319v-1202h891v1202h-891z" />
    <glyph glyph-name=".null" horiz-adv-x="0" 
 />
    <glyph glyph-name="nonmarkingreturn" horiz-adv-x="682" 
 />
    <glyph glyph-name="NUL" horiz-adv-x="0" 
 />
    <glyph glyph-name="NUL" horiz-adv-x="0" 
 />
    <glyph glyph-name="CR" unicode="&#xd;" horiz-adv-x="0" 
 />
    <glyph glyph-name="space" unicode=" " horiz-adv-x="499" 
 />
    <glyph glyph-name="exclam" unicode="!" horiz-adv-x="520" 
d="M307 430h-96q-3 152 -22 282.5t-39.5 203t-37 156t-16.5 153.5q0 120 46 179.5t118 59.5t117 -59.5t45 -179.5q0 -70 -16.5 -153.5t-37 -156t-39.5 -203t-22 -282.5zM96 137q0 64 45 111t119 47q72 0 118 -47t46 -111q0 -67 -45.5 -114.5t-118.5 -47.5q-74 0 -119 47.5
t-45 114.5z" />
    <glyph glyph-name="quotedbl" unicode="&#x22;" horiz-adv-x="942" 
d="M717 848h-72q-13 106 -39 203t-44.5 160t-18.5 108q0 66 39.5 105.5t99.5 39.5q59 0 99 -39.5t40 -105.5q0 -44 -19 -107.5t-45.5 -160.5t-39.5 -203zM295 848h-72q-13 106 -39 203t-44.5 160t-18.5 108q0 66 39.5 105.5t99.5 39.5q59 0 99 -39.5t40 -105.5
q0 -44 -19 -107.5t-45.5 -160.5t-39.5 -203z" />
    <glyph glyph-name="numbersign" unicode="#" horiz-adv-x="1144" 
d="M506 0l112 401h-272l-113 -401h-108l113 401h-220v103h248l121 426h-242v102h271l114 402h109l-115 -402h275l114 402h109l-115 -402h219v-102h-247l-121 -426h243v-103h-274l-113 -401h-108zM496 930l-121 -426h274l121 426h-274z" />
    <glyph glyph-name="dollar" unicode="$" horiz-adv-x="1196" 
d="M563 -227v198q-158 14 -270 95l-29 -66h-80l-123 451l64 20q93 -185 207 -288.5t231 -106.5v555q-158 64 -216 98q-156 92 -194 238q-14 53 -14 116q0 66 27 130t78 118.5t135.5 90t189.5 40.5v94h105v-96q122 -15 196 -80l25 54h80l112 -406l-61 -18
q-77 172 -160.5 255.5t-191.5 90.5v-508q161 -64 219 -97q165 -92 209 -237q18 -59 18 -129q0 -169 -120.5 -283t-329.5 -131v-198h-107zM868 322q0 94 -51.5 155t-146.5 107v-498q98 22 148 87.5t50 148.5zM389 1128q0 -83 46.5 -136.5t133.5 -96.5v455q-86 -17 -133 -74
t-47 -148z" />
    <glyph glyph-name="percent" unicode="%" horiz-adv-x="1697" 
d="M51 1004q0 215 89 331.5t251 116.5t251 -116.5t89 -331.5t-89 -332t-251 -117t-251 117t-89 332zM258 1004q0 -102 5.5 -168t20 -114.5t40.5 -69.5t67 -21q79 0 107 85t28 288q0 205 -28 288.5t-107 83.5t-106 -83t-27 -289zM326 0l938 1434h108l-938 -1434h-108z
M967 430q0 215 89 332t251 117t251 -117t89 -332t-89 -331.5t-251 -116.5t-251 116.5t-89 331.5zM1174 430q0 -102 5.5 -168t20 -114.5t40.5 -69.5t67 -21q79 0 107 85t28 288q0 205 -28 289t-107 84t-106 -83.5t-27 -289.5z" />
    <glyph glyph-name="ampersand" unicode="&#x26;" horiz-adv-x="1556" 
d="M1313 702q-34 -226 -166 -407q42 -111 85.5 -158t117.5 -47q65 0 155 25v-88q-38 -26 -104 -42t-133 -16q-210 0 -316 135q-199 -135 -446 -135q-202 0 -323.5 106.5t-121.5 272.5q0 75 23 141t57.5 114.5t89.5 95t104.5 77.5t117.5 68q-87 77 -126.5 148t-39.5 163
q0 54 22.5 107t64.5 99t113.5 74.5t159.5 28.5q153 0 238.5 -79.5t85.5 -200.5q0 -53 -17.5 -98.5t-53 -84t-71.5 -66.5t-90 -63q111 -79 199.5 -187.5t165.5 -278.5q90 154 90 315q0 48 -10.5 78.5t-35 47t-54.5 24t-78 10.5v73h489v-73q-94 -6 -136.5 -41.5t-55.5 -137.5z
M647 119q132 0 252 74q-4 4 -4 10q-100 223 -174.5 347t-159.5 204q-90 -68 -140 -147t-50 -189q0 -134 73 -216.5t203 -82.5zM479 1174q0 -71 38 -123.5t120 -110.5q103 58 158 115t55 129q0 78 -47.5 126t-134.5 48q-80 0 -134.5 -49t-54.5 -135z" />
    <glyph glyph-name="quotesingle" unicode="'" horiz-adv-x="520" 
d="M295 848h-72q-13 106 -39 203t-44.5 160t-18.5 108q0 66 39.5 105.5t99.5 39.5q59 0 99 -39.5t40 -105.5q0 -44 -19 -107.5t-45.5 -160.5t-39.5 -203z" />
    <glyph glyph-name="parenleft" unicode="(" horiz-adv-x="655" 
d="M51 532q0 166 44 319t121.5 274t172.5 216t207 164l47 -59q-164 -126 -268.5 -378.5t-104.5 -535.5t104.5 -533t268.5 -380l-47 -59q-112 69 -207 164t-172.5 216t-121.5 273.5t-44 318.5z" />
    <glyph glyph-name="parenright" unicode=")" horiz-adv-x="655" 
d="M604 532q0 -165 -44 -318t-121 -274t-172 -216t-206 -164l-47 59q163 130 268 380.5t105 532.5q0 283 -105 535t-268 379l47 59q111 -69 206 -164t172 -216t121 -274t44 -319z" />
    <glyph glyph-name="asterisk" unicode="*" horiz-adv-x="770" 
d="M471 1374q0 -30 -23 -100t-32 -129q47 38 96 92.5t74 69.5q37 21 71 12t52 -41q19 -31 8.5 -65t-45.5 -54q-27 -16 -100 -31.5t-126 -35.5q55 -20 127.5 -35.5t98.5 -30.5q36 -21 46 -56t-9 -65q-18 -31 -52 -39.5t-71 11.5q-25 15 -74 68.5t-96 90.5q9 -58 32 -127
t23 -98q0 -42 -25 -67t-61 -25t-60 25t-24 67q0 29 22 98.5t31 128.5q-46 -38 -95 -91.5t-75 -69.5q-37 -20 -70.5 -11.5t-52.5 39.5q-18 30 -7.5 65t46.5 56q26 15 97 30.5t125 35.5q-52 20 -124 35.5t-98 31.5q-36 20 -46.5 54.5t7.5 64.5q19 32 53 41t70 -12
q27 -16 75.5 -71t94.5 -93q-9 59 -31 129t-22 102q0 40 24 65t60 25t61 -25t25 -65z" />
    <glyph glyph-name="plus" unicode="+" horiz-adv-x="1144" 
d="M18 662v116h496v494h117v-494h495v-116h-495v-498h-117v498h-496z" />
    <glyph glyph-name="comma" unicode="," horiz-adv-x="520" 
d="M96 137q0 64 45 111t119 47t119 -50.5t45 -129.5q0 -99 -70.5 -228t-156.5 -211l-54 45q103 134 129 254q-84 0 -130 46.5t-46 115.5z" />
    <glyph glyph-name="hyphen" unicode="-" horiz-adv-x="536" 
d="M18 391v152h500v-152h-500z" />
    <glyph glyph-name="period" unicode="." horiz-adv-x="520" 
d="M96 137q0 64 45 111t119 47q72 0 118 -47t46 -111q0 -67 -45.5 -114.5t-118.5 -47.5q-74 0 -119 47.5t-45 114.5z" />
    <glyph glyph-name="slash" unicode="/" horiz-adv-x="655" 
d="M0 -438l547 1933h108l-546 -1933h-109z" />
    <glyph glyph-name="zero" unicode="0" horiz-adv-x="1196" 
d="M78 717q0 344 136 545.5t384 201.5q249 0 385.5 -201.5t136.5 -545.5t-136.5 -546t-385.5 -202q-248 0 -384 202t-136 546zM365 717q0 -129 5.5 -223t21 -176t41.5 -132t67 -78t98 -28q58 0 99.5 28t68 78t41.5 132t21 176t6 223q0 108 -4 190t-14 156.5t-27 126t-43 90
t-63 56.5t-85 18t-84.5 -18t-62 -56.5t-42.5 -89.5t-26.5 -126t-13.5 -157t-4 -190z" />
    <glyph glyph-name="one" unicode="1" horiz-adv-x="1196" 
d="M977 0h-756v70q63 3 97.5 7t67 13.5t46.5 26.5t22.5 43.5t8.5 68.5v912q0 34 -13 48.5t-44 14.5h-183v62l400 198h112v-1235q0 -42 8 -68.5t22 -43.5t46.5 -26.5t67 -13.5t98.5 -7v-70z" />
    <glyph glyph-name="two" unicode="2" horiz-adv-x="1196" 
d="M246 997h-121q0 216 126.5 341.5t328.5 125.5t330 -116t128 -299q0 -90 -32.5 -179.5t-87.5 -167t-137.5 -158.5t-170.5 -149t-200 -143h469q32 0 48 3.5t32 20.5t25.5 47.5t21.5 88.5h75l-55 -457h-76q0 45 -41 45h-768v141q73 62 129.5 113t123 117t115 124t97 128
t79 136t49 141t18.5 149q0 142 -59 219.5t-177 77.5q-120 0 -195 -88.5t-75 -260.5z" />
    <glyph glyph-name="three" unicode="3" horiz-adv-x="1196" 
d="M1024 1145q0 -111 -67 -194.5t-189 -121.5q144 -27 238 -131.5t94 -244.5q0 -102 -37.5 -189.5t-108.5 -153.5t-180 -103.5t-244 -37.5q-105 0 -198.5 23.5t-159.5 78t-66 130.5q0 57 34.5 92t88.5 35q50 0 85 -25t55.5 -60.5t40.5 -71t53.5 -60.5t81.5 -25
q268 0 268 320q0 141 -83 233t-236 92h-37v115h41q118 0 178.5 73t60.5 191q0 102 -54 169t-155 67q-103 0 -173.5 -71t-80.5 -206h-120q18 186 130 290.5t304 104.5q206 0 321 -92.5t115 -226.5z" />
    <glyph glyph-name="four" unicode="4" horiz-adv-x="1196" 
d="M907 0h-272v354h-561v88l618 992h215v-963h215v-117h-215v-354zM635 1122l-406 -651h406v651z" />
    <glyph glyph-name="five" unicode="5" horiz-adv-x="1196" 
d="M547 950q125 0 228.5 -37t173 -101.5t107.5 -151t38 -185.5q0 -104 -37.5 -195.5t-106.5 -161t-175.5 -109.5t-235.5 -40q-106 0 -201.5 23.5t-164.5 78t-69 130.5q0 56 33.5 91.5t81.5 35.5q37 0 66 -13.5t48.5 -34.5t36.5 -47t35 -52t38.5 -47t52 -34.5t71.5 -13.5
q139 0 218 81t79 218q0 135 -100 223t-264 88q-161 0 -279 -69l-69 28l114 779h608q51 0 60 45h76l-35 -297h-631l-39 -277q91 45 242 45z" />
    <glyph glyph-name="six" unicode="6" horiz-adv-x="1196" 
d="M987 1464v-106q-108 -10 -199 -43.5t-168.5 -92t-134.5 -150.5t-88 -212q125 64 248 64q113 0 205.5 -40.5t150 -108t88.5 -150.5t31 -172q0 -94 -38 -181.5t-105 -154.5t-166 -107.5t-213 -40.5q-242 0 -381 175t-139 464q0 158 50 293t135.5 232.5t202 169.5t247.5 111
t274 50zM578 807q-107 0 -203 -70q-10 -92 -10 -176q0 -115 11 -199t36.5 -150t72 -99t113.5 -33q118 0 177 102t59 271q0 158 -66.5 256t-189.5 98z" />
    <glyph glyph-name="seven" unicode="7" horiz-adv-x="1196" 
d="M621 0h-287q38 315 181.5 623.5t350.5 558.5h-544q-32 0 -48 -3.5t-32 -20t-25.5 -47.5t-21.5 -89h-76l49 457h76q0 -45 41 -45h784v-142q-384 -519 -448 -1292z" />
    <glyph glyph-name="eight" unicode="8" horiz-adv-x="1196" 
d="M1059 1135q0 -65 -18.5 -118t-54 -92.5t-76 -68t-95.5 -55.5q68 -34 116 -67.5t94.5 -82.5t70.5 -116t24 -150q0 -185 -141.5 -300.5t-394.5 -115.5q-118 0 -215.5 32t-160 85.5t-96.5 121t-34 140.5q0 72 21 131t61 103.5t84.5 76t105.5 62.5q-64 40 -108.5 87
t-73.5 120t-29 164q0 68 29.5 132.5t86.5 119t152 87.5t214 33q203 0 320.5 -97t117.5 -232zM266 352q0 -117 78.5 -194.5t226.5 -77.5q138 0 207.5 67.5t69.5 165.5q0 29 -6 55t-14 47t-25 42t-30.5 35.5t-38.5 32t-42.5 28t-49 26.5t-49.5 24t-53.5 24t-52.5 24
q-106 -54 -163.5 -122.5t-57.5 -176.5zM410 1151q0 -44 14.5 -81.5t36 -64t59.5 -53.5t69.5 -43.5t82.5 -40.5q103 51 159 112.5t56 154.5q0 98 -61.5 158.5t-176.5 60.5q-111 0 -175 -53.5t-64 -149.5z" />
    <glyph glyph-name="nine" unicode="9" horiz-adv-x="1196" 
d="M211 -31v107q221 22 375.5 142.5t214.5 354.5q-123 -63 -250 -63q-113 0 -205 41t-149.5 108.5t-88 151t-30.5 172.5q0 93 38 180t104.5 153.5t165 107t212.5 40.5q242 0 382 -174.5t140 -464.5q0 -158 -50 -293t-135.5 -232t-202 -169t-247.5 -111.5t-274 -50.5z
M618 629q110 0 205 67q11 101 11 176q0 115 -11 199t-37 150t-73 99.5t-115 33.5q-118 0 -175.5 -101t-57.5 -270q0 -158 65.5 -256t187.5 -98z" />
    <glyph glyph-name="colon" unicode=":" horiz-adv-x="520" 
d="M96 799q0 64 45 110.5t119 46.5q73 0 118.5 -46.5t45.5 -110.5q0 -67 -45.5 -114.5t-118.5 -47.5q-74 0 -119 47.5t-45 114.5zM96 137q0 64 45 111t119 47q72 0 118 -47t46 -111q0 -67 -45.5 -114.5t-118.5 -47.5q-74 0 -119 47.5t-45 114.5z" />
    <glyph glyph-name="semicolon" unicode=";" horiz-adv-x="520" 
d="M96 137q0 64 45 111t119 47t119 -50.5t45 -129.5q0 -99 -70.5 -228t-156.5 -211l-54 45q103 134 129 254q-84 0 -130 46.5t-46 115.5zM96 799q0 64 45 110.5t119 46.5q73 0 118.5 -46.5t45.5 -110.5q0 -67 -45.5 -114.5t-118.5 -47.5q-74 0 -119 47.5t-45 114.5z" />
    <glyph glyph-name="less" unicode="&#x3c;" horiz-adv-x="1144" 
d="M1085 340v-127l-1024 422v127l1024 424v-127l-870 -361z" />
    <glyph glyph-name="equal" unicode="=" horiz-adv-x="1144" 
d="M18 864v117h1108v-117h-1108zM18 459v116h1108v-116h-1108z" />
    <glyph glyph-name="greater" unicode="&#x3e;" horiz-adv-x="1144" 
d="M61 213v127l869 358l-869 361v127l1022 -424v-127z" />
    <glyph glyph-name="question" unicode="?" horiz-adv-x="976" 
d="M469 596l-4 -166h-107v395q82 0 145.5 13t112.5 42.5t75 80.5t26 122q0 105 -70.5 182.5t-189.5 77.5q-47 0 -79 -22t-50.5 -53.5t-36 -62.5t-48 -53t-75.5 -22q-49 0 -83 35.5t-34 91.5q0 70 47.5 117.5t121 68.5t167.5 21q102 0 190 -27t151 -73t108.5 -106.5
t67.5 -128t22 -136.5q0 -192 -124.5 -293.5t-332.5 -103.5zM250 137q0 65 44.5 111.5t117.5 46.5q74 0 118.5 -46.5t44.5 -111.5q0 -67 -44.5 -114.5t-118.5 -47.5t-118 47.5t-44 114.5z" />
    <glyph glyph-name="at" unicode="@" horiz-adv-x="1888" 
d="M1262 84q-76 0 -128 32.5t-71 86.5q-122 -119 -295 -119q-88 0 -158 37t-109.5 101t-52.5 151t13 188q45 185 197 304.5t333 119.5q161 0 228 -100l178 100h80l-162 -647q-7 -34 -8.5 -62t15 -46.5t52.5 -18.5q59 0 120 38.5t110.5 104t80.5 160.5t31 199
q0 123 -36.5 224t-99.5 170.5t-150 117.5t-186 70t-210 22q-163 0 -319 -63.5t-273.5 -169.5t-189.5 -255t-72 -311q0 -177 61.5 -323.5t169 -244t253.5 -151t315 -53.5q171 0 322 56.5t305 162.5l53 -82q-164 -112 -325.5 -173.5t-356.5 -61.5q-148 0 -282.5 36.5t-247 110
t-195 176.5t-128.5 243.5t-46 303.5q0 176 79.5 342t210.5 287.5t306.5 194.5t359.5 73q165 0 307 -47t247 -135t164.5 -221.5t59.5 -298.5q0 -135 -44 -253.5t-118 -200t-175 -128.5t-213 -47zM854 203q127 0 209 114l111 449q-24 102 -152 102q-115 0 -188.5 -84
t-114.5 -249q-42 -160 -10.5 -246t145.5 -86z" />
    <glyph glyph-name="A" unicode="A" 
d="M621 1434h184l469 -1223q26 -72 61.5 -102.5t100.5 -38.5v-70h-592v70q104 8 132.5 33t2.5 92l-88 223h-535l-84 -223q-24 -62 12.5 -89.5t143.5 -35.5v-70h-448v70q69 8 107.5 38t64.5 97zM623 1114l-222 -579h445z" />
    <glyph glyph-name="B" unicode="B" horiz-adv-x="1464" 
d="M1386 408q0 -205 -165 -306.5t-463 -101.5h-707v70q62 4 91.5 9.5t52.5 22.5t29.5 45.5t6.5 81.5v975q0 53 -6.5 82t-29.5 46.5t-53 23.5t-91 10v68h670q150 0 259.5 -17.5t194.5 -57.5t128 -111.5t43 -174.5q0 -243 -304 -311q165 -34 254.5 -127t89.5 -227zM1079 408
q0 140 -82 218.5t-225 78.5h-258v-527q0 -29 16.5 -45t44.5 -16h183q159 0 240 74.5t81 216.5zM1038 1073q0 135 -76 190.5t-229 55.5h-158q-28 0 -44.5 -17t-16.5 -45v-436h217q149 0 228 58t79 194z" />
    <glyph glyph-name="C" unicode="C" horiz-adv-x="1427" 
d="M1231 1434l112 -406l-65 -20q-85 162 -207 254t-270 92q-110 0 -191.5 -46.5t-130 -133.5t-71.5 -200.5t-23 -256.5q0 -142 23 -255.5t71.5 -200.5t130 -134t191.5 -47q165 0 291.5 96.5t171.5 247.5l112 -39q-150 -416 -600 -416q-205 0 -364 94.5t-246.5 264.5
t-87.5 389q0 164 51 303t142.5 236.5t221.5 152.5t283 55q208 0 346 -96l29 66h80z" />
    <glyph glyph-name="D" unicode="D" horiz-adv-x="1572" 
d="M1190 717q0 137 -22.5 241t-62.5 172t-100.5 111t-130 60.5t-157.5 17.5h-142q-28 0 -44.5 -17t-16.5 -45v-1079q0 -29 16.5 -45t44.5 -16h140q87 0 157 17.5t130.5 60.5t101 110.5t63.5 171.5t23 240zM1497 717q0 -346 -205 -531.5t-577 -185.5h-664v70q62 4 91.5 9.5
t52.5 22.5t29.5 45.5t6.5 81.5v975q0 53 -6.5 82t-29.5 46.5t-53 23.5t-91 10v68h666q373 0 576.5 -184.5t203.5 -532.5z" />
    <glyph glyph-name="E" unicode="E" 
d="M575 117h160q201 0 348 82.5t265 230.5l57 -35l-199 -395h-1155v70q62 4 91.5 9.5t52.5 22.5t29.5 45.5t6.5 81.5v975q0 53 -6.5 82t-29.5 46.5t-53 23.5t-91 10v68h1153l127 -353l-57 -28q-101 139 -226 202.5t-315 63.5h-158q-28 0 -44.5 -17t-16.5 -45v-450h287
q105 0 141 44t41 142h76v-489h-76q-5 98 -41 142t-141 44h-287v-512q0 -29 16.5 -45t44.5 -16z" />
    <glyph glyph-name="F" unicode="F" horiz-adv-x="1341" 
d="M514 1257v-450h287q105 0 141 44t41 142h76v-489h-76q-5 98 -41 142t-141 44h-287v-461q0 -35 2.5 -58.5t12 -41.5t20.5 -27.5t34.5 -16.5t47.5 -9.5t67 -5.5v-70h-647v70q62 4 91.5 9.5t52.5 22.5t29.5 45.5t6.5 81.5v975q0 53 -6.5 82t-29.5 46.5t-53 23.5t-91 10v68
h1153l127 -353l-57 -28q-101 139 -226 202.5t-315 63.5h-158q-28 0 -44.5 -17t-16.5 -45z" />
    <glyph glyph-name="G" unicode="G" horiz-adv-x="1544" 
d="M1268 0l-84 115q-69 -66 -173.5 -106t-232.5 -40q-206 0 -365.5 94.5t-247 264.5t-87.5 389q0 164 51 303t142.5 236.5t222 152.5t284.5 55q220 0 355 -96l28 66h80l113 -406l-66 -20q-86 168 -208 257t-273 89q-90 0 -161.5 -31t-120 -86t-80.5 -135.5t-46 -175.5
t-14 -209q0 -142 23 -256t70 -200.5t125.5 -133.5t182.5 -47q99 0 178 37.5t111 79.5v237q0 53 -6 82t-28.5 46.5t-52.5 23.5t-91 10v68h627v-68q-54 -4 -82 -10t-49.5 -23.5t-28 -47t-6.5 -81.5v-434h-90z" />
    <glyph glyph-name="H" unicode="H" horiz-adv-x="1640" 
d="M1589 0h-643v70q62 4 91.5 9.5t52.5 22.5t29.5 45.5t6.5 81.5v461h-612v-461q0 -53 6.5 -81.5t29.5 -45.5t52.5 -22.5t91.5 -9.5v-70h-643v70q62 4 91.5 9.5t52.5 22.5t29.5 45.5t6.5 81.5v975q0 53 -6.5 82t-29.5 46.5t-53 23.5t-91 10v68h643v-68q-61 -4 -91 -10
t-53 -23.5t-29.5 -46.5t-6.5 -82v-397h612v397q0 53 -6.5 82t-29.5 46.5t-53 23.5t-91 10v68h643v-68q-61 -4 -91 -10t-53 -23.5t-29.5 -46.5t-6.5 -82v-975q0 -53 6.5 -81.5t29.5 -45.5t52.5 -22.5t91.5 -9.5v-70z" />
    <glyph glyph-name="I" unicode="I" horiz-adv-x="745" 
d="M694 0h-643v70q62 4 91.5 9.5t52.5 22.5t29.5 45.5t6.5 81.5v975q0 53 -6.5 82t-29.5 46.5t-53 23.5t-91 10v68h643v-68q-61 -4 -91 -10t-53 -23.5t-29.5 -46.5t-6.5 -82v-975q0 -53 6.5 -81.5t29.5 -45.5t52.5 -22.5t91.5 -9.5v-70z" />
    <glyph glyph-name="J" unicode="J" horiz-adv-x="731" 
d="M514 1204v-1136q0 -131 -36 -231t-100.5 -160t-147.5 -89.5t-183 -29.5q-152 0 -227.5 59t-75.5 139q0 58 37 94.5t90 36.5q45 0 75.5 -20t45.5 -48t27 -56t30.5 -48t46.5 -20q69 0 102 72.5t33 242.5v1194q0 53 -6.5 82t-29.5 46.5t-53 23.5t-91 10v68h643v-68
q-61 -4 -91 -10t-53 -23.5t-29.5 -46.5t-6.5 -82z" />
    <glyph glyph-name="K" unicode="K" horiz-adv-x="1538" 
d="M694 0h-643v70q62 4 91.5 9.5t52.5 22.5t29.5 45.5t6.5 81.5v975q0 53 -6.5 82t-29.5 46.5t-53 23.5t-91 10v68h643v-68q-61 -4 -91 -10t-53 -23.5t-29.5 -46.5t-6.5 -82v-459l500 457q21 19 34.5 39.5t15 41.5t-11.5 38t-48 29.5t-91 15.5v68h560v-68q-80 -7 -131 -35
t-146 -114l-350 -322l526 -705q86 -115 193 -120v-70h-647v70q103 8 125.5 41.5t-33.5 111.5l-369 484l-127 -117v-361q0 -53 6.5 -81.5t29.5 -45.5t52.5 -22.5t91.5 -9.5v-70z" />
    <glyph glyph-name="L" unicode="L" horiz-adv-x="1306" 
d="M575 117h99q316 0 565 313l57 -35l-198 -395h-1047v70q62 4 91.5 9.5t52.5 22.5t29.5 45.5t6.5 81.5v975q0 53 -6.5 82t-29.5 46.5t-53 23.5t-91 10v68h643v-68q-61 -4 -91 -10t-53 -23.5t-29.5 -46.5t-6.5 -82v-1026q0 -29 16.5 -45t44.5 -16z" />
    <glyph glyph-name="M" unicode="M" horiz-adv-x="1851" 
d="M1800 0h-643v70q63 4 92.5 9.5t52.5 22.5t29 45.5t6 81.5v979l-440 -1208h-92l-440 1206v-977q0 -53 6.5 -81.5t29.5 -45.5t52.5 -22.5t91.5 -9.5v-70h-494v70q50 3 76.5 7.5t50.5 13.5t34 26t15.5 43.5t5.5 68.5v975q0 53 -7 82t-30 46.5t-53.5 23.5t-91.5 10v68h533
l348 -957l348 957h520v-68q-61 -4 -91 -10t-53 -23.5t-29.5 -46.5t-6.5 -82v-975q0 -53 6.5 -81.5t29.5 -45.5t52.5 -22.5t91.5 -9.5v-70z" />
    <glyph glyph-name="N" unicode="N" horiz-adv-x="1519" 
d="M545 0h-494v70q50 3 76.5 7.5t50.5 13.5t34 26t15.5 43.5t5.5 68.5v975q0 53 -7 82t-30 46.5t-53.5 23.5t-91.5 10v68h502l623 -963v733q0 53 -6.5 82t-29 46.5t-52.5 23.5t-91 10v68h488v-68q-61 -4 -91 -10t-52.5 -23.5t-28.5 -46.5t-6 -82v-1204h-166l-776 1202v-973
q0 -53 6.5 -81.5t29.5 -45.5t52.5 -22.5t91.5 -9.5v-70z" />
    <glyph glyph-name="O" unicode="O" horiz-adv-x="1579" 
d="M78 717q0 221 85 389.5t247.5 263t380.5 94.5q217 0 379.5 -94.5t247.5 -263t85 -389.5t-85 -389.5t-247.5 -263.5t-379.5 -95q-218 0 -380.5 95t-247.5 263.5t-85 389.5zM385 717q0 -637 406 -637q405 0 405 637t-405 637q-112 0 -192.5 -46.5t-126 -134t-66.5 -199.5
t-21 -257z" />
    <glyph glyph-name="P" unicode="P" horiz-adv-x="1433" 
d="M694 0h-643v70q62 4 91.5 9.5t52.5 22.5t29.5 45.5t6.5 81.5v975q0 36 -2 59t-10 41.5t-19 28t-33.5 17t-47.5 10.5t-68 6v68h709q149 0 260 -19t195.5 -61t127.5 -115t43 -176q0 -106 -43 -180t-127.5 -117.5t-196.5 -62.5t-263 -19h-242v-455q0 -53 6.5 -81.5
t29.5 -45.5t52.5 -22.5t91.5 -9.5v-70zM1079 1063q0 136 -80.5 196t-238.5 60h-185q-28 0 -44.5 -17t-16.5 -45v-456h242q161 0 242 62t81 200z" />
    <glyph glyph-name="Q" unicode="Q" horiz-adv-x="1579" 
d="M78 717q0 221 85 389.5t247.5 263t380.5 94.5q217 0 379.5 -94.5t247.5 -263t85 -389.5q0 -294 -150 -492.5t-409 -240.5q3 -122 50.5 -176t138.5 -54q97 0 152.5 61t55.5 165h119q0 -176 -111.5 -271.5t-285.5 -95.5q-195 0 -307.5 98.5t-118.5 272.5
q-260 42 -409.5 240.5t-149.5 492.5zM385 717q0 -637 406 -637q405 0 405 637t-405 637q-112 0 -192.5 -46.5t-126 -134t-66.5 -199.5t-21 -257z" />
    <glyph glyph-name="R" unicode="R" horiz-adv-x="1507" 
d="M1386 1063q0 -165 -111.5 -254t-309.5 -109l348 -507q41 -61 87 -88.5t128 -34.5v-70h-404l-460 684h-150v-455q0 -53 6.5 -81.5t29.5 -45.5t52.5 -22.5t91.5 -9.5v-70h-643v70q62 4 91.5 9.5t52.5 22.5t29.5 45.5t6.5 81.5v975q0 36 -2 59t-10 41.5t-19 28t-33.5 17
t-47.5 10.5t-68 6v68h709q149 0 260 -19t195.5 -61t127.5 -115t43 -176zM1079 1063q0 136 -80.5 196t-238.5 60h-185q-28 0 -44.5 -17t-16.5 -45v-456h242q161 0 242 62t81 200z" />
    <glyph glyph-name="S" unicode="S" horiz-adv-x="1388" 
d="M387 1151q0 -56 31.5 -98.5t85.5 -69.5t123 -49t146 -42.5t154 -43.5t146 -58t123 -80.5t85.5 -116.5t31.5 -161q0 -135 -76.5 -241.5t-209 -164t-296.5 -57.5q-245 0 -434 107l-33 -76h-80l-123 451l64 20q91 -183 248 -287t346 -104q138 0 232 72t93 180
q0 79 -51 134.5t-131.5 87.5t-178 59t-195 59.5t-178 77.5t-131 125t-50.5 190q0 120 69.5 212t185 139.5t255.5 47.5q239 0 395 -96l29 66h80l112 -406l-61 -18q-78 164 -213.5 254t-318.5 90q-127 0 -201 -57t-74 -146z" />
    <glyph glyph-name="T" unicode="T" horiz-adv-x="1392" 
d="M551 229v1028q0 28 -16.5 45t-45.5 17q-134 0 -223 -58.5t-180 -205.5l-59 26l145 398h70q16 -45 63 -45h785q48 0 63 45h70l143 -398l-59 -26q-88 145 -183 204.5t-229 59.5q-29 0 -45 -17t-16 -45v-1028q0 -53 6.5 -81.5t29.5 -45.5t52.5 -22.5t91.5 -9.5v-70h-643v70
q62 4 91.5 9.5t52.5 22.5t29.5 45.5t6.5 81.5z" />
    <glyph glyph-name="U" unicode="U" horiz-adv-x="1570" 
d="M500 1204v-778q0 -169 102 -252.5t264 -83.5t259.5 90t97.5 262v762q0 53 -6.5 82t-29.5 46.5t-53.5 23.5t-91.5 10v68h492v-68q-61 -4 -91 -10t-53 -23.5t-29.5 -46.5t-6.5 -82v-764q0 -217 -142 -344t-399 -127q-285 0 -440.5 120.5t-155.5 352.5v762q0 53 -6.5 82
t-29.5 46.5t-53 23.5t-91 10v68h643v-68q-62 -4 -92.5 -10t-53 -23.5t-28.5 -46.5t-6 -82z" />
    <glyph glyph-name="V" unicode="V" 
d="M795 0h-185l-469 1225q-26 72 -61 102.5t-100 38.5v68h591v-68q-104 -8 -132.5 -34t-2.5 -93l357 -920l350 920q24 62 -13 90.5t-143 36.5v68h449v-68q-69 -8 -107.5 -38t-64.5 -97z" />
    <glyph glyph-name="W" unicode="W" horiz-adv-x="2002" 
d="M571 1366q-110 -7 -137.5 -40.5t-1.5 -121.5l248 -786l252 792q-29 87 -58 118t-98 38v68h592v-68q-107 -8 -136 -41t-3 -121l250 -786l247 786q28 88 0 121.5t-135 40.5v68h432v-68q-68 -8 -101.5 -41t-61.5 -121l-375 -1204h-174l-314 999l-309 -999h-174l-377 1204
q-28 90 -58.5 122.5t-98.5 39.5v68h591v-68z" />
    <glyph glyph-name="X" unicode="X" horiz-adv-x="1413" 
d="M508 0h-518v70q104 7 156 39t110 120l309 476l-311 499q-19 30 -26 40.5t-21.5 32t-21.5 28t-21 20t-24.5 17.5t-27 10.5t-34.5 9t-41 4.5v68h643v-68q-106 -7 -123 -46t39 -124l178 -278l182 280q58 88 40.5 124.5t-122.5 43.5v68h496v-68q-102 -7 -152.5 -39.5
t-107.5 -122.5l-262 -407l354 -568q55 -88 99.5 -119.5t121.5 -39.5v-70h-645v70q104 7 121.5 44.5t-37.5 123.5l-225 348l-225 -348q-56 -89 -33.5 -124.5t129.5 -43.5v-70z" />
    <glyph glyph-name="Y" unicode="Y" horiz-adv-x="1339" 
d="M350 70q62 4 91.5 9.5t52.5 22.5t29.5 45.5t6.5 81.5v308l-370 667q-48 91 -81.5 123t-98.5 39v68h600v-68q-99 -7 -122 -47.5t23 -122.5l275 -494l268 496q46 86 22 123t-124 45v68h438v-68q-70 -7 -106.5 -40t-82.5 -122l-358 -659v-316q0 -53 6.5 -81.5t29.5 -45.5
t52.5 -22.5t91.5 -9.5v-70h-643v70z" />
    <glyph glyph-name="Z" unicode="Z" horiz-adv-x="1343" 
d="M57 70l836 1249h-219q-187 0 -304.5 -62.5t-219.5 -203.5l-58 28l127 353h1036v-68l-835 -1249h239q108 0 196.5 22.5t159 68t122.5 96.5t112 126l58 -35l-199 -395h-1051v70z" />
    <glyph glyph-name="bracketleft" unicode="[" horiz-adv-x="677" 
d="M150 -410v1885h483v-95h-281v-1695h281v-95h-483z" />
    <glyph glyph-name="backslash" unicode="\" horiz-adv-x="655" 
d="M109 1495l546 -1933h-108l-547 1933h109z" />
    <glyph glyph-name="bracketright" unicode="]" horiz-adv-x="677" 
d="M528 1475v-1885h-483v95h281v1695h-281v95h483z" />
    <glyph glyph-name="asciicircum" unicode="^" horiz-adv-x="1144" 
d="M946 717l-375 432l-370 -432h-107l424 717h111l422 -717h-105z" />
    <glyph glyph-name="underscore" unicode="_" horiz-adv-x="1144" 
d="M0 -240v107h1147v-107h-1147z" />
    <glyph glyph-name="grave" unicode="`" horiz-adv-x="1079" 
d="M420 1346l178 -310h-100l-275 242q-28 24 -39.5 39t-11.5 31q0 34 37 34h147q44 0 64 -36z" />
    <glyph glyph-name="a" unicode="a" horiz-adv-x="1091" 
d="M860 -25q-161 0 -188 129q-179 -131 -334 -131q-127 0 -202 61.5t-75 166.5q0 48 17 90t46.5 74t75 59.5t94 48t113.5 38.5t125.5 30.5t135.5 25.5v109q0 106 -26.5 147t-100.5 41q-75 0 -119 -34t-66 -109q-34 -111 -131 -111q-44 0 -71 28.5t-27 82.5q0 103 121 173.5
t313 70.5q75 0 136 -15t111.5 -48t78.5 -93t28 -143v-478q0 -94 62 -94q26 0 67 21v-90q-74 -50 -184 -50zM451 121q98 0 217 82v264q-84 -14 -143 -30.5t-107.5 -42t-72 -62.5t-23.5 -86q0 -63 35.5 -94t93.5 -31z" />
    <glyph glyph-name="b" unicode="b" horiz-adv-x="1161" 
d="M27 1237v61l284 166h88v-600q106 101 271 101q195 0 312.5 -138t117.5 -360q0 -223 -122.5 -360.5t-336.5 -137.5q-176 0 -274 103l-119 -103h-96v1200q0 38 -13.5 53t-44.5 15h-67zM596 848q-127 0 -197 -98v-566q70 -98 197 -98q128 0 186 97t58 284t-58 284t-186 97z
" />
    <glyph glyph-name="c" unicode="c" horiz-adv-x="1007" 
d="M924 723q0 -54 -34 -85.5t-83 -31.5q-46 0 -78.5 29t-42.5 86q-13 69 -46.5 105t-100.5 36q-117 0 -167 -101.5t-50 -293.5q0 -184 70 -284.5t208 -100.5q97 0 165.5 58.5t117.5 174.5l94 -53q-63 -141 -162 -217t-252 -76q-229 0 -365.5 140t-136.5 358q0 216 134.5 357
t345.5 141q166 0 274.5 -71.5t108.5 -170.5z" />
    <glyph glyph-name="d" unicode="d" horiz-adv-x="1181" 
d="M635 1237v61l285 166h90v-1298q0 -50 24.5 -69.5t100.5 -26.5v-70q-182 0 -373 -31v103q-98 -103 -270 -103q-195 0 -313 139t-118 359q0 221 118 359.5t313 138.5q169 0 270 -101v310q0 35 -13.5 49t-46.5 14h-67zM565 88q127 0 197 98v564q-70 98 -197 98
q-128 0 -185.5 -97t-57.5 -284t57.5 -283t185.5 -96z" />
    <glyph glyph-name="e" unicode="e" horiz-adv-x="1064" 
d="M977 543h-651q-4 -50 -4 -76q0 -188 68 -286.5t218 -98.5q95 0 175.5 60.5t129.5 170.5l95 -51q-135 -293 -424 -293q-244 0 -383.5 139t-139.5 359q0 218 133.5 358t352.5 140q200 0 315 -111.5t115 -310.5zM551 862q-98 0 -148.5 -52.5t-68.5 -158.5h401
q0 99 -50.5 155t-133.5 56z" />
    <glyph glyph-name="f" unicode="f" horiz-adv-x="636" 
d="M47 827v107h125v82q0 138 58 241t154.5 155t217.5 52q89 0 145 -36.5t56 -98.5q0 -55 -34 -90t-89 -35q-39 0 -65.5 21t-38 45.5t-30 45.5t-42.5 21q-38 0 -61 -36t-23 -99v-268h184v-107h-184v-661q0 -49 29.5 -68.5t107.5 -27.5v-70h-510v70q76 7 100.5 26.5t24.5 69.5
v661h-125z" />
    <glyph glyph-name="g" unicode="g" horiz-adv-x="1083" 
d="M1069 987q0 -39 -26 -67.5t-66 -28.5q-33 0 -66 25.5t-57 25.5q-41 0 -72 -53q140 -108 140 -279q0 -156 -111.5 -255t-302.5 -99q-72 0 -141 16q-67 18 -105.5 0.5t-38.5 -51.5q0 -41 79.5 -55.5t315.5 -22.5q221 -7 315.5 -69.5t94.5 -188.5q0 -141 -134 -217t-355 -76
q-100 0 -181.5 11.5t-149.5 36.5t-106 70.5t-39 107.5q-3 105 109 157q-106 53 -106 179q0 76 42 127t111 65q-123 97 -123 264q0 156 111 255.5t301 99.5q86 0 178 -29q50 68 118.5 112t137.5 44q55 0 91 -27.5t36 -77.5zM334 610q0 -125 40 -189.5t134 -64.5t135 64.5
t41 189.5q0 124 -41 189t-135 65t-134 -65t-40 -189zM561 -90q-148 6 -254 24q-82 -30 -82 -98q0 -66 81 -104.5t231 -38.5q140 0 217 38t77 91q0 52 -52 67.5t-218 20.5z" />
    <glyph glyph-name="h" unicode="h" horiz-adv-x="1212" 
d="M1165 0h-499v70q76 7 101.5 26.5t25.5 69.5v506q0 78 -40 115.5t-108 37.5q-111 0 -225 -73v-586q0 -50 25.5 -69.5t101.5 -26.5v-70h-500v70q76 7 100.5 26.5t24.5 69.5v1008q0 35 -13 49t-44 14h-68v61l285 166h88v-600q67 42 151 71.5t162 29.5q45 0 84.5 -7
t81.5 -26.5t72 -51.5t49.5 -86.5t19.5 -125.5v-502q0 -50 24.5 -69.5t100.5 -26.5v-70z" />
    <glyph glyph-name="i" unicode="i" horiz-adv-x="591" 
d="M547 0h-500v70q76 7 100.5 26.5t24.5 69.5v508q0 35 -13 49t-44 14h-68v62l285 166h88v-799q0 -50 25.5 -69.5t101.5 -26.5v-70zM152 1278q0 59 41 102t108 43q68 0 110 -43.5t42 -101.5q0 -57 -42 -99t-110 -42q-67 0 -108 42t-41 99z" />
    <glyph glyph-name="j" unicode="j" horiz-adv-x="571" 
d="M-10 -408q-91 0 -148 39t-57 111q0 46 37 80.5t84 34.5q39 0 66.5 -21.5t40 -47.5t31 -47.5t40.5 -21.5q40 0 64 35t24 101v819q0 35 -13 49t-44 14h-68v62l285 166h88v-908q0 -225 -121 -345t-309 -120zM152 1278q0 59 41 102t108 43q68 0 110 -43.5t42 -101.5
q0 -57 -42 -99t-110 -42q-67 0 -108 42t-41 99z" />
    <glyph glyph-name="k" unicode="k" horiz-adv-x="1161" 
d="M547 0h-500v70q76 7 100.5 26.5t24.5 69.5v1008q0 35 -13 49t-44 14h-68v61l285 166h88v-970l233 229q26 26 37.5 49t7.5 43.5t-34 33.5t-86 17v68h507v-68q-83 -7 -134.5 -33.5t-125.5 -97.5l-114 -114l319 -431q49 -66 83 -89t83 -31v-70h-551v70q58 5 85.5 24
t26.5 44.5t-24 56.5l-198 256l-115 -111v-174q0 -50 25.5 -69.5t101.5 -26.5v-70z" />
    <glyph glyph-name="l" unicode="l" horiz-adv-x="591" 
d="M547 0h-500v70q76 7 100.5 26.5t24.5 69.5v1008q0 35 -13 49t-44 14h-68v61l285 166h88v-1298q0 -50 25.5 -69.5t101.5 -26.5v-70z" />
    <glyph glyph-name="m" unicode="m" horiz-adv-x="1830" 
d="M1165 0h-499v70q76 7 101.5 26.5t25.5 69.5v506q0 78 -40 115.5t-108 37.5q-111 0 -225 -73v-586q0 -50 25.5 -69.5t101.5 -26.5v-70h-500v70q76 7 100.5 26.5t24.5 69.5v508q0 35 -13 49t-44 14h-68v62l285 166h88v-101q67 42 151 71.5t162 29.5q195 0 268 -127
q70 54 168 90.5t183 36.5q45 0 84.5 -7t81.5 -26.5t72 -51.5t49.5 -86.5t19.5 -125.5v-502q0 -50 24.5 -69.5t100.5 -26.5v-70h-500v70q76 7 101.5 26.5t25.5 69.5v506q0 78 -39.5 115.5t-107.5 37.5q-119 0 -232 -77q8 -50 8 -80v-502q0 -50 24.5 -69.5t100.5 -26.5v-70z
" />
    <glyph glyph-name="n" unicode="n" horiz-adv-x="1212" 
d="M1165 0h-499v70q76 7 101.5 26.5t25.5 69.5v506q0 78 -40 115.5t-108 37.5q-111 0 -225 -73v-586q0 -50 25.5 -69.5t101.5 -26.5v-70h-500v70q76 7 100.5 26.5t24.5 69.5v508q0 35 -13 49t-44 14h-68v62l285 166h88v-101q67 42 151 71.5t162 29.5q45 0 84.5 -7
t81.5 -26.5t72 -51.5t49.5 -86.5t19.5 -125.5v-502q0 -50 24.5 -69.5t100.5 -26.5v-70z" />
    <glyph glyph-name="o" unicode="o" horiz-adv-x="1136" 
d="M61 467q0 218 140 358t368 140t367 -140t139 -358q0 -217 -139.5 -357.5t-366.5 -140.5t-367.5 140.5t-140.5 357.5zM322 467q0 -395 247 -395q131 0 188.5 102.5t57.5 292.5t-57.5 292.5t-188.5 102.5q-247 0 -247 -395z" />
    <glyph glyph-name="p" unicode="p" horiz-adv-x="1171" 
d="M537 -377h-500v68q76 7 100.5 27t24.5 71v885q0 35 -13.5 49t-44.5 14h-73v62l291 166h88v-101q106 101 270 101q195 0 312.5 -138t117.5 -360q0 -223 -122.5 -360.5t-336.5 -137.5q-148 0 -241 80v-260q0 -51 25.5 -71t101.5 -27v-68zM606 848q-126 0 -196 -98v-566
q70 -98 196 -98q128 0 186 97t58 284t-58 284t-186 97z" />
    <glyph glyph-name="q" unicode="q" horiz-adv-x="1155" 
d="M1135 -377h-500v68q76 7 101.5 27t25.5 71v283q-98 -103 -270 -103q-195 0 -313 139t-118 359q0 221 118 359.5t313 138.5q180 0 282 -113l146 113h90v-1176q0 -51 24.5 -71t100.5 -27v-68zM565 88q127 0 197 98v564q-70 98 -197 98q-128 0 -185.5 -97t-57.5 -284
t57.5 -283t185.5 -96z" />
    <glyph glyph-name="r" unicode="r" horiz-adv-x="866" 
d="M852 821q0 -61 -35 -97t-86 -36q-29 0 -52 10.5t-37 25t-26 29t-27 25t-34 10.5q-34 0 -70.5 -20.5t-64.5 -60.5v-541q0 -50 25.5 -69.5t101.5 -26.5v-70h-500v70q76 7 100.5 26.5t24.5 69.5v508q0 35 -13 49t-44 14h-68v62l285 166h88v-129q51 59 121.5 94t140.5 35
q82 0 126 -39.5t44 -104.5z" />
    <glyph glyph-name="s" unicode="s" horiz-adv-x="972" 
d="M311 756q0 -42 34 -72.5t88.5 -48.5t120.5 -35t131.5 -39.5t120 -54t88.5 -86.5t34 -129q0 -147 -112 -234.5t-284 -87.5q-93 0 -180.5 27t-142.5 67l-25 -63h-63l-74 324l55 16q172 -270 422 -270q79 0 132 36t53 103q0 46 -34.5 78.5t-90 52t-123 36.5t-134.5 39.5
t-122.5 53t-90 84.5t-34.5 127q0 122 104 203.5t260 81.5q170 0 281 -82l23 51h63l59 -283l-59 -18q-68 119 -158 177t-188 58q-73 0 -113.5 -31.5t-40.5 -80.5z" />
    <glyph glyph-name="t" unicode="t" horiz-adv-x="686" 
d="M639 115v-103q-86 -39 -205 -39q-134 0 -205 59t-71 201v594h-127v60q123 45 189 130t95 224h91v-307h233v-107h-233v-596q0 -141 112 -141q66 0 121 25z" />
    <glyph glyph-name="u" unicode="u" horiz-adv-x="1196" 
d="M651 737v62l283 166h90v-799q0 -50 25.5 -69.5t101.5 -26.5v-70q-181 0 -375 -31v101q-66 -42 -150.5 -71.5t-160.5 -29.5q-45 0 -85 7t-82 27t-72 52t-49 87t-19 126v406q0 35 -13.5 49t-44.5 14h-69v62l284 166h91v-701q0 -155 145 -155q113 0 225 75v490q0 35 -13 49
t-44 14h-68z" />
    <glyph glyph-name="v" unicode="v" horiz-adv-x="985" 
d="M565 0h-155l-277 705q-19 49 -28.5 70t-27 45t-39 33t-54.5 13v68h510v-68q-91 -7 -110 -38.5t13 -104.5l164 -428l168 422q30 78 8.5 109.5t-102.5 39.5v68h366v-68q-56 -7 -87 -41.5t-64 -119.5z" />
    <glyph glyph-name="w" unicode="w" horiz-adv-x="1583" 
d="M1010 0l-222 582l-219 -582h-172l-268 705q-33 90 -58.5 122t-86.5 39v68h497v-68q-89 -7 -105.5 -40t17.5 -121l160 -418l176 452q-29 64 -56 92.5t-75 34.5v68h498v-68q-89 -7 -106.5 -40t16.5 -121l157 -418l160 418q31 88 8 120.5t-112 40.5v68h378v-68
q-55 -7 -85.5 -41t-63.5 -120l-266 -705h-172z" />
    <glyph glyph-name="x" unicode="x" horiz-adv-x="1073" 
d="M623 160l-152 202l-158 -202q-29 -38 -7 -61.5t89 -28.5v-70h-375v70q55 6 87.5 25t66.5 65l234 299l-222 317q-35 49 -60.5 67.5t-78.5 22.5v68h508v-68q-131 -12 -72 -90l117 -162l125 162q30 34 10.5 59t-90.5 31v68h381v-68q-58 -6 -91.5 -25.5t-68.5 -64.5
l-200 -258l252 -358q34 -47 61 -65.5t74 -24.5v-70h-502v70q74 3 89 25t-17 65z" />
    <glyph glyph-name="y" unicode="y" horiz-adv-x="985" 
d="M850 705l-356 -879q-46 -115 -123.5 -174.5t-180.5 -59.5q-87 0 -147.5 42.5t-60.5 109.5q0 50 33.5 83.5t84.5 33.5q32 0 58 -15.5t40.5 -34t35.5 -34t45 -15.5q66 0 112 115l35 86l-293 742q-19 49 -28.5 70t-27 45t-39 33t-54.5 13v68h510v-68q-92 -7 -109.5 -40
t18.5 -121l158 -410l164 410q32 88 9.5 120.5t-105.5 40.5v68h372v-68q-56 -7 -87 -41.5t-64 -119.5z" />
    <glyph glyph-name="z" unicode="z" horiz-adv-x="993" 
d="M45 70l539 764h-107q-126 0 -207 -44.5t-143 -152.5l-64 22l80 275h760v-68l-536 -764h147q73 0 133.5 18t107.5 53.5t81.5 74t72.5 94.5l60 -29l-133 -313h-791v70z" />
    <glyph glyph-name="braceleft" unicode="{" horiz-adv-x="655" 
d="M610 -367v-69q-109 0 -194.5 42.5t-138 133.5t-52.5 221v338q0 99 -39 148t-139 49v77q100 0 139 50t39 149v336q0 130 52.5 221t138 133.5t194.5 42.5v-69q-82 0 -129 -54t-47 -159v-334q0 -293 -241 -354q241 -61 241 -353v-336q0 -105 47 -159t129 -54z" />
    <glyph glyph-name="bar" unicode="|" horiz-adv-x="655" 
d="M274 -438v1933h107v-1933h-107z" />
    <glyph glyph-name="braceright" unicode="}" horiz-adv-x="655" 
d="M47 -436v69q81 0 128.5 54.5t47.5 158.5v336q0 293 240 353q-240 60 -240 354v334q0 104 -47.5 158.5t-128.5 54.5v69q167 0 275 -102.5t108 -294.5v-336q0 -99 40 -149t140 -50v-77q-101 0 -140.5 -49t-39.5 -148v-338q0 -192 -108 -294.5t-275 -102.5z" />
    <glyph glyph-name="asciitilde" unicode="~" horiz-adv-x="1079" 
d="M895 864h92q0 -323 -276 -323q-53 0 -104 18.5t-89.5 44.5t-73.5 52t-71.5 44.5t-69.5 18.5q-57 0 -86 -33.5t-29 -116.5h-98q0 326 277 326q66 0 129.5 -28t105 -61t90 -61t88.5 -28q57 0 86 32.5t29 114.5z" />
    <glyph glyph-name="uni00A0" unicode="&#xa0;" horiz-adv-x="499" 
 />
    <glyph glyph-name="exclamdown" unicode="&#xa1;" horiz-adv-x="520" 
d="M211 504h96q3 -152 22 -282.5t39.5 -203t37 -156t16.5 -153.5q0 -120 -46 -179.5t-118 -59.5t-117 59.5t-45 179.5q0 70 16.5 153.5t37 156t39.5 203t22 282.5zM422 797q0 -64 -45 -111t-119 -47q-72 0 -118 47t-46 111q0 67 45.5 114t118.5 47q74 0 119 -47t45 -114z
" />
    <glyph glyph-name="cent" unicode="&#xa2;" horiz-adv-x="1196" 
d="M954 997q0 -54 -33.5 -85t-82.5 -31q-91 0 -111 114q-22 112 -109 135v-776h7q188 0 288 234l95 -51q-61 -137 -154 -212t-236 -81v-305h-104v309q-196 24 -309 159t-113 334t117 336.5t305 157.5v260h104v-258q147 -10 241.5 -80t94.5 -160zM338 741q0 -141 44.5 -236
t131.5 -130v755q-176 -46 -176 -389z" />
    <glyph glyph-name="sterling" unicode="&#xa3;" horiz-adv-x="1196" 
d="M47 662v102h215q-76 152 -76 301q0 180 131 289.5t351 109.5q99 0 179.5 -25.5t130.5 -68t76.5 -96t26.5 -111.5q0 -88 -50.5 -145t-125.5 -57q-62 0 -99.5 37t-37.5 89q0 54 32 86t79 37q30 7 30 23q0 52 -52 85.5t-136 33.5q-113 0 -170 -70.5t-57 -177.5
q0 -136 57 -340h289v-102h-260q36 -148 36 -269q0 -66 -12 -125q146 -73 246 -73q83 0 136 37t65 112h106q-18 -176 -98.5 -275.5t-231.5 -99.5q-161 0 -299 127q-91 -127 -243 -127q-95 0 -162.5 54.5t-67.5 148.5q0 90 68 144.5t168 54.5q68 0 153 -29q-7 58 -28.5 119.5
t-41 98.5t-57.5 102h-270zM285 76q104 0 147 114q-77 74 -141 74q-52 0 -83.5 -26t-31.5 -66q0 -42 30.5 -69t78.5 -27z" />
    <glyph glyph-name="currency" unicode="&#xa4;" horiz-adv-x="1196" 
d="M305 717q0 -120 86.5 -206.5t206.5 -86.5q121 0 207 86.5t86 206.5q0 121 -85.5 207t-207.5 86q-120 0 -206.5 -86t-86.5 -207zM158 717q0 141 75 246l-188 188l121 119l186 -189q107 76 246 76q137 0 244 -76l190 191l121 -123l-190 -186q75 -105 75 -246t-75 -246
l188 -186l-119 -121l-188 188q-107 -76 -246 -76q-144 0 -246 76l-186 -186l-121 119l186 186q-73 107 -73 246z" />
    <glyph glyph-name="yen" unicode="&#xa5;" horiz-adv-x="1196" 
d="M61 545v102h365l-236 541q-41 99 -70.5 135t-92.5 43v68h524v-68q-28 -2 -46.5 -10t-29 -17t-12.5 -27.5t-1 -32t10 -40.5t15.5 -42.5t20.5 -47.5l174 -397l172 411q15 36 22 56.5t14 47t3.5 40.5t-12.5 28.5t-29.5 21.5t-52.5 9v68h370v-68q-68 -7 -100 -44t-72 -136
l-223 -539h361v-102h-390v-168h390v-103h-390v-45q0 -53 6.5 -81.5t30 -45.5t53 -22.5t91.5 -9.5v-70h-643v70q62 4 91.5 9.5t52.5 22.5t29.5 45.5t6.5 81.5v45h-402v103h402v168h-402z" />
    <glyph glyph-name="brokenbar" unicode="&#xa6;" horiz-adv-x="655" 
d="M274 -438v868h107v-868h-107zM274 627v868h107v-868h-107z" />
    <glyph glyph-name="section" unicode="&#xa7;" horiz-adv-x="1034" 
d="M436 1219q0 -63 28.5 -120t74.5 -104.5t101.5 -97.5t111 -111t101.5 -132.5t74.5 -174t28.5 -223.5q0 -95 -20 -188.5t-63.5 -179.5t-105.5 -151.5t-152 -105t-197 -39.5q-89 0 -145 37t-56 99q0 54 33.5 89.5t87.5 35.5q39 0 66.5 -21t38.5 -46t29 -46t42 -21
q39 0 61.5 33.5t22.5 85.5q0 63 -28.5 120t-74.5 104.5t-101.5 98t-111 112t-101.5 132.5t-74.5 174t-28.5 224q0 95 20 187.5t63.5 178.5t105.5 151.5t152 104.5t197 39q89 0 145 -36.5t56 -98.5q0 -54 -33.5 -89.5t-87.5 -35.5q-39 0 -66.5 21t-38.5 45.5t-29 45.5t-42 21
q-39 0 -61.5 -33t-22.5 -85zM285 1163q-22 -46 -33 -75.5t-21 -80.5t-10 -112q0 -86 29 -166.5t76 -145t103.5 -128t112.5 -126.5t103 -127.5t76 -143.5t29 -164q32 68 47.5 125t15.5 145q0 85 -29 165.5t-75.5 145t-103 127.5l-113 126t-103 127.5t-75.5 143.5t-29 164z
" />
    <glyph glyph-name="dieresis" unicode="&#xa8;" horiz-adv-x="1048" 
d="M203 1260q0 50 35.5 87t93.5 37q59 0 95 -37t36 -87t-36 -86.5t-95 -36.5q-58 0 -93.5 36.5t-35.5 86.5zM586 1260q0 50 35 87t94 37t95 -37t36 -87t-36 -86.5t-95 -36.5t-94 36.5t-35 86.5z" />
    <glyph glyph-name="copyright" unicode="&#xa9;" horiz-adv-x="1597" 
d="M51 717q0 152 59.5 290t159.5 238.5t238.5 159.5t290.5 59t290 -59t238.5 -159.5t159.5 -238.5t59 -290t-59 -290.5t-159.5 -238.5t-238.5 -159.5t-290 -59.5q-203 0 -375 100.5t-272.5 272.5t-100.5 375zM129 717q0 -181 90 -335.5t244.5 -244.5t335.5 -90q137 0 261 53
t213 143t142 214t53 260q0 137 -53 261t-142 213t-213 142t-261 53q-136 0 -260 -53t-214 -142t-143 -213t-53 -261zM1087 1151l58 -248l-51 -14q-43 89 -111.5 145t-146.5 56q-60 0 -102.5 -27t-66 -78.5t-34 -115.5t-10.5 -148q0 -83 10.5 -147t34 -115t66 -78t102.5 -27
q96 0 163 61t93 148l82 -28q-94 -263 -361 -263q-194 0 -312 122.5t-118 326.5q0 203 118 325.5t312 122.5q118 0 197 -53l16 35h61z" />
    <glyph glyph-name="ordfeminine" unicode="&#xaa;" horiz-adv-x="876" 
d="M684 549q-141 0 -162 98q-139 -100 -262 -100q-97 0 -155 47.5t-58 124.5q0 52 27.5 94.5t71 71.5t108.5 53t126.5 38.5t139.5 27.5v90q0 72 -19.5 100.5t-72.5 28.5q-49 0 -77.5 -23.5t-47.5 -79.5q-15 -43 -47.5 -65.5t-75.5 -22.5q-38 0 -62 24t-24 68q0 79 103.5 131
t259.5 52q61 0 112 -12t92.5 -38t65 -72t23.5 -108v-364q0 -60 43 -60q22 0 47 11v-76q-64 -39 -156 -39zM373 676q67 0 147 55v191q-123 -21 -184.5 -55t-61.5 -99q0 -43 28 -67.5t71 -24.5z" />
    <glyph glyph-name="guillemotleft" unicode="&#xab;" horiz-adv-x="1044" 
d="M547 63l-51 -38l-363 383q-31 31 -31 69q0 41 31 72l363 381l51 -37l-189 -416zM940 63l-51 -38l-363 383q-30 30 -30 69q0 42 30 72l363 381l51 -37l-188 -416z" />
    <glyph glyph-name="logicalnot" unicode="&#xac;" horiz-adv-x="1144" 
d="M18 864v117h1108v-516h-116v399h-992z" />
    <glyph glyph-name="uni00AD" unicode="&#xad;" horiz-adv-x="536" 
d="M18 401v152h500v-152h-500z" />
    <glyph glyph-name="registered" unicode="&#xae;" horiz-adv-x="899" 
d="M49 1063q0 166 118 283.5t284 117.5t283.5 -117.5t117.5 -283.5q0 -164 -117.5 -281.5t-283.5 -117.5t-284 117.5t-118 281.5zM121 1063q0 -136 96.5 -232t233.5 -96t233 96t96 232q0 138 -96 235t-233 97t-233.5 -97t-96.5 -235zM655 1165q0 -89 -94 -108l78 -117
q12 -19 22.5 -26.5t30.5 -10.5v-39h-147l-113 183h-24v-103q0 -24 8 -31t37 -10v-39h-222v39q29 3 37 10t8 31v252q0 24 -8 30t-37 9v39h254q170 0 170 -109zM526 1165q0 30 -17 42t-52 12h-33q-6 0 -11 -5t-5 -12v-98h47q71 0 71 61z" />
    <glyph glyph-name="macron" unicode="&#xaf;" horiz-adv-x="1079" 
d="M264 1174v126h551v-126h-551z" />
    <glyph glyph-name="degree" unicode="&#xb0;" horiz-adv-x="577" 
d="M51 1227q0 98 70 167.5t168 69.5t167.5 -69.5t69.5 -167.5q0 -97 -69.5 -166.5t-167.5 -69.5t-168 69.5t-70 166.5zM139 1227q0 -63 43.5 -106.5t106.5 -43.5t107 43.5t44 106.5t-44 107t-107 44t-106.5 -44t-43.5 -107z" />
    <glyph glyph-name="plusminus" unicode="&#xb1;" horiz-adv-x="1144" 
d="M18 662v116h496v494h117v-494h495v-116h-495v-457h-117v457h-496zM18 0v111h1108v-111h-1108z" />
    <glyph glyph-name="twosuperior" unicode="&#xb2;" horiz-adv-x="782" 
d="M174 1159h-88q0 135 83 214t224 79q127 0 207 -70t80 -180q0 -236 -385 -454h274q40 0 54.5 13.5t27.5 69.5h62l-35 -284h-60q0 26 -30 26h-492v101q84 60 145.5 114.5t118 121t86 140.5t29.5 152q0 76 -36 120t-105 44q-71 0 -115.5 -53t-44.5 -154z" />
    <glyph glyph-name="threesuperior" unicode="&#xb3;" horiz-adv-x="782" 
d="M668 1260q0 -64 -42.5 -113t-119.5 -74q95 -14 155 -76t60 -149q0 -127 -97.5 -210t-269.5 -83q-70 0 -134 14.5t-110.5 48.5t-46.5 82q0 38 25 64.5t59 26.5q36 0 61 -15.5t39 -37.5t27.5 -44t36.5 -37.5t56 -15.5q79 0 113 45.5t34 134.5q0 83 -52.5 134t-150.5 51h-22
v84h22q73 0 112.5 38t39.5 107q0 60 -33 95.5t-92 35.5q-62 0 -105 -42t-49 -120h-88q11 118 86.5 183t206.5 65q132 0 205.5 -53t73.5 -139z" />
    <glyph glyph-name="acute" unicode="&#xb4;" horiz-adv-x="1079" 
d="M451 1036l180 310q17 36 63 36h146q37 0 37 -34q0 -27 -52 -70l-272 -242h-102z" />
    <glyph glyph-name="mu" unicode="&#xb5;" horiz-adv-x="1157" 
d="M500 -31q-125 0 -207 76q22 -48 61 -111t61.5 -108t22.5 -80q0 -70 -42 -112t-105 -42q-62 0 -104 42.5t-42 111.5v1188h248v-670q0 -79 39 -117t107 -38q112 0 227 75q-2 25 -2 74v676h248v-744q0 -96 61 -96q27 0 68 21v-90q-74 -50 -174 -50q-146 0 -189 109
q-51 -50 -124.5 -82.5t-153.5 -32.5z" />
    <glyph glyph-name="paragraph" unicode="&#xb6;" horiz-adv-x="860" 
d="M51 961q0 197 137.5 335t333.5 138h301v-68q-59 -4 -89 -10t-53.5 -21.5t-30.5 -42.5t-7 -75v-1082q0 -260 -126.5 -408.5t-348.5 -148.5q-144 0 -237 58t-93 143q0 55 38 92t91 37q41 0 72 -20.5t51 -49t40 -57.5t52 -49.5t74 -20.5q111 0 188.5 108t77.5 316v352
q-129 0 -237.5 63t-171 172t-62.5 239z" />
    <glyph glyph-name="periodcentered" unicode="&#xb7;" horiz-adv-x="520" 
d="M96 477q0 64 45 111t119 47q72 0 118 -47t46 -111q0 -67 -45.5 -114.5t-118.5 -47.5q-74 0 -119 47.5t-45 114.5z" />
    <glyph glyph-name="cedilla" unicode="&#xb8;" horiz-adv-x="1079" 
d="M651 -121q71 0 115.5 -35t44.5 -96q0 -79 -78 -140t-203 -61q-99 0 -163 38.5t-64 92.5q0 27 19 47.5t47 20.5t45 -12.5t25.5 -31t18.5 -36.5t31.5 -30.5t55.5 -12.5q53 0 83.5 26.5t30.5 69.5q0 29 -20.5 47.5t-54.5 18.5q-40 0 -74 -27l-55 27l92 215h108l-57 -129
q19 8 53 8z" />
    <glyph glyph-name="onesuperior" unicode="&#xb9;" horiz-adv-x="782" 
d="M594 573h-404v54q65 5 84 19.5t19 64.5v536q0 19 -7 27t-24 8h-72v51l230 119h72v-741q0 -50 19.5 -64.5t82.5 -19.5v-54z" />
    <glyph glyph-name="ordmasculine" unicode="&#xba;" horiz-adv-x="882" 
d="M33 926q0 167 111 274t296 107q187 0 299.5 -107t112.5 -274t-112.5 -274t-299.5 -107q-185 0 -296 107t-111 274zM268 926q0 -143 39.5 -218t132.5 -75q95 0 133.5 74.5t38.5 218.5t-38.5 217.5t-133.5 73.5q-93 0 -132.5 -74t-39.5 -217z" />
    <glyph glyph-name="guillemotright" unicode="&#xbb;" horiz-adv-x="1050" 
d="M154 25l-52 38l189 414l-189 416l52 37l362 -381q31 -31 31 -72q0 -38 -31 -69zM547 25l-51 38l188 414l-188 416l51 37l362 -381q31 -31 31 -72q0 -38 -31 -69z" />
    <glyph glyph-name="onequarter" unicode="&#xbc;" horiz-adv-x="1800" 
d="M1608 0h-199v205h-342v63l401 611h140v-590h145v-84h-145v-205zM1409 627l-225 -338h225v338zM594 573h-404v54q65 5 84 19.5t19 64.5v536q0 19 -7 27t-24 8h-72v51l230 119h72v-741q0 -50 19.5 -64.5t82.5 -19.5v-54zM377 0l938 1434h108l-938 -1434h-108z" />
    <glyph glyph-name="onehalf" unicode="&#xbd;" horiz-adv-x="1800" 
d="M1192 586h-88q0 135 83 214t224 79q127 0 207 -70t80 -180q0 -237 -385 -455h274q40 0 54.5 14t27.5 70h62l-35 -285h-60q0 27 -30 27h-492v100q84 60 145.5 114.5t118 121.5t86 141t29.5 152q0 76 -36 120t-105 44q-71 0 -115.5 -53t-44.5 -154zM594 573h-404v54
q65 5 84 19.5t19 64.5v536q0 19 -7 27t-24 8h-72v51l230 119h72v-741q0 -50 19.5 -64.5t82.5 -19.5v-54zM377 0l938 1434h108l-938 -1434h-108z" />
    <glyph glyph-name="threequarters" unicode="&#xbe;" horiz-adv-x="1800" 
d="M1608 0h-199v205h-342v63l401 611h140v-590h145v-84h-145v-205zM1409 627l-225 -338h225v338zM668 1260q0 -64 -42.5 -113t-119.5 -74q95 -14 155 -76t60 -149q0 -127 -97.5 -210t-269.5 -83q-70 0 -134 14.5t-110.5 48.5t-46.5 82q0 38 25 64.5t59 26.5q36 0 61 -15.5
t39 -37.5t27.5 -44t36.5 -37.5t56 -15.5q79 0 113 45.5t34 134.5q0 83 -52.5 134t-150.5 51h-22v84h22q73 0 112.5 38t39.5 107q0 60 -33 95.5t-92 35.5q-62 0 -105 -42t-49 -120h-88q11 118 86.5 183t206.5 65q132 0 205.5 -53t73.5 -139zM377 0l938 1434h108l-938 -1434
h-108z" />
    <glyph glyph-name="questiondown" unicode="&#xbf;" horiz-adv-x="976" 
d="M506 338l4 166h106v-395q-65 0 -118.5 -8t-98.5 -27t-76 -48.5t-48 -74t-17 -101.5q0 -105 70.5 -182.5t189.5 -77.5q47 0 79 22t50.5 53t36 62.5t48 53.5t75.5 22q49 0 83 -35.5t34 -91.5q0 -70 -47.5 -117.5t-121 -68t-167.5 -20.5q-102 0 -190 27t-151 73
t-108.5 106.5t-67.5 128t-22 136.5q0 192 124.5 293.5t332.5 103.5zM725 797q0 -65 -44.5 -111.5t-117.5 -46.5q-74 0 -119 47t-45 111q0 67 45 114t119 47t118 -47t44 -114z" />
    <glyph glyph-name="Agrave" unicode="&#xc0;" 
d="M621 1434h184l469 -1223q26 -72 61.5 -102.5t100.5 -38.5v-70h-592v70q104 8 132.5 33t2.5 92l-88 223h-535l-84 -223q-24 -62 12.5 -89.5t143.5 -35.5v-70h-448v70q69 8 107.5 38t64.5 97zM623 1114l-222 -579h445zM608 1825l178 -309h-100l-274 241q-29 25 -40.5 39.5
t-11.5 30.5q0 35 37 35h148q42 0 63 -37z" />
    <glyph glyph-name="Aacute" unicode="&#xc1;" 
d="M621 1434h184l469 -1223q26 -72 61.5 -102.5t100.5 -38.5v-70h-592v70q104 8 132.5 33t2.5 92l-88 223h-535l-84 -223q-24 -62 12.5 -89.5t143.5 -35.5v-70h-448v70q69 8 107.5 38t64.5 97zM623 1114l-222 -579h445zM641 1516l180 309q18 37 64 37h145q37 0 37 -35
q0 -28 -51 -70l-273 -241h-102z" />
    <glyph glyph-name="Acircumflex" unicode="&#xc2;" 
d="M621 1434h184l469 -1223q26 -72 61.5 -102.5t100.5 -38.5v-70h-592v70q104 8 132.5 33t2.5 92l-88 223h-535l-84 -223q-24 -62 12.5 -89.5t143.5 -35.5v-70h-448v70q69 8 107.5 38t64.5 97zM623 1114l-222 -579h445zM389 1513l207 312q27 41 70 41h90q42 0 69 -41
l207 -312h-102l-219 201l-219 -201h-103z" />
    <glyph glyph-name="Atilde" unicode="&#xc3;" 
d="M621 1434h184l469 -1223q26 -72 61.5 -102.5t100.5 -38.5v-70h-592v70q104 8 132.5 33t2.5 92l-88 223h-535l-84 -223q-24 -62 12.5 -89.5t143.5 -35.5v-70h-448v70q69 8 107.5 38t64.5 97zM623 1114l-222 -579h445zM926 1835h78q-7 -117 -58 -172t-123 -55
q-44 0 -90.5 25.5t-88 51t-73.5 25.5q-28 0 -50 -20.5t-29 -63.5h-80q7 117 57.5 172t120.5 55q45 0 92.5 -25.5t89.5 -51t74 -25.5q28 0 50.5 20.5t29.5 63.5z" />
    <glyph glyph-name="Adieresis" unicode="&#xc4;" 
d="M621 1434h184l469 -1223q26 -72 61.5 -102.5t100.5 -38.5v-70h-592v70q104 8 132.5 33t2.5 92l-88 223h-535l-84 -223q-24 -62 12.5 -89.5t143.5 -35.5v-70h-448v70q69 8 107.5 38t64.5 97zM623 1114l-222 -579h445zM385 1739q0 50 36 87.5t93 37.5q59 0 95 -37.5
t36 -87.5t-36 -86.5t-95 -36.5q-58 0 -93.5 36.5t-35.5 86.5zM768 1739q0 50 35 87.5t94 37.5t95 -37.5t36 -87.5t-36 -86.5t-95 -36.5t-94 36.5t-35 86.5z" />
    <glyph glyph-name="Aring" unicode="&#xc5;" 
d="M621 1434h184l469 -1223q26 -72 61.5 -102.5t100.5 -38.5v-70h-592v70q104 8 132.5 33t2.5 92l-88 223h-535l-84 -223q-24 -62 12.5 -89.5t143.5 -35.5v-70h-448v70q69 8 107.5 38t64.5 97zM623 1114l-222 -579h445zM502 1688q0 85 59.5 144.5t145.5 59.5
q85 0 144.5 -59.5t59.5 -144.5q0 -84 -59.5 -143.5t-144.5 -59.5q-86 0 -145.5 59.5t-59.5 143.5zM598 1688q0 -46 31.5 -78.5t77.5 -32.5t78 32.5t32 78.5t-32 78t-78 32t-77.5 -32t-31.5 -78z" />
    <glyph glyph-name="AE" unicode="&#xc6;" horiz-adv-x="2205" 
d="M1366 117h160q104 0 195 23t165.5 66.5t134.5 98t117 125.5l57 -35l-198 -395h-1155v70q62 4 91.5 9.5t52.5 22.5t29.5 45.5t6.5 81.5v193h-549l-137 -197q-44 -68 -13.5 -107.5t123.5 -47.5v-70h-473v70q119 6 226 159l768 1100q-44 27 -176 37v68h1204l127 -353
l-58 -28q-101 139 -225.5 202.5t-314.5 63.5h-158q-28 0 -44.5 -17t-16.5 -45v-450h286q55 0 91 12t55 38t27 57t10 79h75v-489h-75q-2 48 -10 79t-27 57t-55 38t-91 12h-286v-512q0 -29 16.5 -45t44.5 -16zM1022 537v667l-469 -667h469z" />
    <glyph glyph-name="Ccedilla" unicode="&#xc7;" horiz-adv-x="1427" 
d="M842 -121q71 0 115 -34.5t44 -96.5q0 -80 -77.5 -140.5t-202.5 -60.5q-99 0 -163 38.5t-64 92.5q0 27 18.5 47.5t46.5 20.5t45 -12.5t25.5 -31t18.5 -36.5t31.5 -30.5t55.5 -12.5q53 0 84 26.5t31 69.5q0 29 -21 47.5t-55 18.5q-40 0 -74 -27l-55 27l80 186
q-291 19 -469 223.5t-178 522.5q0 164 51 303t142.5 236.5t221.5 152.5t283 55q208 0 346 -96l29 66h80l112 -406l-65 -20q-85 162 -207 254t-270 92q-110 0 -191.5 -46.5t-130 -133.5t-71.5 -200.5t-23 -256.5q0 -142 23 -255.5t71.5 -200.5t130 -134t191.5 -47
q165 0 291.5 96.5t171.5 247.5l112 -39q-141 -389 -545 -414l-43 -100q19 8 54 8z" />
    <glyph glyph-name="Egrave" unicode="&#xc8;" 
d="M575 117h160q201 0 348 82.5t265 230.5l57 -35l-199 -395h-1155v70q62 4 91.5 9.5t52.5 22.5t29.5 45.5t6.5 81.5v975q0 53 -6.5 82t-29.5 46.5t-53 23.5t-91 10v68h1153l127 -353l-57 -28q-101 139 -226 202.5t-315 63.5h-158q-28 0 -44.5 -17t-16.5 -45v-450h287
q105 0 141 44t41 142h76v-489h-76q-5 98 -41 142t-141 44h-287v-512q0 -29 16.5 -45t44.5 -16zM621 1825l178 -309h-101l-274 241q-28 24 -39.5 39t-11.5 31q0 35 37 35h147q43 0 64 -37z" />
    <glyph glyph-name="Eacute" unicode="&#xc9;" 
d="M653 1516l181 309q18 37 63 37h145q37 0 37 -35q0 -28 -51 -70l-272 -241h-103zM575 117h160q201 0 348 82.5t265 230.5l57 -35l-199 -395h-1155v70q62 4 91.5 9.5t52.5 22.5t29.5 45.5t6.5 81.5v975q0 53 -6.5 82t-29.5 46.5t-53 23.5t-91 10v68h1153l127 -353l-57 -28
q-101 139 -226 202.5t-315 63.5h-158q-28 0 -44.5 -17t-16.5 -45v-450h287q105 0 141 44t41 142h76v-489h-76q-5 98 -41 142t-141 44h-287v-512q0 -29 16.5 -45t44.5 -16z" />
    <glyph glyph-name="Ecircumflex" unicode="&#xca;" 
d="M395 1513l207 312q27 41 70 41h90q42 0 69 -41l207 -312h-102l-219 201l-219 -201h-103zM575 117h160q201 0 348 82.5t265 230.5l57 -35l-199 -395h-1155v70q62 4 91.5 9.5t52.5 22.5t29.5 45.5t6.5 81.5v975q0 53 -6.5 82t-29.5 46.5t-53 23.5t-91 10v68h1153l127 -353
l-57 -28q-101 139 -226 202.5t-315 63.5h-158q-28 0 -44.5 -17t-16.5 -45v-450h287q105 0 141 44t41 142h76v-489h-76q-5 98 -41 142t-141 44h-287v-512q0 -29 16.5 -45t44.5 -16z" />
    <glyph glyph-name="Edieresis" unicode="&#xcb;" 
d="M375 1739q0 50 36 87.5t93 37.5q59 0 95 -37.5t36 -87.5t-36 -86.5t-95 -36.5q-58 0 -93.5 36.5t-35.5 86.5zM758 1739q0 50 35 87.5t94 37.5t95 -37.5t36 -87.5t-36 -86.5t-95 -36.5t-94 36.5t-35 86.5zM575 117h160q201 0 348 82.5t265 230.5l57 -35l-199 -395h-1155
v70q62 4 91.5 9.5t52.5 22.5t29.5 45.5t6.5 81.5v975q0 53 -6.5 82t-29.5 46.5t-53 23.5t-91 10v68h1153l127 -353l-57 -28q-101 139 -226 202.5t-315 63.5h-158q-28 0 -44.5 -17t-16.5 -45v-450h287q105 0 141 44t41 142h76v-489h-76q-5 98 -41 142t-141 44h-287v-512
q0 -29 16.5 -45t44.5 -16z" />
    <glyph glyph-name="Igrave" unicode="&#xcc;" horiz-adv-x="741" 
d="M694 0h-643v70q62 4 91.5 9.5t52.5 22.5t29.5 45.5t6.5 81.5v975q0 53 -6.5 82t-29.5 46.5t-53 23.5t-91 10v68h643v-68q-61 -4 -91 -10t-53 -23.5t-29.5 -46.5t-6.5 -82v-975q0 -53 6.5 -81.5t29.5 -45.5t52.5 -22.5t91.5 -9.5v-70zM276 1825l179 -309h-101l-274 241
q-28 24 -39.5 39t-11.5 31q0 35 37 35h147q42 0 63 -37z" />
    <glyph glyph-name="Iacute" unicode="&#xcd;" horiz-adv-x="741" 
d="M694 0h-643v70q62 4 91.5 9.5t52.5 22.5t29.5 45.5t6.5 81.5v975q0 53 -6.5 82t-29.5 46.5t-53 23.5t-91 10v68h643v-68q-61 -4 -91 -10t-53 -23.5t-29.5 -46.5t-6.5 -82v-975q0 -53 6.5 -81.5t29.5 -45.5t52.5 -22.5t91.5 -9.5v-70zM311 1516l181 309q18 37 63 37h145
q37 0 37 -35q0 -28 -51 -70l-272 -241h-103z" />
    <glyph glyph-name="Icircumflex" unicode="&#xce;" horiz-adv-x="741" 
d="M694 0h-643v70q62 4 91.5 9.5t52.5 22.5t29.5 45.5t6.5 81.5v975q0 53 -6.5 82t-29.5 46.5t-53 23.5t-91 10v68h643v-68q-61 -4 -91 -10t-53 -23.5t-29.5 -46.5t-6.5 -82v-975q0 -53 6.5 -81.5t29.5 -45.5t52.5 -22.5t91.5 -9.5v-70zM53 1513l207 312q27 41 70 41h90
q42 0 69 -41l207 -312h-102l-219 201l-219 -201h-103z" />
    <glyph glyph-name="Idieresis" unicode="&#xcf;" horiz-adv-x="741" 
d="M694 0h-643v70q62 4 91.5 9.5t52.5 22.5t29.5 45.5t6.5 81.5v975q0 53 -6.5 82t-29.5 46.5t-53 23.5t-91 10v68h643v-68q-61 -4 -91 -10t-53 -23.5t-29.5 -46.5t-6.5 -82v-975q0 -53 6.5 -81.5t29.5 -45.5t52.5 -22.5t91.5 -9.5v-70zM53 1739q0 50 36 87.5t93 37.5
q59 0 95 -37.5t36 -87.5t-36 -86.5t-95 -36.5q-58 0 -93.5 36.5t-35.5 86.5zM436 1739q0 50 35 87.5t94 37.5t95 -37.5t36 -87.5t-36 -86.5t-95 -36.5t-94 36.5t-35 86.5z" />
    <glyph glyph-name="Eth" unicode="&#xd0;" horiz-adv-x="1572" 
d="M51 690v117h180v397q0 53 -6.5 82t-29.5 46.5t-53 23.5t-91 10v68h666q373 0 576.5 -184.5t203.5 -532.5q0 -346 -205 -531.5t-577 -185.5h-664v70q62 4 91.5 9.5t52.5 22.5t29.5 45.5t6.5 81.5v461h-180zM1190 717q0 137 -22.5 241t-62.5 172t-100.5 111t-130 60.5
t-157.5 17.5h-142q-28 0 -44.5 -17t-16.5 -45v-450h186v-117h-186v-512q0 -29 16.5 -45t44.5 -16h140q87 0 157 17.5t130.5 60.5t101 110.5t63.5 171.5t23 240z" />
    <glyph glyph-name="Ntilde" unicode="&#xd1;" horiz-adv-x="1519" 
d="M545 0h-494v70q50 3 76.5 7.5t50.5 13.5t34 26t15.5 43.5t5.5 68.5v975q0 53 -7 82t-30 46.5t-53.5 23.5t-91.5 10v68h502l623 -963v733q0 53 -6.5 82t-29 46.5t-52.5 23.5t-91 10v68h488v-68q-61 -4 -91 -10t-52.5 -23.5t-28.5 -46.5t-6 -82v-1204h-166l-776 1202v-973
q0 -53 6.5 -81.5t29.5 -45.5t52.5 -22.5t91.5 -9.5v-70zM977 1835h78q-7 -117 -58 -172t-123 -55q-44 0 -90.5 25.5t-87.5 51t-73 25.5q-28 0 -50.5 -20.5t-29.5 -63.5h-80q7 117 57.5 172t120.5 55q45 0 92.5 -25.5t89.5 -51t74 -25.5q28 0 50.5 20.5t29.5 63.5z" />
    <glyph glyph-name="Ograve" unicode="&#xd2;" horiz-adv-x="1579" 
d="M78 717q0 221 85 389.5t247.5 263t380.5 94.5q217 0 379.5 -94.5t247.5 -263t85 -389.5t-85 -389.5t-247.5 -263.5t-379.5 -95q-218 0 -380.5 95t-247.5 263.5t-85 389.5zM385 717q0 -637 406 -637q405 0 405 637t-405 637q-112 0 -192.5 -46.5t-126 -134t-66.5 -199.5
t-21 -257zM692 1825l178 -309h-100l-274 241q-29 25 -40.5 39.5t-11.5 30.5q0 35 37 35h148q42 0 63 -37z" />
    <glyph glyph-name="Oacute" unicode="&#xd3;" horiz-adv-x="1579" 
d="M727 1516l180 309q18 37 64 37h145q37 0 37 -35q0 -28 -51 -70l-273 -241h-102zM78 717q0 221 85 389.5t247.5 263t380.5 94.5q217 0 379.5 -94.5t247.5 -263t85 -389.5t-85 -389.5t-247.5 -263.5t-379.5 -95q-218 0 -380.5 95t-247.5 263.5t-85 389.5zM385 717
q0 -637 406 -637q405 0 405 637t-405 637q-112 0 -192.5 -46.5t-126 -134t-66.5 -199.5t-21 -257z" />
    <glyph glyph-name="Ocircumflex" unicode="&#xd4;" horiz-adv-x="1579" 
d="M467 1513l207 312q27 41 69 41h91q42 0 69 -41l207 -312h-102l-220 201l-219 -201h-102zM78 717q0 221 85 389.5t247.5 263t380.5 94.5q217 0 379.5 -94.5t247.5 -263t85 -389.5t-85 -389.5t-247.5 -263.5t-379.5 -95q-218 0 -380.5 95t-247.5 263.5t-85 389.5zM385 717
q0 -637 406 -637q405 0 405 637t-405 637q-112 0 -192.5 -46.5t-126 -134t-66.5 -199.5t-21 -257z" />
    <glyph glyph-name="Otilde" unicode="&#xd5;" horiz-adv-x="1579" 
d="M78 717q0 221 85 389.5t247.5 263t380.5 94.5q217 0 379.5 -94.5t247.5 -263t85 -389.5t-85 -389.5t-247.5 -263.5t-379.5 -95q-218 0 -380.5 95t-247.5 263.5t-85 389.5zM385 717q0 -637 406 -637q405 0 405 637t-405 637q-112 0 -192.5 -46.5t-126 -134t-66.5 -199.5
t-21 -257zM1008 1835h77q-7 -117 -57.5 -172t-122.5 -55q-44 0 -90.5 25.5t-88 51t-73.5 25.5q-28 0 -50.5 -20.5t-29.5 -63.5h-79q7 117 57.5 172t120.5 55q45 0 92.5 -25.5t89.5 -51t74 -25.5q28 0 50.5 20.5t29.5 63.5z" />
    <glyph glyph-name="Odieresis" unicode="&#xd6;" horiz-adv-x="1579" 
d="M467 1739q0 50 36 87.5t93 37.5q59 0 95 -37.5t36 -87.5t-36 -86.5t-95 -36.5q-58 0 -93.5 36.5t-35.5 86.5zM850 1739q0 50 35 87.5t94 37.5t95 -37.5t36 -87.5t-36 -86.5t-95 -36.5t-94 36.5t-35 86.5zM78 717q0 221 85 389.5t247.5 263t380.5 94.5q217 0 379.5 -94.5
t247.5 -263t85 -389.5t-85 -389.5t-247.5 -263.5t-379.5 -95q-218 0 -380.5 95t-247.5 263.5t-85 389.5zM385 717q0 -637 406 -637q405 0 405 637t-405 637q-112 0 -192.5 -46.5t-126 -134t-66.5 -199.5t-21 -257z" />
    <glyph glyph-name="multiply" unicode="&#xd7;" horiz-adv-x="1144" 
d="M217 281l-82 81l354 357l-354 354l82 82l354 -354l357 356l82 -82l-357 -356l357 -357l-82 -81l-357 356z" />
    <glyph glyph-name="Oslash" unicode="&#xd8;" horiz-adv-x="1579" 
d="M78 717q0 221 85 389.5t247.5 263t380.5 94.5q263 0 446 -141l94 111h139l-155 -183q188 -204 188 -534q0 -221 -85 -389.5t-247.5 -263.5t-379.5 -95q-264 0 -449 142l-94 -111h-139l153 180q-184 203 -184 537zM1196 717q0 210 -43 346l-682 -801q100 -182 320 -182
q405 0 405 637zM385 717q0 -208 41 -344l682 798q-100 183 -317 183q-112 0 -192.5 -46.5t-126 -134t-66.5 -199.5t-21 -257z" />
    <glyph glyph-name="Ugrave" unicode="&#xd9;" horiz-adv-x="1570" 
d="M500 1204v-778q0 -169 102 -252.5t264 -83.5t259.5 90t97.5 262v762q0 53 -6.5 82t-29.5 46.5t-53.5 23.5t-91.5 10v68h492v-68q-61 -4 -91 -10t-53 -23.5t-29.5 -46.5t-6.5 -82v-764q0 -217 -142 -344t-399 -127q-285 0 -440.5 120.5t-155.5 352.5v762q0 53 -6.5 82
t-29.5 46.5t-53 23.5t-91 10v68h643v-68q-62 -4 -92.5 -10t-53 -23.5t-28.5 -46.5t-6 -82zM752 1825l178 -309h-101l-274 241q-28 24 -39.5 39t-11.5 31q0 35 37 35h147q43 0 64 -37z" />
    <glyph glyph-name="Uacute" unicode="&#xda;" horiz-adv-x="1570" 
d="M788 1516l181 309q18 37 63 37h146q36 0 36 -35q0 -28 -51 -70l-272 -241h-103zM500 1204v-778q0 -169 102 -252.5t264 -83.5t259.5 90t97.5 262v762q0 53 -6.5 82t-29.5 46.5t-53.5 23.5t-91.5 10v68h492v-68q-61 -4 -91 -10t-53 -23.5t-29.5 -46.5t-6.5 -82v-764
q0 -217 -142 -344t-399 -127q-285 0 -440.5 120.5t-155.5 352.5v762q0 53 -6.5 82t-29.5 46.5t-53 23.5t-91 10v68h643v-68q-62 -4 -92.5 -10t-53 -23.5t-28.5 -46.5t-6 -82z" />
    <glyph glyph-name="Ucircumflex" unicode="&#xdb;" horiz-adv-x="1570" 
d="M463 1513l207 312q27 41 69 41h90q43 0 70 -41l207 -312h-102l-220 201l-219 -201h-102zM500 1204v-778q0 -169 102 -252.5t264 -83.5t259.5 90t97.5 262v762q0 53 -6.5 82t-29.5 46.5t-53.5 23.5t-91.5 10v68h492v-68q-61 -4 -91 -10t-53 -23.5t-29.5 -46.5t-6.5 -82
v-764q0 -217 -142 -344t-399 -127q-285 0 -440.5 120.5t-155.5 352.5v762q0 53 -6.5 82t-29.5 46.5t-53 23.5t-91 10v68h643v-68q-62 -4 -92.5 -10t-53 -23.5t-28.5 -46.5t-6 -82z" />
    <glyph glyph-name="Udieresis" unicode="&#xdc;" horiz-adv-x="1570" 
d="M530 1739q0 50 36 87.5t93 37.5q59 0 95.5 -37.5t36.5 -87.5t-36.5 -86.5t-95.5 -36.5q-58 0 -93.5 36.5t-35.5 86.5zM913 1739q0 50 35 87.5t94 37.5t95.5 -37.5t36.5 -87.5t-36.5 -86.5t-95.5 -36.5t-94 36.5t-35 86.5zM500 1204v-778q0 -169 102 -252.5t264 -83.5
t259.5 90t97.5 262v762q0 53 -6.5 82t-29.5 46.5t-53.5 23.5t-91.5 10v68h492v-68q-61 -4 -91 -10t-53 -23.5t-29.5 -46.5t-6.5 -82v-764q0 -217 -142 -344t-399 -127q-285 0 -440.5 120.5t-155.5 352.5v762q0 53 -6.5 82t-29.5 46.5t-53 23.5t-91 10v68h643v-68
q-62 -4 -92.5 -10t-53 -23.5t-28.5 -46.5t-6 -82z" />
    <glyph glyph-name="Yacute" unicode="&#xdd;" horiz-adv-x="1339" 
d="M350 70q62 4 91.5 9.5t52.5 22.5t29.5 45.5t6.5 81.5v308l-370 667q-48 91 -81.5 123t-98.5 39v68h600v-68q-99 -7 -122 -47.5t23 -122.5l275 -494l268 496q46 86 22 123t-124 45v68h438v-68q-70 -7 -106.5 -40t-82.5 -122l-358 -659v-316q0 -53 6.5 -81.5t29.5 -45.5
t52.5 -22.5t91.5 -9.5v-70h-643v70zM688 1516l180 309q18 37 64 37h145q37 0 37 -35q0 -28 -51 -70l-272 -241h-103z" />
    <glyph glyph-name="Thorn" unicode="&#xde;" horiz-adv-x="1433" 
d="M51 1434h643v-68q-61 -4 -91 -10t-53 -23.5t-29.5 -46.5t-6.5 -82v-82h246q149 0 260.5 -19t195.5 -61.5t127 -115.5t43 -176q0 -105 -43 -179.5t-128 -117t-196.5 -61.5t-262.5 -19h-242v-144q0 -53 6.5 -81.5t29.5 -45.5t52.5 -22.5t91.5 -9.5v-70h-643v70
q62 4 91.5 9.5t52.5 22.5t29.5 45.5t6.5 81.5v975q0 53 -6.5 82t-29.5 46.5t-53 23.5t-91 10v68zM1079 750q0 136 -80.5 196t-238.5 60h-246v-519h242q160 0 241.5 63t81.5 200z" />
    <glyph glyph-name="germandbls" unicode="&#xdf;" horiz-adv-x="1312" 
d="M47 827v107h125v47q0 122 37 216t103 151.5t151.5 86.5t187.5 29q180 0 289 -81.5t109 -213.5q0 -84 -64 -156t-178 -100q97 -15 175.5 -49.5t140.5 -91t96 -142t34 -194.5q0 -205 -115.5 -336t-306.5 -131q-146 0 -235.5 82.5t-89.5 194.5q0 54 28 83t74 29t78 -31.5
t35 -99.5q10 -78 34 -117.5t76 -39.5q89 0 125.5 93t36.5 271q0 218 -101 307.5t-298 89.5h-59v103q140 0 210 67t70 168q0 85 -48 140t-132 55q-97 0 -156 -57.5t-59 -186.5v-954q0 -47 22.5 -67.5t71.5 -28.5v-70h-467v70q76 7 100.5 26.5t24.5 69.5v661h-125z" />
    <glyph glyph-name="agrave" unicode="&#xe0;" horiz-adv-x="1091" 
d="M860 -25q-161 0 -188 129q-179 -131 -334 -131q-127 0 -202 61.5t-75 166.5q0 48 17 90t46.5 74t75 59.5t94 48t113.5 38.5t125.5 30.5t135.5 25.5v109q0 106 -26.5 147t-100.5 41q-75 0 -119 -34t-66 -109q-34 -111 -131 -111q-44 0 -71 28.5t-27 82.5q0 103 121 173.5
t313 70.5q75 0 136 -15t111.5 -48t78.5 -93t28 -143v-478q0 -94 62 -94q26 0 67 21v-90q-74 -50 -184 -50zM451 121q98 0 217 82v264q-84 -14 -143 -30.5t-107.5 -42t-72 -62.5t-23.5 -86q0 -63 35.5 -94t93.5 -31zM446 1360l179 -309h-101l-274 241q-28 24 -39.5 39
t-11.5 31q0 35 37 35h147q42 0 63 -37z" />
    <glyph glyph-name="aacute" unicode="&#xe1;" horiz-adv-x="1091" 
d="M860 -25q-161 0 -188 129q-179 -131 -334 -131q-127 0 -202 61.5t-75 166.5q0 48 17 90t46.5 74t75 59.5t94 48t113.5 38.5t125.5 30.5t135.5 25.5v109q0 106 -26.5 147t-100.5 41q-75 0 -119 -34t-66 -109q-34 -111 -131 -111q-44 0 -71 28.5t-27 82.5q0 103 121 173.5
t313 70.5q75 0 136 -15t111.5 -48t78.5 -93t28 -143v-478q0 -94 62 -94q26 0 67 21v-90q-74 -50 -184 -50zM451 121q98 0 217 82v264q-84 -14 -143 -30.5t-107.5 -42t-72 -62.5t-23.5 -86q0 -63 35.5 -94t93.5 -31zM483 1051l181 309q18 37 63 37h145q37 0 37 -35
q0 -28 -51 -70l-272 -241h-103z" />
    <glyph glyph-name="acircumflex" unicode="&#xe2;" horiz-adv-x="1091" 
d="M860 -25q-161 0 -188 129q-179 -131 -334 -131q-127 0 -202 61.5t-75 166.5q0 48 17 90t46.5 74t75 59.5t94 48t113.5 38.5t125.5 30.5t135.5 25.5v109q0 106 -26.5 147t-100.5 41q-75 0 -119 -34t-66 -109q-34 -111 -131 -111q-44 0 -71 28.5t-27 82.5q0 103 121 173.5
t313 70.5q75 0 136 -15t111.5 -48t78.5 -93t28 -143v-478q0 -94 62 -94q26 0 67 21v-90q-74 -50 -184 -50zM451 121q98 0 217 82v264q-84 -14 -143 -30.5t-107.5 -42t-72 -62.5t-23.5 -86q0 -63 35.5 -94t93.5 -31zM238 1049l206 311q27 41 70 41h90q43 0 70 -41l207 -311
h-103l-219 200l-219 -200h-102z" />
    <glyph glyph-name="atilde" unicode="&#xe3;" horiz-adv-x="1091" 
d="M860 -25q-161 0 -188 129q-179 -131 -334 -131q-127 0 -202 61.5t-75 166.5q0 48 17 90t46.5 74t75 59.5t94 48t113.5 38.5t125.5 30.5t135.5 25.5v109q0 106 -26.5 147t-100.5 41q-75 0 -119 -34t-66 -109q-34 -111 -131 -111q-44 0 -71 28.5t-27 82.5q0 103 121 173.5
t313 70.5q75 0 136 -15t111.5 -48t78.5 -93t28 -143v-478q0 -94 62 -94q26 0 67 21v-90q-74 -50 -184 -50zM451 121q98 0 217 82v264q-84 -14 -143 -30.5t-107.5 -42t-72 -62.5t-23.5 -86q0 -63 35.5 -94t93.5 -31zM776 1370h78q-7 -117 -57.5 -172t-122.5 -55
q-44 0 -90.5 25.5t-88 51t-73.5 25.5q-28 0 -50.5 -20.5t-29.5 -63.5h-80q7 117 57.5 172.5t120.5 55.5q36 0 74 -16t65 -35.5t59 -35.5t58 -16q28 0 50.5 20.5t29.5 63.5z" />
    <glyph glyph-name="adieresis" unicode="&#xe4;" horiz-adv-x="1091" 
d="M860 -25q-161 0 -188 129q-179 -131 -334 -131q-127 0 -202 61.5t-75 166.5q0 48 17 90t46.5 74t75 59.5t94 48t113.5 38.5t125.5 30.5t135.5 25.5v109q0 106 -26.5 147t-100.5 41q-75 0 -119 -34t-66 -109q-34 -111 -131 -111q-44 0 -71 28.5t-27 82.5q0 103 121 173.5
t313 70.5q75 0 136 -15t111.5 -48t78.5 -93t28 -143v-478q0 -94 62 -94q26 0 67 21v-90q-74 -50 -184 -50zM451 121q98 0 217 82v264q-84 -14 -143 -30.5t-107.5 -42t-72 -62.5t-23.5 -86q0 -63 35.5 -94t93.5 -31zM238 1274q0 50 36 87.5t93 37.5q59 0 95 -37.5t36 -87.5
t-36 -86.5t-95 -36.5q-58 0 -93.5 36.5t-35.5 86.5zM621 1274q0 50 35 87.5t94 37.5t95 -37.5t36 -87.5t-36 -86.5t-95 -36.5t-94 36.5t-35 86.5z" />
    <glyph glyph-name="aring" unicode="&#xe5;" horiz-adv-x="1091" 
d="M860 -25q-161 0 -188 129q-179 -131 -334 -131q-127 0 -202 61.5t-75 166.5q0 48 17 90t46.5 74t75 59.5t94 48t113.5 38.5t125.5 30.5t135.5 25.5v109q0 106 -26.5 147t-100.5 41q-75 0 -119 -34t-66 -109q-34 -111 -131 -111q-44 0 -71 28.5t-27 82.5q0 103 121 173.5
t313 70.5q75 0 136 -15t111.5 -48t78.5 -93t28 -143v-478q0 -94 62 -94q26 0 67 21v-90q-74 -50 -184 -50zM451 121q98 0 217 82v264q-84 -14 -143 -30.5t-107.5 -42t-72 -62.5t-23.5 -86q0 -63 35.5 -94t93.5 -31zM338 1260q0 85 59.5 144.5t145.5 59.5q85 0 145 -59.5
t60 -144.5q0 -83 -60 -143t-145 -60q-86 0 -145.5 59.5t-59.5 143.5zM434 1260q0 -46 31.5 -78.5t77.5 -32.5t78 32.5t32 78.5t-32 78t-78 32t-77.5 -32t-31.5 -78z" />
    <glyph glyph-name="ae" unicode="&#xe6;" horiz-adv-x="1667" 
d="M563 965q203 0 271 -144q115 144 315 144q202 0 316 -111.5t114 -310.5h-651q-2 -25 -2 -76q0 -188 67.5 -286.5t218.5 -98.5q94 0 174.5 60.5t131.5 170.5l94 -51q-135 -293 -426 -293q-284 0 -422 181q-88 -73 -198.5 -125t-227.5 -52q-127 0 -202 61.5t-75 166.5
q0 48 17 90t46.5 74t75 59.5t94 48t113.5 38.5t125.5 30.5t135.5 25.5v109q0 106 -26.5 147t-100.5 41q-75 0 -119 -34t-66 -109q-34 -111 -131 -111q-44 0 -71 28.5t-27 82.5q0 103 121.5 173.5t314.5 70.5zM719 223q-51 105 -51 244q-84 -14 -143 -30.5t-107.5 -42
t-72 -62.5t-23.5 -86q0 -63 35.5 -94t93.5 -31q127 0 268 102zM1153 862q-98 0 -148.5 -52.5t-68.5 -158.5h403q0 99 -51 155t-135 56z" />
    <glyph glyph-name="ccedilla" unicode="&#xe7;" horiz-adv-x="1007" 
d="M633 -121q71 0 115.5 -35t44.5 -96q0 -79 -78 -140t-203 -61q-99 0 -163 38.5t-64 92.5q0 27 18.5 47.5t46.5 20.5t45 -12.5t25.5 -31t18.5 -36.5t31.5 -30.5t55.5 -12.5q53 0 84 26.5t31 69.5q0 29 -21 47.5t-55 18.5q-39 0 -73 -27l-56 27l80 186q-210 15 -332.5 152.5
t-122.5 343.5q0 216 134.5 357t345.5 141q166 0 274.5 -71.5t108.5 -170.5q0 -54 -34 -85.5t-83 -31.5q-46 0 -78.5 29t-42.5 86q-13 69 -46.5 105t-100.5 36q-117 0 -167 -101.5t-50 -293.5q0 -184 70 -284.5t208 -100.5q97 0 165.5 58.5t117.5 174.5l94 -53
q-55 -127 -140.5 -201t-211.5 -88l-45 -102q19 8 53 8z" />
    <glyph glyph-name="egrave" unicode="&#xe8;" horiz-adv-x="1064" 
d="M977 543h-651q-4 -50 -4 -76q0 -188 68 -286.5t218 -98.5q95 0 175.5 60.5t129.5 170.5l95 -51q-135 -293 -424 -293q-244 0 -383.5 139t-139.5 359q0 218 133.5 358t352.5 140q200 0 315 -111.5t115 -310.5zM551 862q-98 0 -148.5 -52.5t-68.5 -158.5h401
q0 99 -50.5 155t-133.5 56zM434 1346l178 -310h-100l-274 242q-29 25 -40.5 39.5t-11.5 30.5q0 34 37 34h148q43 0 63 -36z" />
    <glyph glyph-name="eacute" unicode="&#xe9;" horiz-adv-x="1064" 
d="M471 1036l180 310q17 36 64 36h145q37 0 37 -34q0 -28 -51 -70l-273 -242h-102zM977 543h-651q-4 -50 -4 -76q0 -188 68 -286.5t218 -98.5q95 0 175.5 60.5t129.5 170.5l95 -51q-135 -293 -424 -293q-244 0 -383.5 139t-139.5 359q0 218 133.5 358t352.5 140
q200 0 315 -111.5t115 -310.5zM551 862q-98 0 -148.5 -52.5t-68.5 -158.5h401q0 99 -50.5 155t-133.5 56z" />
    <glyph glyph-name="ecircumflex" unicode="&#xea;" horiz-adv-x="1064" 
d="M233 1034l207 312q27 40 70 40h90q43 0 70 -40l207 -312h-103l-219 201l-219 -201h-103zM977 543h-651q-4 -50 -4 -76q0 -188 68 -286.5t218 -98.5q95 0 175.5 60.5t129.5 170.5l95 -51q-135 -293 -424 -293q-244 0 -383.5 139t-139.5 359q0 218 133.5 358t352.5 140
q200 0 315 -111.5t115 -310.5zM551 862q-98 0 -148.5 -52.5t-68.5 -158.5h401q0 99 -50.5 155t-133.5 56z" />
    <glyph glyph-name="edieresis" unicode="&#xeb;" horiz-adv-x="1064" 
d="M233 1260q0 50 35.5 87t93.5 37q59 0 95.5 -37t36.5 -87t-36.5 -86.5t-95.5 -36.5q-58 0 -93.5 36.5t-35.5 86.5zM616 1260q0 50 35 87t94 37t95.5 -37t36.5 -87t-36.5 -86.5t-95.5 -36.5t-94 36.5t-35 86.5zM977 543h-651q-4 -50 -4 -76q0 -188 68 -286.5t218 -98.5
q95 0 175.5 60.5t129.5 170.5l95 -51q-135 -293 -424 -293q-244 0 -383.5 139t-139.5 359q0 218 133.5 358t352.5 140q200 0 315 -111.5t115 -310.5zM551 862q-98 0 -148.5 -52.5t-68.5 -158.5h401q0 99 -50.5 155t-133.5 56z" />
    <glyph glyph-name="igrave" unicode="&#xec;" horiz-adv-x="591" 
d="M547 0h-500v70q76 7 100.5 26.5t24.5 69.5v508q0 35 -13 49t-44 14h-68v62l285 166h88v-799q0 -50 25.5 -69.5t101.5 -26.5v-70zM197 1346l178 -310h-101l-274 242q-28 24 -39.5 39t-11.5 31q0 34 37 34h147q44 0 64 -36z" />
    <glyph glyph-name="iacute" unicode="&#xed;" horiz-adv-x="591" 
d="M229 1036l181 310q17 36 63 36h145q37 0 37 -34q0 -28 -51 -70l-272 -242h-103zM547 0h-500v70q76 7 100.5 26.5t24.5 69.5v508q0 35 -13 49t-44 14h-68v62l285 166h88v-799q0 -50 25.5 -69.5t101.5 -26.5v-70z" />
    <glyph glyph-name="icircumflex" unicode="&#xee;" horiz-adv-x="591" 
d="M-25 1034l207 312q27 40 70 40h90q43 0 70 -40l206 -312h-102l-219 201l-219 -201h-103zM547 0h-500v70q76 7 100.5 26.5t24.5 69.5v508q0 35 -13 49t-44 14h-68v62l285 166h88v-799q0 -50 25.5 -69.5t101.5 -26.5v-70z" />
    <glyph glyph-name="idieresis" unicode="&#xef;" horiz-adv-x="591" 
d="M-25 1260q0 50 35.5 87t93.5 37q59 0 95.5 -37t36.5 -87t-36.5 -86.5t-95.5 -36.5q-58 0 -93.5 36.5t-35.5 86.5zM358 1260q0 50 35 87t94 37t95 -37t36 -87t-36 -86.5t-95 -36.5t-94 36.5t-35 86.5zM547 0h-500v70q76 7 100.5 26.5t24.5 69.5v508q0 35 -13 49t-44 14
h-68v62l285 166h88v-799q0 -50 25.5 -69.5t101.5 -26.5v-70z" />
    <glyph glyph-name="eth" unicode="&#xf0;" horiz-adv-x="1138" 
d="M422 1092v108l235 88q-52 107 -112 176h112q67 -53 134 -129l262 99v-107l-195 -76q217 -304 217 -667q0 -284 -135.5 -449.5t-364.5 -165.5q-231 0 -372.5 140.5t-141.5 357.5q0 216 136 357t346 141q136 0 243 -80q-29 166 -94 309zM813 522q0 116 -10 236
q-97 104 -232 104q-132 0 -189.5 -102.5t-57.5 -296.5q0 -187 58.5 -289t192.5 -102q67 0 114 31t73.5 91.5t38.5 140t12 187.5z" />
    <glyph glyph-name="ntilde" unicode="&#xf1;" horiz-adv-x="1212" 
d="M1165 0h-499v70q76 7 101.5 26.5t25.5 69.5v506q0 78 -40 115.5t-108 37.5q-111 0 -225 -73v-586q0 -50 25.5 -69.5t101.5 -26.5v-70h-500v70q76 7 100.5 26.5t24.5 69.5v508q0 35 -13 49t-44 14h-68v62l285 166h88v-101q67 42 151 71.5t162 29.5q45 0 84.5 -7
t81.5 -26.5t72 -51.5t49.5 -86.5t19.5 -125.5v-502q0 -50 24.5 -69.5t100.5 -26.5v-70zM827 1356h78q-7 -118 -57.5 -173t-122.5 -55q-35 0 -72 16t-63.5 35.5t-58.5 35.5t-58 16q-28 0 -50.5 -20.5t-29.5 -63.5h-80q7 117 57.5 172t121.5 55q45 0 92.5 -25.5t89.5 -51
t74 -25.5q28 0 50 20.5t29 63.5z" />
    <glyph glyph-name="ograve" unicode="&#xf2;" horiz-adv-x="1136" 
d="M61 467q0 218 140 358t368 140t367 -140t139 -358q0 -217 -139.5 -357.5t-366.5 -140.5t-367.5 140.5t-140.5 357.5zM322 467q0 -395 247 -395q131 0 188.5 102.5t57.5 292.5t-57.5 292.5t-188.5 102.5q-247 0 -247 -395zM457 1346l178 -310h-100l-275 242
q-28 24 -39.5 39t-11.5 31q0 34 37 34h147q44 0 64 -36z" />
    <glyph glyph-name="oacute" unicode="&#xf3;" horiz-adv-x="1136" 
d="M494 1036l180 310q17 36 63 36h146q37 0 37 -34q0 -27 -52 -70l-272 -242h-102zM61 467q0 218 140 358t368 140t367 -140t139 -358q0 -217 -139.5 -357.5t-366.5 -140.5t-367.5 140.5t-140.5 357.5zM322 467q0 -395 247 -395q131 0 188.5 102.5t57.5 292.5t-57.5 292.5
t-188.5 102.5q-247 0 -247 -395z" />
    <glyph glyph-name="ocircumflex" unicode="&#xf4;" horiz-adv-x="1136" 
d="M256 1034l207 312q27 40 69 40h91q42 0 69 -40l207 -312h-102l-219 201l-220 -201h-102zM61 467q0 218 140 358t368 140t367 -140t139 -358q0 -217 -139.5 -357.5t-366.5 -140.5t-367.5 140.5t-140.5 357.5zM322 467q0 -395 247 -395q131 0 188.5 102.5t57.5 292.5
t-57.5 292.5t-188.5 102.5q-247 0 -247 -395z" />
    <glyph glyph-name="otilde" unicode="&#xf5;" horiz-adv-x="1136" 
d="M61 467q0 218 140 358t368 140t367 -140t139 -358q0 -217 -139.5 -357.5t-366.5 -140.5t-367.5 140.5t-140.5 357.5zM322 467q0 -395 247 -395q131 0 188.5 102.5t57.5 292.5t-57.5 292.5t-188.5 102.5q-247 0 -247 -395zM797 1356h77q-7 -118 -57.5 -173t-122.5 -55
q-35 0 -72 16t-63.5 35.5t-58.5 35.5t-58 16q-28 0 -50.5 -20.5t-29.5 -63.5h-79q7 117 57.5 172t120.5 55q45 0 92.5 -25.5t89.5 -51t74 -25.5q28 0 50.5 20.5t29.5 63.5z" />
    <glyph glyph-name="odieresis" unicode="&#xf6;" horiz-adv-x="1136" 
d="M256 1260q0 50 35.5 87t93.5 37q59 0 95 -37t36 -87t-36 -86.5t-95 -36.5q-58 0 -93.5 36.5t-35.5 86.5zM639 1260q0 50 35 87t94 37t95 -37t36 -87t-36 -86.5t-95 -36.5t-94 36.5t-35 86.5zM61 467q0 218 140 358t368 140t367 -140t139 -358q0 -217 -139.5 -357.5
t-366.5 -140.5t-367.5 140.5t-140.5 357.5zM322 467q0 -395 247 -395q131 0 188.5 102.5t57.5 292.5t-57.5 292.5t-188.5 102.5q-247 0 -247 -395z" />
    <glyph glyph-name="divide" unicode="&#xf7;" horiz-adv-x="1144" 
d="M18 662v116h1108v-116h-1108zM408 1083q0 65 44.5 111.5t118.5 46.5q72 0 118 -47t46 -111q0 -67 -45.5 -114t-118.5 -47q-74 0 -118.5 47t-44.5 114zM408 356q0 65 44.5 111.5t118.5 46.5q72 0 118 -47t46 -111q0 -67 -45.5 -114t-118.5 -47q-74 0 -118.5 47t-44.5 114z
" />
    <glyph glyph-name="oslash" unicode="&#xf8;" horiz-adv-x="1136" 
d="M61 467q0 218 140 358t368 140q173 0 301 -88l52 57h137l-111 -123q127 -140 127 -344q0 -217 -139.5 -357.5t-366.5 -140.5q-175 0 -303 86l-51 -55h-135l110 121q-129 138 -129 346zM322 467q0 -98 16 -180l422 467q-60 108 -191 108q-247 0 -247 -395zM815 467
q0 96 -16 178l-422 -467q61 -106 192 -106t188.5 102.5t57.5 292.5z" />
    <glyph glyph-name="ugrave" unicode="&#xf9;" horiz-adv-x="1196" 
d="M651 737v62l283 166h90v-799q0 -50 25.5 -69.5t101.5 -26.5v-70q-181 0 -375 -31v101q-66 -42 -150.5 -71.5t-160.5 -29.5q-45 0 -85 7t-82 27t-72 52t-49 87t-19 126v406q0 35 -13.5 49t-44.5 14h-69v62l284 166h91v-701q0 -155 145 -155q113 0 225 75v490q0 35 -13 49
t-44 14h-68zM494 1346l178 -310h-101l-274 242q-28 24 -39.5 39t-11.5 31q0 34 37 34h147q44 0 64 -36z" />
    <glyph glyph-name="uacute" unicode="&#xfa;" horiz-adv-x="1196" 
d="M528 1036l181 310q17 36 63 36h146q36 0 36 -34q0 -28 -51 -70l-272 -242h-103zM651 737v62l283 166h90v-799q0 -50 25.5 -69.5t101.5 -26.5v-70q-181 0 -375 -31v101q-66 -42 -150.5 -71.5t-160.5 -29.5q-45 0 -85 7t-82 27t-72 52t-49 87t-19 126v406q0 35 -13.5 49
t-44.5 14h-69v62l284 166h91v-701q0 -155 145 -155q113 0 225 75v490q0 35 -13 49t-44 14h-68z" />
    <glyph glyph-name="ucircumflex" unicode="&#xfb;" horiz-adv-x="1196" 
d="M268 1034l207 312q27 40 70 40h90q43 0 70 -40l206 -312h-102l-219 201l-219 -201h-103zM651 737v62l283 166h90v-799q0 -50 25.5 -69.5t101.5 -26.5v-70q-181 0 -375 -31v101q-66 -42 -150.5 -71.5t-160.5 -29.5q-45 0 -85 7t-82 27t-72 52t-49 87t-19 126v406
q0 35 -13.5 49t-44.5 14h-69v62l284 166h91v-701q0 -155 145 -155q113 0 225 75v490q0 35 -13 49t-44 14h-68z" />
    <glyph glyph-name="udieresis" unicode="&#xfc;" horiz-adv-x="1196" 
d="M268 1260q0 50 35.5 87t93.5 37q59 0 95 -37t36 -87t-36 -86.5t-95 -36.5q-58 0 -93.5 36.5t-35.5 86.5zM651 1260q0 50 35 87t94 37t95 -37t36 -87t-36 -86.5t-95 -36.5t-94 36.5t-35 86.5zM651 737v62l283 166h90v-799q0 -50 25.5 -69.5t101.5 -26.5v-70
q-181 0 -375 -31v101q-66 -42 -150.5 -71.5t-160.5 -29.5q-45 0 -85 7t-82 27t-72 52t-49 87t-19 126v406q0 35 -13.5 49t-44.5 14h-69v62l284 166h91v-701q0 -155 145 -155q113 0 225 75v490q0 35 -13 49t-44 14h-68z" />
    <glyph glyph-name="yacute" unicode="&#xfd;" horiz-adv-x="985" 
d="M850 705l-356 -879q-46 -115 -123.5 -174.5t-180.5 -59.5q-87 0 -147.5 42.5t-60.5 109.5q0 50 33.5 83.5t84.5 33.5q32 0 58 -15.5t40.5 -34t35.5 -34t45 -15.5q66 0 112 115l35 86l-293 742q-19 49 -28.5 70t-27 45t-39 33t-54.5 13v68h510v-68q-92 -7 -109.5 -40
t18.5 -121l158 -410l164 410q32 88 9.5 120.5t-105.5 40.5v68h372v-68q-56 -7 -87 -41.5t-64 -119.5zM479 1036l180 310q17 36 64 36h145q37 0 37 -34q0 -28 -51 -70l-272 -242h-103z" />
    <glyph glyph-name="thorn" unicode="&#xfe;" horiz-adv-x="1171" 
d="M537 -377h-500v68q76 7 100.5 27t24.5 71v1385q0 35 -13.5 49t-44.5 14h-73v61l291 166h88v-600q106 101 270 101q195 0 312.5 -138t117.5 -360q0 -223 -122.5 -360.5t-336.5 -137.5q-148 0 -241 80v-260q0 -51 25.5 -71t101.5 -27v-68zM606 848q-126 0 -196 -98v-566
q70 -98 196 -98q128 0 186 97t58 284t-58 284t-186 97z" />
    <glyph glyph-name="ydieresis" unicode="&#xff;" horiz-adv-x="985" 
d="M850 705l-356 -879q-46 -115 -123.5 -174.5t-180.5 -59.5q-87 0 -147.5 42.5t-60.5 109.5q0 50 33.5 83.5t84.5 33.5q32 0 58 -15.5t40.5 -34t35.5 -34t45 -15.5q66 0 112 115l35 86l-293 742q-19 49 -28.5 70t-27 45t-39 33t-54.5 13v68h510v-68q-92 -7 -109.5 -40
t18.5 -121l158 -410l164 410q32 88 9.5 120.5t-105.5 40.5v68h372v-68q-56 -7 -87 -41.5t-64 -119.5zM172 1260q0 50 35.5 87t93.5 37q59 0 95 -37t36 -87t-36 -86.5t-95 -36.5q-58 0 -93.5 36.5t-35.5 86.5zM555 1260q0 50 35 87t94 37t95 -37t36 -87t-36 -86.5t-95 -36.5
t-94 36.5t-35 86.5z" />
    <glyph glyph-name="Amacron" unicode="&#x100;" 
d="M621 1434h184l469 -1223q26 -72 61.5 -102.5t100.5 -38.5v-70h-592v70q104 8 132.5 33t2.5 92l-88 223h-535l-84 -223q-24 -62 12.5 -89.5t143.5 -35.5v-70h-448v70q69 8 107.5 38t64.5 97zM623 1114l-222 -579h445zM432 1653v127h551v-127h-551z" />
    <glyph glyph-name="amacron" unicode="&#x101;" horiz-adv-x="1091" 
d="M860 -25q-161 0 -188 129q-179 -131 -334 -131q-127 0 -202 61.5t-75 166.5q0 48 17 90t46.5 74t75 59.5t94 48t113.5 38.5t125.5 30.5t135.5 25.5v109q0 106 -26.5 147t-100.5 41q-75 0 -119 -34t-66 -109q-34 -111 -131 -111q-44 0 -71 28.5t-27 82.5q0 103 121 173.5
t313 70.5q75 0 136 -15t111.5 -48t78.5 -93t28 -143v-478q0 -94 62 -94q26 0 67 21v-90q-74 -50 -184 -50zM451 121q98 0 217 82v264q-84 -14 -143 -30.5t-107.5 -42t-72 -62.5t-23.5 -86q0 -63 35.5 -94t93.5 -31zM285 1188v127h551v-127h-551z" />
    <glyph glyph-name="Abreve" unicode="&#x102;" 
d="M621 1434h184l469 -1223q26 -72 61.5 -102.5t100.5 -38.5v-70h-592v70q104 8 132.5 33t2.5 92l-88 223h-535l-84 -223q-24 -62 12.5 -89.5t143.5 -35.5v-70h-448v70q69 8 107.5 38t64.5 97zM623 1114l-222 -579h445zM915 1833h89q-16 -98 -93.5 -162.5t-203.5 -64.5
q-125 0 -202 64.5t-93 162.5h90q14 -44 71.5 -68t133.5 -24q77 0 135.5 24t72.5 68z" />
    <glyph glyph-name="abreve" unicode="&#x103;" horiz-adv-x="1091" 
d="M860 -25q-161 0 -188 129q-179 -131 -334 -131q-127 0 -202 61.5t-75 166.5q0 48 17 90t46.5 74t75 59.5t94 48t113.5 38.5t125.5 30.5t135.5 25.5v109q0 106 -26.5 147t-100.5 41q-75 0 -119 -34t-66 -109q-34 -111 -131 -111q-44 0 -71 28.5t-27 82.5q0 103 121 173.5
t313 70.5q75 0 136 -15t111.5 -48t78.5 -93t28 -143v-478q0 -94 62 -94q26 0 67 21v-90q-74 -50 -184 -50zM451 121q98 0 217 82v264q-84 -14 -143 -30.5t-107.5 -42t-72 -62.5t-23.5 -86q0 -63 35.5 -94t93.5 -31zM766 1368h88q-16 -98 -93.5 -162.5t-203.5 -64.5
q-125 0 -202 64.5t-93 162.5h90q14 -44 71.5 -68t133.5 -24q77 0 136 24t73 68z" />
    <glyph glyph-name="Aogonek" unicode="&#x104;" 
d="M1128 0h-284v70q104 8 132.5 33t2.5 92l-88 223h-535l-84 -223q-24 -62 12.5 -89.5t143.5 -35.5v-70h-448v70q69 8 107.5 38t64.5 97l469 1229h184l469 -1223q26 -72 61.5 -102.5t100.5 -38.5v-70h-187q-60 -36 -93.5 -86.5t-33.5 -108.5q0 -48 33 -80t78 -32
q81 0 127 82l74 -39q-43 -78 -102.5 -116t-147.5 -38q-102 0 -165 51.5t-63 135.5q0 74 47 133t125 98zM623 1114l-222 -579h445z" />
    <glyph glyph-name="aogonek" unicode="&#x105;" horiz-adv-x="1091" 
d="M1044 25q-24 -17 -45 -25q-60 -36 -93.5 -86.5t-33.5 -108.5q0 -48 33 -80t78 -32q81 0 127 82l74 -39q-43 -78 -102.5 -116t-147.5 -38q-102 0 -164.5 51.5t-62.5 135.5q0 125 129 208q-139 7 -164 127q-179 -131 -334 -131q-127 0 -202 61.5t-75 166.5q0 48 17 90
t46.5 74t75 59.5t94 48t113.5 38.5t125.5 30.5t135.5 25.5v109q0 106 -26.5 147t-100.5 41q-75 0 -119 -34t-66 -109q-34 -111 -131 -111q-44 0 -71 28.5t-27 82.5q0 103 121 173.5t313 70.5q75 0 136 -15t111.5 -48t78.5 -93t28 -143v-478q0 -94 62 -94q26 0 67 21v-90z
M451 121q98 0 217 82v264q-84 -14 -143 -30.5t-107.5 -42t-72 -62.5t-23.5 -86q0 -63 35.5 -94t93.5 -31z" />
    <glyph glyph-name="Cacute" unicode="&#x106;" horiz-adv-x="1427" 
d="M711 1516l180 309q18 37 63 37h146q37 0 37 -35q0 -27 -52 -70l-272 -241h-102zM1231 1434l112 -406l-65 -20q-85 162 -207 254t-270 92q-110 0 -191.5 -46.5t-130 -133.5t-71.5 -200.5t-23 -256.5q0 -142 23 -255.5t71.5 -200.5t130 -134t191.5 -47q165 0 291.5 96.5
t171.5 247.5l112 -39q-150 -416 -600 -416q-205 0 -364 94.5t-246.5 264.5t-87.5 389q0 164 51 303t142.5 236.5t221.5 152.5t283 55q208 0 346 -96l29 66h80z" />
    <glyph glyph-name="cacute" unicode="&#x107;" horiz-adv-x="1007" 
d="M487 1036l181 310q17 36 63 36h146q36 0 36 -34q0 -28 -51 -70l-272 -242h-103zM924 723q0 -54 -34 -85.5t-83 -31.5q-46 0 -78.5 29t-42.5 86q-13 69 -46.5 105t-100.5 36q-117 0 -167 -101.5t-50 -293.5q0 -184 70 -284.5t208 -100.5q97 0 165.5 58.5t117.5 174.5
l94 -53q-63 -141 -162 -217t-252 -76q-229 0 -365.5 140t-136.5 358q0 216 134.5 357t345.5 141q166 0 274.5 -71.5t108.5 -170.5z" />
    <glyph glyph-name="Ccircumflex" unicode="&#x108;" horiz-adv-x="1427" 
d="M457 1513l207 312q27 41 69 41h90q43 0 70 -41l207 -312h-103l-219 201l-219 -201h-102zM1231 1434l112 -406l-65 -20q-85 162 -207 254t-270 92q-110 0 -191.5 -46.5t-130 -133.5t-71.5 -200.5t-23 -256.5q0 -142 23 -255.5t71.5 -200.5t130 -134t191.5 -47
q165 0 291.5 96.5t171.5 247.5l112 -39q-150 -416 -600 -416q-205 0 -364 94.5t-246.5 264.5t-87.5 389q0 164 51 303t142.5 236.5t221.5 152.5t283 55q208 0 346 -96l29 66h80z" />
    <glyph glyph-name="ccircumflex" unicode="&#x109;" horiz-adv-x="1007" 
d="M238 1034l206 312q27 40 70 40h90q43 0 70 -40l207 -312h-103l-219 201l-219 -201h-102zM924 723q0 -54 -34 -85.5t-83 -31.5q-46 0 -78.5 29t-42.5 86q-13 69 -46.5 105t-100.5 36q-117 0 -167 -101.5t-50 -293.5q0 -184 70 -284.5t208 -100.5q97 0 165.5 58.5
t117.5 174.5l94 -53q-63 -141 -162 -217t-252 -76q-229 0 -365.5 140t-136.5 358q0 216 134.5 357t345.5 141q166 0 274.5 -71.5t108.5 -170.5z" />
    <glyph glyph-name="Cdotaccent" unicode="&#x10a;" horiz-adv-x="1427" 
d="M1231 1434l112 -406l-65 -20q-85 162 -207 254t-270 92q-110 0 -191.5 -46.5t-130 -133.5t-71.5 -200.5t-23 -256.5q0 -142 23 -255.5t71.5 -200.5t130 -134t191.5 -47q165 0 291.5 96.5t171.5 247.5l112 -39q-150 -416 -600 -416q-205 0 -364 94.5t-246.5 264.5
t-87.5 389q0 164 51 303t142.5 236.5t221.5 152.5t283 55q208 0 346 -96l29 66h80zM651 1739q0 50 35 87.5t94 37.5q57 0 93 -37.5t36 -87.5t-35.5 -86.5t-93.5 -36.5q-59 0 -94 36.5t-35 86.5z" />
    <glyph glyph-name="cdotaccent" unicode="&#x10b;" horiz-adv-x="1007" 
d="M924 723q0 -54 -34 -85.5t-83 -31.5q-46 0 -78.5 29t-42.5 86q-13 69 -46.5 105t-100.5 36q-117 0 -167 -101.5t-50 -293.5q0 -184 70 -284.5t208 -100.5q97 0 165.5 58.5t117.5 174.5l94 -53q-63 -141 -162 -217t-252 -76q-229 0 -365.5 140t-136.5 358q0 216 134.5 357
t345.5 141q166 0 274.5 -71.5t108.5 -170.5zM430 1260q0 50 35 87t94 37q58 0 93.5 -37t35.5 -87t-35.5 -86.5t-93.5 -36.5q-59 0 -94 36.5t-35 86.5z" />
    <glyph glyph-name="Ccaron" unicode="&#x10c;" horiz-adv-x="1427" 
d="M664 1556l-207 310h102l219 -201l219 201h103l-207 -310q-27 -43 -70 -43h-90q-42 0 -69 43zM1231 1434l112 -406l-65 -20q-85 162 -207 254t-270 92q-110 0 -191.5 -46.5t-130 -133.5t-71.5 -200.5t-23 -256.5q0 -142 23 -255.5t71.5 -200.5t130 -134t191.5 -47
q165 0 291.5 96.5t171.5 247.5l112 -39q-150 -416 -600 -416q-205 0 -364 94.5t-246.5 264.5t-87.5 389q0 164 51 303t142.5 236.5t221.5 152.5t283 55q208 0 346 -96l29 66h80z" />
    <glyph glyph-name="ccaron" unicode="&#x10d;" horiz-adv-x="1007" 
d="M444 1077l-206 309h102l219 -200l219 200h103l-207 -309q-27 -43 -70 -43h-90q-43 0 -70 43zM924 723q0 -54 -34 -85.5t-83 -31.5q-46 0 -78.5 29t-42.5 86q-13 69 -46.5 105t-100.5 36q-117 0 -167 -101.5t-50 -293.5q0 -184 70 -284.5t208 -100.5q97 0 165.5 58.5
t117.5 174.5l94 -53q-63 -141 -162 -217t-252 -76q-229 0 -365.5 140t-136.5 358q0 216 134.5 357t345.5 141q166 0 274.5 -71.5t108.5 -170.5z" />
    <glyph glyph-name="Dcaron" unicode="&#x10e;" horiz-adv-x="1572" 
d="M659 1556l-206 310h102l219 -201l219 201h103l-207 -310q-27 -43 -70 -43h-90q-43 0 -70 43zM1190 717q0 137 -22.5 241t-62.5 172t-100.5 111t-130 60.5t-157.5 17.5h-142q-28 0 -44.5 -17t-16.5 -45v-1079q0 -29 16.5 -45t44.5 -16h140q87 0 157 17.5t130.5 60.5
t101 110.5t63.5 171.5t23 240zM1497 717q0 -346 -205 -531.5t-577 -185.5h-664v70q62 4 91.5 9.5t52.5 22.5t29.5 45.5t6.5 81.5v975q0 53 -6.5 82t-29.5 46.5t-53 23.5t-91 10v68h666q373 0 576.5 -184.5t203.5 -532.5z" />
    <glyph glyph-name="dcaron" unicode="&#x10f;" horiz-adv-x="1341" 
d="M1077 1358q0 53 36 91t97 38t97 -41.5t36 -106.5q0 -81 -57 -183.5t-127 -170.5l-43 37q85 112 105 205q-68 0 -106 38t-38 93zM645 1237v61l285 166h90v-1298q0 -50 24.5 -69.5t100.5 -26.5v-70q-182 0 -373 -31v103q-98 -103 -270 -103q-195 0 -312.5 139t-117.5 359
q0 222 117.5 360t312.5 138q169 0 270 -101v310q0 35 -13.5 49t-45.5 14h-68zM575 88q127 0 197 98v564q-70 98 -197 98q-128 0 -185.5 -97t-57.5 -284t57.5 -283t185.5 -96z" />
    <glyph glyph-name="Dcroat" unicode="&#x110;" horiz-adv-x="1572" 
d="M51 690v117h180v397q0 53 -6.5 82t-29.5 46.5t-53 23.5t-91 10v68h666q373 0 576.5 -184.5t203.5 -532.5q0 -346 -205 -531.5t-577 -185.5h-664v70q62 4 91.5 9.5t52.5 22.5t29.5 45.5t6.5 81.5v461h-180zM1190 717q0 137 -22.5 241t-62.5 172t-100.5 111t-130 60.5
t-157.5 17.5h-142q-28 0 -44.5 -17t-16.5 -45v-450h186v-117h-186v-512q0 -29 16.5 -45t44.5 -16h140q87 0 157 17.5t130.5 60.5t101 110.5t63.5 171.5t23 240z" />
    <glyph glyph-name="dcroat" unicode="&#x111;" horiz-adv-x="1181" 
d="M635 1237v61l285 166h90v-340h125v-80h-125v-878q0 -50 24.5 -69.5t100.5 -26.5v-70q-182 0 -373 -31v103q-98 -103 -270 -103q-195 0 -313 139t-118 359q0 221 118 359.5t313 138.5q169 0 270 -101v180h-275v80h275v50q0 35 -13.5 49t-46.5 14h-67zM565 88q127 0 197 98
v564q-70 98 -197 98q-128 0 -185.5 -97t-57.5 -284t57.5 -283t185.5 -96z" />
    <glyph glyph-name="Emacron" unicode="&#x112;" 
d="M575 117h160q201 0 348 82.5t265 230.5l57 -35l-199 -395h-1155v70q62 4 91.5 9.5t52.5 22.5t29.5 45.5t6.5 81.5v975q0 53 -6.5 82t-29.5 46.5t-53 23.5t-91 10v68h1153l127 -353l-57 -28q-101 139 -226 202.5t-315 63.5h-158q-28 0 -44.5 -17t-16.5 -45v-450h287
q105 0 141 44t41 142h76v-489h-76q-5 98 -41 142t-141 44h-287v-512q0 -29 16.5 -45t44.5 -16zM422 1653v127h551v-127h-551z" />
    <glyph glyph-name="emacron" unicode="&#x113;" horiz-adv-x="1064" 
d="M977 543h-651q-4 -50 -4 -76q0 -188 68 -286.5t218 -98.5q95 0 175.5 60.5t129.5 170.5l95 -51q-135 -293 -424 -293q-244 0 -383.5 139t-139.5 359q0 218 133.5 358t352.5 140q200 0 315 -111.5t115 -310.5zM551 862q-98 0 -148.5 -52.5t-68.5 -158.5h401
q0 99 -50.5 155t-133.5 56zM281 1174v126h550v-126h-550z" />
    <glyph glyph-name="Ebreve" unicode="&#x114;" 
d="M575 117h160q201 0 348 82.5t265 230.5l57 -35l-199 -395h-1155v70q62 4 91.5 9.5t52.5 22.5t29.5 45.5t6.5 81.5v975q0 53 -6.5 82t-29.5 46.5t-53 23.5t-91 10v68h1153l127 -353l-57 -28q-101 139 -226 202.5t-315 63.5h-158q-28 0 -44.5 -17t-16.5 -45v-450h287
q105 0 141 44t41 142h76v-489h-76q-5 98 -41 142t-141 44h-287v-512q0 -29 16.5 -45t44.5 -16zM905 1833h88q-16 -98 -93.5 -162.5t-203.5 -64.5q-125 0 -202 64.5t-93 162.5h91q14 -44 71 -68t133 -24q77 0 136 24t73 68z" />
    <glyph glyph-name="ebreve" unicode="&#x115;" horiz-adv-x="1064" 
d="M977 543h-651q-4 -50 -4 -76q0 -188 68 -286.5t218 -98.5q95 0 175.5 60.5t129.5 170.5l95 -51q-135 -293 -424 -293q-244 0 -383.5 139t-139.5 359q0 218 133.5 358t352.5 140q200 0 315 -111.5t115 -310.5zM551 862q-98 0 -148.5 -52.5t-68.5 -158.5h401
q0 99 -50.5 155t-133.5 56zM762 1354h88q-16 -98 -93.5 -163t-203.5 -65q-125 0 -202 65t-93 163h90q14 -44 71.5 -68t133.5 -24q77 0 136 24t73 68z" />
    <glyph glyph-name="Edotaccent" unicode="&#x116;" 
d="M575 117h160q201 0 348 82.5t265 230.5l57 -35l-199 -395h-1155v70q62 4 91.5 9.5t52.5 22.5t29.5 45.5t6.5 81.5v975q0 53 -6.5 82t-29.5 46.5t-53 23.5t-91 10v68h1153l127 -353l-57 -28q-101 139 -226 202.5t-315 63.5h-158q-28 0 -44.5 -17t-16.5 -45v-450h287
q105 0 141 44t41 142h76v-489h-76q-5 98 -41 142t-141 44h-287v-512q0 -29 16.5 -45t44.5 -16zM567 1739q0 50 35 87.5t94 37.5q57 0 93 -37.5t36 -87.5t-35.5 -86.5t-93.5 -36.5q-59 0 -94 36.5t-35 86.5z" />
    <glyph glyph-name="edotaccent" unicode="&#x117;" horiz-adv-x="1064" 
d="M977 543h-651q-4 -50 -4 -76q0 -188 68 -286.5t218 -98.5q95 0 175.5 60.5t129.5 170.5l95 -51q-135 -293 -424 -293q-244 0 -383.5 139t-139.5 359q0 218 133.5 358t352.5 140q200 0 315 -111.5t115 -310.5zM551 862q-98 0 -148.5 -52.5t-68.5 -158.5h401
q0 99 -50.5 155t-133.5 56zM426 1260q0 50 35 87t94 37q58 0 93.5 -37t35.5 -87t-35.5 -86.5t-93.5 -36.5q-59 0 -94 36.5t-35 86.5z" />
    <glyph glyph-name="Eogonek" unicode="&#x118;" 
d="M575 117h160q201 0 348 82.5t265 230.5l57 -35l-199 -395h-2q-60 -36 -93.5 -86.5t-33.5 -108.5q0 -48 33 -80t78 -32q81 0 127 82l74 -39q-43 -78 -102.5 -116t-147.5 -38q-102 0 -165 51.5t-63 135.5q0 74 47 133t125 98h-1032v70q62 4 91.5 9.5t52.5 22.5t29.5 45.5
t6.5 81.5v975q0 53 -6.5 82t-29.5 46.5t-53 23.5t-91 10v68h1153l127 -353l-57 -28q-101 139 -226 202.5t-315 63.5h-158q-28 0 -44.5 -17t-16.5 -45v-450h287q105 0 141 44t41 142h76v-489h-76q-5 98 -41 142t-141 44h-287v-512q0 -29 16.5 -45t44.5 -16z" />
    <glyph glyph-name="eogonek" unicode="&#x119;" horiz-adv-x="1064" 
d="M977 543h-651q-4 -50 -4 -76q0 -188 68 -286.5t218 -98.5q95 0 175.5 60.5t129.5 170.5l95 -51q-93 -200 -254 -262q-60 -36 -93.5 -86.5t-33.5 -108.5q0 -48 32.5 -80t77.5 -32q81 0 127 82l74 -39q-43 -78 -102.5 -116t-147.5 -38q-102 0 -164.5 51.5t-62.5 135.5
q0 120 119 200q-122 1 -220.5 38.5t-163.5 104t-100 157.5t-35 198q0 218 133.5 358t352.5 140q200 0 315 -111.5t115 -310.5zM551 862q-98 0 -148.5 -52.5t-68.5 -158.5h401q0 99 -50.5 155t-133.5 56z" />
    <glyph glyph-name="Ecaron" unicode="&#x11a;" 
d="M582 1556l-207 310h102l219 -201l219 201h103l-207 -310q-27 -43 -70 -43h-90q-42 0 -69 43zM575 117h160q201 0 348 82.5t265 230.5l57 -35l-199 -395h-1155v70q62 4 91.5 9.5t52.5 22.5t29.5 45.5t6.5 81.5v975q0 53 -6.5 82t-29.5 46.5t-53 23.5t-91 10v68h1153
l127 -353l-57 -28q-101 139 -226 202.5t-315 63.5h-158q-28 0 -44.5 -17t-16.5 -45v-450h287q105 0 141 44t41 142h76v-489h-76q-5 98 -41 142t-141 44h-287v-512q0 -29 16.5 -45t44.5 -16z" />
    <glyph glyph-name="ecaron" unicode="&#x11b;" horiz-adv-x="1064" 
d="M440 1077l-207 309h103l219 -200l219 200h103l-207 -309q-27 -43 -70 -43h-90q-43 0 -70 43zM977 543h-651q-4 -50 -4 -76q0 -188 68 -286.5t218 -98.5q95 0 175.5 60.5t129.5 170.5l95 -51q-135 -293 -424 -293q-244 0 -383.5 139t-139.5 359q0 218 133.5 358t352.5 140
q200 0 315 -111.5t115 -310.5zM551 862q-98 0 -148.5 -52.5t-68.5 -158.5h401q0 99 -50.5 155t-133.5 56z" />
    <glyph glyph-name="Gcircumflex" unicode="&#x11c;" horiz-adv-x="1544" 
d="M463 1513l207 312q27 41 69 41h90q43 0 70 -41l207 -312h-102l-220 201l-219 -201h-102zM1268 0l-84 115q-69 -66 -173.5 -106t-232.5 -40q-206 0 -365.5 94.5t-247 264.5t-87.5 389q0 164 51 303t142.5 236.5t222 152.5t284.5 55q220 0 355 -96l28 66h80l113 -406
l-66 -20q-86 168 -208 257t-273 89q-90 0 -161.5 -31t-120 -86t-80.5 -135.5t-46 -175.5t-14 -209q0 -142 23 -256t70 -200.5t125.5 -133.5t182.5 -47q99 0 178 37.5t111 79.5v237q0 53 -6 82t-28.5 46.5t-52.5 23.5t-91 10v68h627v-68q-54 -4 -82 -10t-49.5 -23.5t-28 -47
t-6.5 -81.5v-434h-90z" />
    <glyph glyph-name="gcircumflex" unicode="&#x11d;" horiz-adv-x="1083" 
d="M188 1034l207 312q27 40 70 40h90q43 0 70 -40l172 -259l-68 -53l-219 201l-219 -201h-103zM1069 987q0 -39 -26 -67.5t-66 -28.5q-33 0 -66 25.5t-57 25.5q-41 0 -72 -53q140 -108 140 -279q0 -156 -111.5 -255t-302.5 -99q-72 0 -141 16q-67 18 -105.5 0.5t-38.5 -51.5
q0 -41 79.5 -55.5t315.5 -22.5q221 -7 315.5 -69.5t94.5 -188.5q0 -141 -134 -217t-355 -76q-100 0 -181.5 11.5t-149.5 36.5t-106 70.5t-39 107.5q-3 105 109 157q-106 53 -106 179q0 76 42 127t111 65q-123 97 -123 264q0 156 111 255.5t301 99.5q86 0 178 -29
q50 68 118.5 112t137.5 44q55 0 91 -27.5t36 -77.5zM334 610q0 -125 40 -189.5t134 -64.5t135 64.5t41 189.5q0 124 -41 189t-135 65t-134 -65t-40 -189zM561 -90q-148 6 -254 24q-82 -30 -82 -98q0 -66 81 -104.5t231 -38.5q140 0 217 38t77 91q0 52 -52 67.5t-218 20.5z
" />
    <glyph glyph-name="Gbreve" unicode="&#x11e;" horiz-adv-x="1544" 
d="M1268 0l-84 115q-69 -66 -173.5 -106t-232.5 -40q-206 0 -365.5 94.5t-247 264.5t-87.5 389q0 164 51 303t142.5 236.5t222 152.5t284.5 55q220 0 355 -96l28 66h80l113 -406l-66 -20q-86 168 -208 257t-273 89q-90 0 -161.5 -31t-120 -86t-80.5 -135.5t-46 -175.5
t-14 -209q0 -142 23 -256t70 -200.5t125.5 -133.5t182.5 -47q99 0 178 37.5t111 79.5v237q0 53 -6 82t-28.5 46.5t-52.5 23.5t-91 10v68h627v-68q-54 -4 -82 -10t-49.5 -23.5t-28 -47t-6.5 -81.5v-434h-90zM993 1833h88q-16 -98 -93.5 -162.5t-203.5 -64.5q-125 0 -202 64.5
t-93 162.5h91q14 -44 71 -68t133 -24q77 0 136 24t73 68z" />
    <glyph glyph-name="gbreve" unicode="&#x11f;" horiz-adv-x="1083" 
d="M1069 987q0 -39 -26 -67.5t-66 -28.5q-33 0 -66 25.5t-57 25.5q-41 0 -72 -53q140 -108 140 -279q0 -156 -111.5 -255t-302.5 -99q-72 0 -141 16q-67 18 -105.5 0.5t-38.5 -51.5q0 -41 79.5 -55.5t315.5 -22.5q221 -7 315.5 -69.5t94.5 -188.5q0 -141 -134 -217t-355 -76
q-100 0 -181.5 11.5t-149.5 36.5t-106 70.5t-39 107.5q-3 105 109 157q-106 53 -106 179q0 76 42 127t111 65q-123 97 -123 264q0 156 111 255.5t301 99.5q86 0 178 -29q50 68 118.5 112t137.5 44q55 0 91 -27.5t36 -77.5zM334 610q0 -125 40 -189.5t134 -64.5t135 64.5
t41 189.5q0 124 -41 189t-135 65t-134 -65t-40 -189zM561 -90q-148 6 -254 24q-82 -30 -82 -98q0 -66 81 -104.5t231 -38.5q140 0 217 38t77 91q0 52 -52 67.5t-218 20.5zM715 1354h88q-16 -98 -93.5 -163t-203.5 -65q-125 0 -202 65t-93 163h90q14 -44 71.5 -68t133.5 -24
q77 0 136 24t73 68z" />
    <glyph glyph-name="Gdotaccent" unicode="&#x120;" horiz-adv-x="1544" 
d="M1268 0l-84 115q-69 -66 -173.5 -106t-232.5 -40q-206 0 -365.5 94.5t-247 264.5t-87.5 389q0 164 51 303t142.5 236.5t222 152.5t284.5 55q220 0 355 -96l28 66h80l113 -406l-66 -20q-86 168 -208 257t-273 89q-90 0 -161.5 -31t-120 -86t-80.5 -135.5t-46 -175.5
t-14 -209q0 -142 23 -256t70 -200.5t125.5 -133.5t182.5 -47q99 0 178 37.5t111 79.5v237q0 53 -6 82t-28.5 46.5t-52.5 23.5t-91 10v68h627v-68q-54 -4 -82 -10t-49.5 -23.5t-28 -47t-6.5 -81.5v-434h-90zM641 1739q0 50 35 87.5t94 37.5q57 0 93 -37.5t36 -87.5
t-35.5 -86.5t-93.5 -36.5q-59 0 -94 36.5t-35 86.5z" />
    <glyph glyph-name="gdotaccent" unicode="&#x121;" horiz-adv-x="1083" 
d="M1069 987q0 -39 -26 -67.5t-66 -28.5q-33 0 -66 25.5t-57 25.5q-41 0 -72 -53q140 -108 140 -279q0 -156 -111.5 -255t-302.5 -99q-72 0 -141 16q-67 18 -105.5 0.5t-38.5 -51.5q0 -41 79.5 -55.5t315.5 -22.5q221 -7 315.5 -69.5t94.5 -188.5q0 -141 -134 -217t-355 -76
q-100 0 -181.5 11.5t-149.5 36.5t-106 70.5t-39 107.5q-3 105 109 157q-106 53 -106 179q0 76 42 127t111 65q-123 97 -123 264q0 156 111 255.5t301 99.5q86 0 178 -29q50 68 118.5 112t137.5 44q55 0 91 -27.5t36 -77.5zM334 610q0 -125 40 -189.5t134 -64.5t135 64.5
t41 189.5q0 124 -41 189t-135 65t-134 -65t-40 -189zM561 -90q-148 6 -254 24q-82 -30 -82 -98q0 -66 81 -104.5t231 -38.5q140 0 217 38t77 91q0 52 -52 67.5t-218 20.5zM391 1260q0 50 35 87t94 37q58 0 93.5 -37t35.5 -87t-35.5 -86.5t-93.5 -36.5q-59 0 -94 36.5
t-35 86.5z" />
    <glyph glyph-name="Gcommaaccent" unicode="&#x122;" horiz-adv-x="1544" 
d="M649 -233q0 51 35.5 87.5t93.5 36.5t93.5 -40t35.5 -105q0 -66 -41 -138.5t-92 -123.5l-41 33q38 79 51 123q-64 0 -99.5 36t-35.5 91zM1268 0l-84 115q-69 -66 -173.5 -106t-232.5 -40q-206 0 -365.5 94.5t-247 264.5t-87.5 389q0 164 51 303t142.5 236.5t222 152.5
t284.5 55q220 0 355 -96l28 66h80l113 -406l-66 -20q-86 168 -208 257t-273 89q-90 0 -161.5 -31t-120 -86t-80.5 -135.5t-46 -175.5t-14 -209q0 -142 23 -256t70 -200.5t125.5 -133.5t182.5 -47q99 0 178 37.5t111 79.5v237q0 53 -6 82t-28.5 46.5t-52.5 23.5t-91 10v68
h627v-68q-54 -4 -82 -10t-49.5 -23.5t-28 -47t-6.5 -81.5v-434h-90z" />
    <glyph glyph-name="gcommaaccent" unicode="&#x123;" horiz-adv-x="1083" 
d="M641 1227q0 -52 -35.5 -88.5t-93.5 -36.5t-93.5 40t-35.5 105q0 66 41 138.5t92 123.5l41 -32q-38 -79 -51 -123q64 0 99.5 -36t35.5 -91zM1069 987q0 -39 -26 -67.5t-66 -28.5q-33 0 -66 25.5t-57 25.5q-41 0 -72 -53q140 -108 140 -279q0 -156 -111.5 -255t-302.5 -99
q-72 0 -141 16q-67 18 -105.5 0.5t-38.5 -51.5q0 -41 79.5 -55.5t315.5 -22.5q221 -7 315.5 -69.5t94.5 -188.5q0 -141 -134 -217t-355 -76q-100 0 -181.5 11.5t-149.5 36.5t-106 70.5t-39 107.5q-3 105 109 157q-106 53 -106 179q0 76 42 127t111 65q-123 97 -123 264
q0 156 111 255.5t301 99.5q86 0 178 -29q50 68 118.5 112t137.5 44q55 0 91 -27.5t36 -77.5zM334 610q0 -125 40 -189.5t134 -64.5t135 64.5t41 189.5q0 124 -41 189t-135 65t-134 -65t-40 -189zM561 -90q-148 6 -254 24q-82 -30 -82 -98q0 -66 81 -104.5t231 -38.5
q140 0 217 38t77 91q0 52 -52 67.5t-218 20.5z" />
    <glyph glyph-name="Hcircumflex" unicode="&#x124;" horiz-adv-x="1632" 
d="M494 1513l206 312q27 41 70 41h90q43 0 70 -41l207 -312h-103l-219 201l-219 -201h-102zM1585 0h-643v70q62 4 91.5 9.5t52.5 22.5t29.5 45.5t6.5 81.5v461h-612v-461q0 -53 6.5 -81.5t29.5 -45.5t52.5 -22.5t91.5 -9.5v-70h-643v70q62 4 91.5 9.5t52.5 22.5t29.5 45.5
t6.5 81.5v975q0 53 -6.5 82t-29.5 46.5t-53 23.5t-91 10v68h643v-68q-61 -4 -91 -10t-53 -23.5t-29.5 -46.5t-6.5 -82v-397h612v397q0 53 -6.5 82t-29.5 46.5t-53 23.5t-91 10v68h643v-68q-61 -4 -91 -10t-53 -23.5t-29.5 -46.5t-6.5 -82v-975q0 -53 6.5 -81.5t29.5 -45.5
t52.5 -22.5t91.5 -9.5v-70z" />
    <glyph glyph-name="hcircumflex" unicode="&#x125;" horiz-adv-x="1212" 
d="M287 1513l207 312q27 41 69 41h90q43 0 70 -41l207 -312h-103l-219 201l-219 -201h-102zM1165 0h-499v70q76 7 101.5 26.5t25.5 69.5v506q0 78 -40 115.5t-108 37.5q-111 0 -225 -73v-586q0 -50 25.5 -69.5t101.5 -26.5v-70h-500v70q76 7 100.5 26.5t24.5 69.5v1008
q0 35 -13 49t-44 14h-68v61l285 166h88v-600q67 42 151 71.5t162 29.5q45 0 84.5 -7t81.5 -26.5t72 -51.5t49.5 -86.5t19.5 -125.5v-502q0 -50 24.5 -69.5t100.5 -26.5v-70z" />
    <glyph glyph-name="Hbar" unicode="&#x126;" horiz-adv-x="1632" 
d="M47 1010v114h180v80q0 53 -6.5 82t-29.5 46.5t-53 23.5t-91 10v68h643v-68q-61 -4 -91 -10t-53 -23.5t-29.5 -46.5t-6.5 -82v-80h612v80q0 53 -6.5 82t-29.5 46.5t-53 23.5t-91 10v68h643v-68q-61 -4 -91 -10t-53 -23.5t-29.5 -46.5t-6.5 -82v-80h180v-114h-180v-781
q0 -53 6.5 -81.5t29.5 -45.5t52.5 -22.5t91.5 -9.5v-70h-643v70q62 4 91.5 9.5t52.5 22.5t29.5 45.5t6.5 81.5v461h-612v-461q0 -53 6.5 -81.5t29.5 -45.5t52.5 -22.5t91.5 -9.5v-70h-643v70q62 4 91.5 9.5t52.5 22.5t29.5 45.5t6.5 81.5v781h-180zM510 807h612v203h-612
v-203z" />
    <glyph glyph-name="hbar" unicode="&#x127;" horiz-adv-x="1212" 
d="M47 1044v80h125v50q0 35 -13 49t-44 14h-68v61l285 166h88v-340h274v-80h-274v-180q67 42 151 71.5t162 29.5q45 0 84.5 -7t81.5 -26.5t72 -51.5t49.5 -86.5t19.5 -125.5v-502q0 -50 24.5 -69.5t100.5 -26.5v-70h-499v70q76 7 101.5 26.5t25.5 69.5v506q0 78 -40 115.5
t-108 37.5q-111 0 -225 -73v-586q0 -50 25.5 -69.5t101.5 -26.5v-70h-500v70q76 7 100.5 26.5t24.5 69.5v878h-125z" />
    <glyph glyph-name="Itilde" unicode="&#x128;" horiz-adv-x="741" 
d="M694 0h-643v70q62 4 91.5 9.5t52.5 22.5t29.5 45.5t6.5 81.5v975q0 53 -6.5 82t-29.5 46.5t-53 23.5t-91 10v68h643v-68q-61 -4 -91 -10t-53 -23.5t-29.5 -46.5t-6.5 -82v-975q0 -53 6.5 -81.5t29.5 -45.5t52.5 -22.5t91.5 -9.5v-70zM592 1835h78q-7 -117 -58 -172
t-123 -55q-44 0 -90.5 25.5t-87.5 51t-73 25.5q-28 0 -50.5 -20.5t-29.5 -63.5h-80q7 117 57.5 172t120.5 55q45 0 92.5 -25.5t89.5 -51t74 -25.5q28 0 50.5 20.5t29.5 63.5z" />
    <glyph glyph-name="itilde" unicode="&#x129;" horiz-adv-x="591" 
d="M547 0h-500v70q76 7 100.5 26.5t24.5 69.5v508q0 35 -13 49t-44 14h-68v62l285 166h88v-799q0 -50 25.5 -69.5t101.5 -26.5v-70zM516 1356h78q-7 -118 -57.5 -173t-122.5 -55q-35 0 -72 16t-63.5 35.5t-58.5 35.5t-58 16q-28 0 -50.5 -20.5t-29.5 -63.5h-80
q7 117 57.5 172t120.5 55q45 0 92.5 -25.5t89.5 -51t74 -25.5q28 0 50.5 20.5t29.5 63.5z" />
    <glyph glyph-name="Imacron" unicode="&#x12a;" horiz-adv-x="741" 
d="M694 0h-643v70q62 4 91.5 9.5t52.5 22.5t29.5 45.5t6.5 81.5v975q0 53 -6.5 82t-29.5 46.5t-53 23.5t-91 10v68h643v-68q-61 -4 -91 -10t-53 -23.5t-29.5 -46.5t-6.5 -82v-975q0 -53 6.5 -81.5t29.5 -45.5t52.5 -22.5t91.5 -9.5v-70zM98 1653v127h551v-127h-551z" />
    <glyph glyph-name="imacron" unicode="&#x12b;" horiz-adv-x="591" 
d="M547 0h-500v70q76 7 100.5 26.5t24.5 69.5v508q0 35 -13 49t-44 14h-68v62l285 166h88v-799q0 -50 25.5 -69.5t101.5 -26.5v-70zM23 1174v126h550v-126h-550z" />
    <glyph glyph-name="Ibreve" unicode="&#x12c;" horiz-adv-x="741" 
d="M694 0h-643v70q62 4 91.5 9.5t52.5 22.5t29.5 45.5t6.5 81.5v975q0 53 -6.5 82t-29.5 46.5t-53 23.5t-91 10v68h643v-68q-61 -4 -91 -10t-53 -23.5t-29.5 -46.5t-6.5 -82v-975q0 -53 6.5 -81.5t29.5 -45.5t52.5 -22.5t91.5 -9.5v-70zM582 1833h88q-16 -98 -93.5 -162.5
t-203.5 -64.5q-125 0 -202 64.5t-93 162.5h90q14 -44 71.5 -68t133.5 -24q77 0 136 24t73 68z" />
    <glyph glyph-name="ibreve" unicode="&#x12d;" horiz-adv-x="591" 
d="M547 0h-500v70q76 7 100.5 26.5t24.5 69.5v508q0 35 -13 49t-44 14h-68v62l285 166h88v-799q0 -50 25.5 -69.5t101.5 -26.5v-70zM506 1354h88q-16 -98 -93.5 -163t-203.5 -65q-125 0 -202 65t-93 163h90q14 -44 71.5 -68t133.5 -24q77 0 136 24t73 68z" />
    <glyph glyph-name="Iogonek" unicode="&#x12e;" horiz-adv-x="741" 
d="M403 0h-352v70q62 4 91.5 9.5t52.5 22.5t29.5 45.5t6.5 81.5v975q0 53 -6.5 82t-29.5 46.5t-53 23.5t-91 10v68h643v-68q-61 -4 -91 -10t-53 -23.5t-29.5 -46.5t-6.5 -82v-975q0 -53 6.5 -81.5t29.5 -45.5t52.5 -22.5t91.5 -9.5v-70h-170q-60 -36 -93.5 -86.5
t-33.5 -108.5q0 -48 33 -80t78 -32q81 0 127 82l74 -39q-43 -78 -102.5 -116t-147.5 -38q-102 0 -165 51.5t-63 135.5q0 74 47 133t125 98z" />
    <glyph glyph-name="iogonek" unicode="&#x12f;" horiz-adv-x="591" 
d="M260 0h-213v70q76 7 100.5 26.5t24.5 69.5v508q0 35 -13 49t-44 14h-68v62l285 166h88v-799q0 -50 25.5 -69.5t101.5 -26.5v-70h-166q-60 -36 -93.5 -86.5t-33.5 -108.5q0 -48 33 -80t78 -32q81 0 127 82l73 -39q-43 -78 -102.5 -116t-147.5 -38q-102 0 -164.5 51.5
t-62.5 135.5q0 74 47 133t125 98zM152 1278q0 59 41 102t108 43q68 0 110 -43.5t42 -101.5q0 -57 -42 -99t-110 -42q-67 0 -108 42t-41 99z" />
    <glyph glyph-name="Idotaccent" unicode="&#x130;" horiz-adv-x="741" 
d="M694 0h-643v70q62 4 91.5 9.5t52.5 22.5t29.5 45.5t6.5 81.5v975q0 53 -6.5 82t-29.5 46.5t-53 23.5t-91 10v68h643v-68q-61 -4 -91 -10t-53 -23.5t-29.5 -46.5t-6.5 -82v-975q0 -53 6.5 -81.5t29.5 -45.5t52.5 -22.5t91.5 -9.5v-70zM246 1739q0 50 35 87.5t94 37.5
q57 0 93 -37.5t36 -87.5t-35.5 -86.5t-93.5 -36.5q-59 0 -94 36.5t-35 86.5z" />
    <glyph glyph-name="dotlessi" unicode="&#x131;" horiz-adv-x="591" 
d="M547 0h-500v70q76 7 100.5 26.5t24.5 69.5v508q0 35 -13 49t-44 14h-68v62l285 166h88v-799q0 -50 25.5 -69.5t101.5 -26.5v-70z" />
    <glyph glyph-name="IJ" unicode="&#x132;" horiz-adv-x="1447" 
d="M694 0h-643v70q62 4 91.5 9.5t52.5 22.5t29.5 45.5t6.5 81.5v975q0 53 -6.5 82t-29.5 46.5t-53 23.5t-91 10v68h643v-68q-61 -4 -91 -10t-53 -23.5t-29.5 -46.5t-6.5 -82v-975q0 -53 6.5 -81.5t29.5 -45.5t52.5 -22.5t91.5 -9.5v-70zM1231 1204v-1136q0 -131 -36 -231
t-100.5 -160t-147.5 -89.5t-183 -29.5q-152 0 -227.5 59t-75.5 139q0 58 36.5 94.5t90.5 36.5q45 0 75.5 -20t45.5 -48t27 -56t30.5 -48t46.5 -20q69 0 102 72.5t33 242.5v1194q0 53 -6.5 82t-29.5 46.5t-53 23.5t-91 10v68h643v-68q-61 -4 -91 -10t-53 -23.5t-29.5 -46.5
t-6.5 -82z" />
    <glyph glyph-name="ij" unicode="&#x133;" horiz-adv-x="1107" 
d="M547 0h-500v70q76 7 100.5 26.5t24.5 69.5v508q0 35 -13 49t-44 14h-68v62l285 166h88v-799q0 -50 25.5 -69.5t101.5 -26.5v-70zM152 1278q0 59 41 102t108 43q68 0 110 -43.5t42 -101.5q0 -57 -42 -99t-110 -42q-67 0 -108 42t-41 99zM526 -408q-91 0 -147.5 38.5
t-56.5 111.5q0 46 36.5 80.5t83.5 34.5q32 0 56 -14t37.5 -34.5t25.5 -41t27 -34.5t33 -14q40 0 64 35t24 101v819q0 35 -13.5 49t-44.5 14h-67v62l284 166h88v-908q0 -225 -121 -345t-309 -120zM688 1278q0 59 41 102t109 43t109.5 -43.5t41.5 -101.5q0 -57 -41.5 -99
t-109.5 -42t-109 42t-41 99z" />
    <glyph glyph-name="Jcircumflex" unicode="&#x134;" horiz-adv-x="731" 
d="M51 1513l207 312q27 41 70 41h90q42 0 69 -41l207 -312h-102l-219 201l-219 -201h-103zM514 1204v-1136q0 -131 -36 -231t-100.5 -160t-147.5 -89.5t-183 -29.5q-152 0 -227.5 59t-75.5 139q0 58 37 94.5t90 36.5q45 0 75.5 -20t45.5 -48t27 -56t30.5 -48t46.5 -20
q69 0 102 72.5t33 242.5v1194q0 53 -6.5 82t-29.5 46.5t-53 23.5t-91 10v68h643v-68q-61 -4 -91 -10t-53 -23.5t-29.5 -46.5t-6.5 -82z" />
    <glyph glyph-name="jcircumflex" unicode="&#x135;" horiz-adv-x="571" 
d="M-10 -408q-91 0 -148 39t-57 111q0 46 37 80.5t84 34.5q39 0 66.5 -21.5t40 -47.5t31 -47.5t40.5 -21.5q40 0 64 35t24 101v819q0 35 -13 49t-44 14h-68v62l285 166h88v-908q0 -225 -121 -345t-309 -120zM-25 1034l207 312q27 40 70 40h90q43 0 70 -40l206 -312h-102
l-219 201l-219 -201h-103z" />
    <glyph glyph-name="Kcommaaccent" unicode="&#x136;" horiz-adv-x="1538" 
d="M641 -233q0 51 35.5 87.5t93.5 36.5t93.5 -40t35.5 -105q0 -66 -41 -138.5t-92 -123.5l-41 33q38 79 51 123q-64 0 -99.5 36t-35.5 91zM694 0h-643v70q62 4 91.5 9.5t52.5 22.5t29.5 45.5t6.5 81.5v975q0 53 -6.5 82t-29.5 46.5t-53 23.5t-91 10v68h643v-68
q-61 -4 -91 -10t-53 -23.5t-29.5 -46.5t-6.5 -82v-459l500 457q21 19 34.5 39.5t15 41.5t-11.5 38t-48 29.5t-91 15.5v68h560v-68q-80 -7 -131 -35t-146 -114l-350 -322l526 -705q86 -115 193 -120v-70h-647v70q103 8 125.5 41.5t-33.5 111.5l-369 484l-127 -117v-361
q0 -53 6.5 -81.5t29.5 -45.5t52.5 -22.5t91.5 -9.5v-70z" />
    <glyph glyph-name="kcommaaccent" unicode="&#x137;" horiz-adv-x="1161" 
d="M455 -233q0 51 35.5 87.5t93.5 36.5t93.5 -40t35.5 -105q0 -66 -41 -138.5t-92 -123.5l-41 33q38 79 51 123q-64 0 -99.5 36t-35.5 91zM547 0h-500v70q76 7 100.5 26.5t24.5 69.5v1008q0 35 -13 49t-44 14h-68v61l285 166h88v-970l233 229q26 26 37.5 49t7.5 43.5
t-34 33.5t-86 17v68h507v-68q-83 -7 -134.5 -33.5t-125.5 -97.5l-114 -114l319 -431q49 -66 83 -89t83 -31v-70h-551v70q58 5 85.5 24t26.5 44.5t-24 56.5l-198 256l-115 -111v-174q0 -50 25.5 -69.5t101.5 -26.5v-70z" />
    <glyph glyph-name="kgreenlandic" unicode="&#x138;" horiz-adv-x="1161" 
d="M547 0h-500v70q76 7 100.5 26.5t24.5 69.5v508q0 35 -13 49t-44 14h-68v62l285 166h88v-471l233 229q26 26 37.5 49t7.5 43.5t-34 33.5t-86 17v68h507v-68q-83 -7 -134.5 -33.5t-125.5 -97.5l-114 -114l319 -431q49 -66 83 -89t83 -31v-70h-551v70q58 5 85.5 24
t26.5 44.5t-24 56.5l-198 256l-115 -111v-174q0 -50 25.5 -69.5t101.5 -26.5v-70z" />
    <glyph glyph-name="Lacute" unicode="&#x139;" horiz-adv-x="1306" 
d="M547 1516l180 309q18 37 64 37h145q37 0 37 -35q0 -28 -51 -70l-273 -241h-102zM575 117h99q316 0 565 313l57 -35l-198 -395h-1047v70q62 4 91.5 9.5t52.5 22.5t29.5 45.5t6.5 81.5v975q0 53 -6.5 82t-29.5 46.5t-53 23.5t-91 10v68h643v-68q-61 -4 -91 -10t-53 -23.5
t-29.5 -46.5t-6.5 -82v-1026q0 -29 16.5 -45t44.5 -16z" />
    <glyph glyph-name="lacute" unicode="&#x13a;" horiz-adv-x="591" 
d="M231 1516l181 309q18 37 63 37h146q36 0 36 -35q0 -28 -51 -70l-272 -241h-103zM547 0h-500v70q76 7 100.5 26.5t24.5 69.5v1008q0 35 -13 49t-44 14h-68v61l285 166h88v-1298q0 -50 25.5 -69.5t101.5 -26.5v-70z" />
    <glyph glyph-name="Lcommaaccent" unicode="&#x13b;" horiz-adv-x="1306" 
d="M512 -233q0 51 35.5 87.5t93.5 36.5t93.5 -40t35.5 -105q0 -66 -41 -138.5t-92 -123.5l-41 33q38 79 51 123q-64 0 -99.5 36t-35.5 91zM575 117h99q316 0 565 313l57 -35l-198 -395h-1047v70q62 4 91.5 9.5t52.5 22.5t29.5 45.5t6.5 81.5v975q0 53 -6.5 82t-29.5 46.5
t-53 23.5t-91 10v68h643v-68q-61 -4 -91 -10t-53 -23.5t-29.5 -46.5t-6.5 -82v-1026q0 -29 16.5 -45t44.5 -16z" />
    <glyph glyph-name="lcommaaccent" unicode="&#x13c;" horiz-adv-x="591" 
d="M168 -233q0 51 35.5 87.5t93.5 36.5t93.5 -40t35.5 -105q0 -66 -41 -138.5t-92 -123.5l-41 33q38 79 51 123q-64 0 -99.5 36t-35.5 91zM547 0h-500v70q76 7 100.5 26.5t24.5 69.5v1008q0 35 -13 49t-44 14h-68v61l285 166h88v-1298q0 -50 25.5 -69.5t101.5 -26.5v-70z
" />
    <glyph glyph-name="Lcaron" unicode="&#x13d;" horiz-adv-x="1306" 
d="M774 1296q0 64 45 111t119 47t119 -50.5t45 -129.5q0 -99 -71 -227t-157 -211l-53 45q103 134 129 254q-84 0 -130 46.5t-46 114.5zM575 117h99q316 0 565 313l57 -35l-198 -395h-1047v70q62 4 91.5 9.5t52.5 22.5t29.5 45.5t6.5 81.5v975q0 53 -6.5 82t-29.5 46.5
t-53 23.5t-91 10v68h643v-68q-61 -4 -91 -10t-53 -23.5t-29.5 -46.5t-6.5 -82v-1026q0 -29 16.5 -45t44.5 -16z" />
    <glyph glyph-name="lcaron" unicode="&#x13e;" horiz-adv-x="743" 
d="M479 1358q0 53 36 91t97 38t97 -41.5t36 -106.5q0 -81 -57 -183.5t-127 -170.5l-43 37q85 112 105 205q-68 0 -106 38t-38 93zM547 0h-500v70q76 7 100.5 26.5t24.5 69.5v1008q0 35 -13 49t-44 14h-68v61l285 166h88v-1298q0 -50 25.5 -69.5t101.5 -26.5v-70z" />
    <glyph glyph-name="Ldot" unicode="&#x13f;" horiz-adv-x="1306" 
d="M575 117h99q316 0 565 313l57 -35l-198 -395h-1047v70q62 4 91.5 9.5t52.5 22.5t29.5 45.5t6.5 81.5v975q0 53 -6.5 82t-29.5 46.5t-53 23.5t-91 10v68h643v-68q-61 -4 -91 -10t-53 -23.5t-29.5 -46.5t-6.5 -82v-1026q0 -29 16.5 -45t44.5 -16zM834 752q0 64 44.5 110.5
t118.5 46.5q73 0 118.5 -46.5t45.5 -110.5q0 -67 -45.5 -114.5t-118.5 -47.5q-74 0 -118.5 47.5t-44.5 114.5z" />
    <glyph glyph-name="ldot" unicode="&#x140;" horiz-adv-x="808" 
d="M547 0h-500v70q76 7 100.5 26.5t24.5 69.5v1008q0 35 -13 49t-44 14h-68v61l285 166h88v-1298q0 -50 25.5 -69.5t101.5 -26.5v-70zM532 477q0 64 45 111t119 47q72 0 118 -47t46 -111q0 -67 -45.5 -114.5t-118.5 -47.5q-74 0 -119 47.5t-45 114.5z" />
    <glyph glyph-name="Lslash" unicode="&#x141;" horiz-adv-x="1306" 
d="M51 475v117l180 102v510q0 53 -6.5 82t-29.5 46.5t-53 23.5t-91 10v68h643v-68q-61 -4 -91 -10t-53 -23.5t-29.5 -46.5t-6.5 -82v-346l180 105v-117l-180 -105v-563q0 -29 16.5 -45t44.5 -16h99q316 0 565 313l57 -35l-198 -395h-1047v70q62 4 91.5 9.5t52.5 22.5
t29.5 45.5t6.5 81.5v349z" />
    <glyph glyph-name="lslash" unicode="&#x142;" horiz-adv-x="591" 
d="M47 264v119l125 72v719q0 35 -13 49t-44 14h-68v61l285 166h88v-868l127 74v-119l-127 -74v-311q0 -50 25.5 -69.5t101.5 -26.5v-70h-500v70q76 7 100.5 26.5t24.5 69.5v170z" />
    <glyph glyph-name="Nacute" unicode="&#x143;" horiz-adv-x="1519" 
d="M702 1516l181 309q18 37 63 37h146q36 0 36 -35q0 -28 -51 -70l-272 -241h-103zM545 0h-494v70q50 3 76.5 7.5t50.5 13.5t34 26t15.5 43.5t5.5 68.5v975q0 53 -7 82t-30 46.5t-53.5 23.5t-91.5 10v68h502l623 -963v733q0 53 -6.5 82t-29 46.5t-52.5 23.5t-91 10v68h488
v-68q-61 -4 -91 -10t-52.5 -23.5t-28.5 -46.5t-6 -82v-1204h-166l-776 1202v-973q0 -53 6.5 -81.5t29.5 -45.5t52.5 -22.5t91.5 -9.5v-70z" />
    <glyph glyph-name="nacute" unicode="&#x144;" horiz-adv-x="1212" 
d="M541 1036l180 310q17 36 63 36h146q37 0 37 -34q0 -27 -52 -70l-272 -242h-102zM1165 0h-499v70q76 7 101.5 26.5t25.5 69.5v506q0 78 -40 115.5t-108 37.5q-111 0 -225 -73v-586q0 -50 25.5 -69.5t101.5 -26.5v-70h-500v70q76 7 100.5 26.5t24.5 69.5v508q0 35 -13 49
t-44 14h-68v62l285 166h88v-101q67 42 151 71.5t162 29.5q45 0 84.5 -7t81.5 -26.5t72 -51.5t49.5 -86.5t19.5 -125.5v-502q0 -50 24.5 -69.5t100.5 -26.5v-70z" />
    <glyph glyph-name="Ncommaaccent" unicode="&#x145;" horiz-adv-x="1519" 
d="M629 -233q0 51 35.5 87.5t93.5 36.5t93.5 -40t35.5 -105q0 -66 -41 -138.5t-92 -123.5l-41 33q38 79 51 123q-64 0 -99.5 36t-35.5 91zM545 0h-494v70q50 3 76.5 7.5t50.5 13.5t34 26t15.5 43.5t5.5 68.5v975q0 53 -7 82t-30 46.5t-53.5 23.5t-91.5 10v68h502l623 -963
v733q0 53 -6.5 82t-29 46.5t-52.5 23.5t-91 10v68h488v-68q-61 -4 -91 -10t-52.5 -23.5t-28.5 -46.5t-6 -82v-1204h-166l-776 1202v-973q0 -53 6.5 -81.5t29.5 -45.5t52.5 -22.5t91.5 -9.5v-70z" />
    <glyph glyph-name="ncommaaccent" unicode="&#x146;" horiz-adv-x="1212" 
d="M479 -233q0 51 35.5 87.5t93.5 36.5t93.5 -40t35.5 -105q0 -66 -41 -138.5t-92 -123.5l-41 33q38 79 51 123q-64 0 -99.5 36t-35.5 91zM1165 0h-499v70q76 7 101.5 26.5t25.5 69.5v506q0 78 -40 115.5t-108 37.5q-111 0 -225 -73v-586q0 -50 25.5 -69.5t101.5 -26.5v-70
h-500v70q76 7 100.5 26.5t24.5 69.5v508q0 35 -13 49t-44 14h-68v62l285 166h88v-101q67 42 151 71.5t162 29.5q45 0 84.5 -7t81.5 -26.5t72 -51.5t49.5 -86.5t19.5 -125.5v-502q0 -50 24.5 -69.5t100.5 -26.5v-70z" />
    <glyph glyph-name="Ncaron" unicode="&#x147;" horiz-adv-x="1519" 
d="M643 1556l-207 310h103l219 -201l219 201h102l-207 -310q-27 -43 -69 -43h-90q-43 0 -70 43zM545 0h-494v70q50 3 76.5 7.5t50.5 13.5t34 26t15.5 43.5t5.5 68.5v975q0 53 -7 82t-30 46.5t-53.5 23.5t-91.5 10v68h502l623 -963v733q0 53 -6.5 82t-29 46.5t-52.5 23.5
t-91 10v68h488v-68q-61 -4 -91 -10t-52.5 -23.5t-28.5 -46.5t-6 -82v-1204h-166l-776 1202v-973q0 -53 6.5 -81.5t29.5 -45.5t52.5 -22.5t91.5 -9.5v-70z" />
    <glyph glyph-name="ncaron" unicode="&#x148;" horiz-adv-x="1212" 
d="M492 1077l-207 309h102l219 -200l219 200h103l-207 -309q-27 -43 -70 -43h-90q-42 0 -69 43zM1165 0h-499v70q76 7 101.5 26.5t25.5 69.5v506q0 78 -40 115.5t-108 37.5q-111 0 -225 -73v-586q0 -50 25.5 -69.5t101.5 -26.5v-70h-500v70q76 7 100.5 26.5t24.5 69.5v508
q0 35 -13 49t-44 14h-68v62l285 166h88v-101q67 42 151 71.5t162 29.5q45 0 84.5 -7t81.5 -26.5t72 -51.5t49.5 -86.5t19.5 -125.5v-502q0 -50 24.5 -69.5t100.5 -26.5v-70z" />
    <glyph glyph-name="napostrophe" unicode="&#x149;" horiz-adv-x="1212" 
d="M49 1339q0 52 35.5 88.5t93.5 36.5t93.5 -40t35.5 -105q0 -66 -41 -138.5t-92 -123.5l-41 33q39 81 51 122q-64 0 -99.5 36t-35.5 91zM1165 0h-499v70q76 7 101.5 26.5t25.5 69.5v506q0 78 -40 115.5t-108 37.5q-111 0 -225 -73v-586q0 -50 25.5 -69.5t101.5 -26.5v-70
h-500v70q76 7 100.5 26.5t24.5 69.5v508q0 35 -13 49t-44 14h-68v62l285 166h88v-101q67 42 151 71.5t162 29.5q45 0 84.5 -7t81.5 -26.5t72 -51.5t49.5 -86.5t19.5 -125.5v-502q0 -50 24.5 -69.5t100.5 -26.5v-70z" />
    <glyph glyph-name="Eng" unicode="&#x14a;" horiz-adv-x="1519" 
d="M545 0h-494v70q50 3 76.5 7.5t50.5 13.5t34 26t15.5 43.5t5.5 68.5v975q0 53 -7 82t-30 46.5t-53.5 23.5t-91.5 10v68h502l623 -965v735q0 53 -6.5 82t-29 46.5t-52.5 23.5t-91 10v68h488v-68q-61 -4 -91 -10t-52.5 -23.5t-28.5 -46.5t-6 -82v-1200q0 -214 -75 -322
t-261 -108q-139 0 -211 59t-72 138q0 59 36.5 96t90.5 37q45 0 75 -20t44 -48.5t25.5 -57.5t31 -49t49.5 -20q65 0 96.5 59.5t37.5 178.5l-809 1259v-977q0 -53 6.5 -81.5t29.5 -45.5t52.5 -22.5t91.5 -9.5v-70z" />
    <glyph glyph-name="eng" unicode="&#x14b;" horiz-adv-x="1191" 
d="M610 -408q-91 0 -147.5 38.5t-56.5 111.5q0 46 36.5 80.5t83.5 34.5q38 0 65.5 -21.5t39.5 -47.5t30.5 -47.5t40.5 -21.5q41 0 66 35t25 101v817q0 78 -40 115.5t-108 37.5q-111 0 -225 -73v-586q0 -50 25.5 -69.5t101.5 -26.5v-70h-500v70q76 7 100.5 26.5t24.5 69.5
v508q0 35 -13 49t-44 14h-68v62l285 166h88v-101q67 42 151 71.5t162 29.5q45 0 84.5 -7t81.5 -26.5t72 -51.5t49.5 -86.5t19.5 -125.5v-611q0 -114 -34 -204t-93 -146.5t-136 -85.5t-167 -29z" />
    <glyph glyph-name="Omacron" unicode="&#x14c;" horiz-adv-x="1579" 
d="M514 1653v127h551v-127h-551zM78 717q0 221 85 389.5t247.5 263t380.5 94.5q217 0 379.5 -94.5t247.5 -263t85 -389.5t-85 -389.5t-247.5 -263.5t-379.5 -95q-218 0 -380.5 95t-247.5 263.5t-85 389.5zM385 717q0 -637 406 -637q405 0 405 637t-405 637
q-112 0 -192.5 -46.5t-126 -134t-66.5 -199.5t-21 -257z" />
    <glyph glyph-name="omacron" unicode="&#x14d;" horiz-adv-x="1136" 
d="M303 1174v126h551v-126h-551zM61 467q0 218 140 358t368 140t367 -140t139 -358q0 -217 -139.5 -357.5t-366.5 -140.5t-367.5 140.5t-140.5 357.5zM322 467q0 -395 247 -395q131 0 188.5 102.5t57.5 292.5t-57.5 292.5t-188.5 102.5q-247 0 -247 -395z" />
    <glyph glyph-name="Obreve" unicode="&#x14e;" horiz-adv-x="1579" 
d="M78 717q0 221 85 389.5t247.5 263t380.5 94.5q217 0 379.5 -94.5t247.5 -263t85 -389.5t-85 -389.5t-247.5 -263.5t-379.5 -95q-218 0 -380.5 95t-247.5 263.5t-85 389.5zM385 717q0 -637 406 -637q405 0 405 637t-405 637q-112 0 -192.5 -46.5t-126 -134t-66.5 -199.5
t-21 -257zM997 1833h88q-16 -98 -93.5 -162.5t-203.5 -64.5q-125 0 -201.5 64.5t-92.5 162.5h90q14 -44 71 -68t133 -24q77 0 136 24t73 68z" />
    <glyph glyph-name="obreve" unicode="&#x14f;" horiz-adv-x="1136" 
d="M61 467q0 218 140 358t368 140t367 -140t139 -358q0 -217 -139.5 -357.5t-366.5 -140.5t-367.5 140.5t-140.5 357.5zM322 467q0 -395 247 -395q131 0 188.5 102.5t57.5 292.5t-57.5 292.5t-188.5 102.5q-247 0 -247 -395zM786 1354h88q-16 -98 -93 -163t-203 -65
q-125 0 -202 65t-93 163h90q14 -44 71.5 -68t133.5 -24q77 0 135.5 24t72.5 68z" />
    <glyph glyph-name="Ohungarumlaut" unicode="&#x150;" horiz-adv-x="1579" 
d="M559 1516l80 299q8 28 19.5 37.5t39.5 9.5h123q18 0 29.5 -10t11.5 -25q0 -26 -35 -70l-182 -241h-86zM866 1516l84 299q7 27 20.5 37t43.5 10h114q18 0 29.5 -10t11.5 -25q0 -27 -34 -70l-183 -241h-86zM78 717q0 221 85 389.5t247.5 263t380.5 94.5q217 0 379.5 -94.5
t247.5 -263t85 -389.5t-85 -389.5t-247.5 -263.5t-379.5 -95q-218 0 -380.5 95t-247.5 263.5t-85 389.5zM385 717q0 -637 406 -637q405 0 405 637t-405 637q-112 0 -192.5 -46.5t-126 -134t-66.5 -199.5t-21 -257z" />
    <glyph glyph-name="ohungarumlaut" unicode="&#x151;" horiz-adv-x="1136" 
d="M360 1036l80 299q7 28 19.5 37.5t40.5 9.5h123q19 0 30 -9.5t11 -24.5q0 -26 -35 -70l-183 -242h-86zM668 1036l84 299q7 28 20.5 37.5t42.5 9.5h115q19 0 30 -9.5t11 -24.5q0 -26 -35 -70l-182 -242h-86zM61 467q0 218 140 358t368 140t367 -140t139 -358
q0 -217 -139.5 -357.5t-366.5 -140.5t-367.5 140.5t-140.5 357.5zM322 467q0 -395 247 -395q131 0 188.5 102.5t57.5 292.5t-57.5 292.5t-188.5 102.5q-247 0 -247 -395z" />
    <glyph glyph-name="OE" unicode="&#x152;" horiz-adv-x="2344" 
d="M1505 117h160q104 0 195 23t165.5 66.5t134.5 98t117 125.5l58 -35l-201 -395h-1042q-143 -31 -277 -31q-230 0 -398 95t-253.5 263t-85.5 390t85.5 389.5t253.5 262.5t398 95q155 0 275 -30h1042l129 -353l-59 -28q-99 138 -224.5 202t-314.5 64h-158q-29 0 -45 -17
t-16 -45v-450h287q55 0 90.5 12t54 38t26.5 56.5t11 79.5h74v-489h-74q-3 49 -11 79.5t-26.5 56.5t-54 38t-90.5 12h-287v-512q0 -61 61 -61zM385 717q0 -145 21 -256t69 -199.5t133.5 -135t206.5 -46.5q103 0 175.5 29.5t113.5 86.5t59.5 129t18.5 167v469
q0 194 -83.5 293.5t-283.5 99.5q-97 0 -172 -31t-123 -86t-79 -136t-43.5 -174.5t-12.5 -209.5z" />
    <glyph glyph-name="oe" unicode="&#x153;" horiz-adv-x="1787" 
d="M1731 543h-652q-4 -40 -4 -66q0 -193 66.5 -294t220.5 -101q95 0 175.5 60.5t129.5 170.5l94 -51q-135 -293 -424 -293q-134 0 -233.5 48.5t-159.5 136.5q-115 -156 -313 -177q-74 -9 -142 0q-194 22 -311 157.5t-117 332.5q0 218 140 358t368 140q121 0 216.5 -48
t156.5 -135q109 153 295 174q65 8 137 2q166 -21 261.5 -129t95.5 -286zM322 467q0 -395 247 -395q131 0 188.5 102.5t57.5 292.5t-57.5 292.5t-188.5 102.5q-247 0 -247 -395zM1305 862q-98 0 -149 -52.5t-69 -158.5h402q0 99 -50.5 155t-133.5 56z" />
    <glyph glyph-name="Racute" unicode="&#x154;" horiz-adv-x="1507" 
d="M690 1516l180 309q18 37 64 37h145q37 0 37 -35q0 -28 -51 -70l-272 -241h-103zM1386 1063q0 -165 -111.5 -254t-309.5 -109l348 -507q41 -61 87 -88.5t128 -34.5v-70h-404l-460 684h-150v-455q0 -53 6.5 -81.5t29.5 -45.5t52.5 -22.5t91.5 -9.5v-70h-643v70
q62 4 91.5 9.5t52.5 22.5t29.5 45.5t6.5 81.5v975q0 36 -2 59t-10 41.5t-19 28t-33.5 17t-47.5 10.5t-68 6v68h709q149 0 260 -19t195.5 -61t127.5 -115t43 -176zM1079 1063q0 136 -80.5 196t-238.5 60h-185q-28 0 -44.5 -17t-16.5 -45v-456h242q161 0 242 62t81 200z" />
    <glyph glyph-name="racute" unicode="&#x155;" horiz-adv-x="866" 
d="M365 1036l180 310q17 36 63 36h146q37 0 37 -34q0 -27 -52 -70l-272 -242h-102zM852 821q0 -61 -35 -97t-86 -36q-29 0 -52 10.5t-37 25t-26 29t-27 25t-34 10.5q-34 0 -70.5 -20.5t-64.5 -60.5v-541q0 -50 25.5 -69.5t101.5 -26.5v-70h-500v70q76 7 100.5 26.5
t24.5 69.5v508q0 35 -13 49t-44 14h-68v62l285 166h88v-129q51 59 121.5 94t140.5 35q82 0 126 -39.5t44 -104.5z" />
    <glyph glyph-name="Rcommaaccent" unicode="&#x156;" horiz-adv-x="1507" 
d="M610 -233q0 51 35.5 87.5t93.5 36.5t93.5 -40t35.5 -105q0 -66 -41 -138.5t-92 -123.5l-41 33q38 79 51 123q-64 0 -99.5 36t-35.5 91zM1386 1063q0 -165 -111.5 -254t-309.5 -109l348 -507q41 -61 87 -88.5t128 -34.5v-70h-404l-460 684h-150v-455q0 -53 6.5 -81.5
t29.5 -45.5t52.5 -22.5t91.5 -9.5v-70h-643v70q62 4 91.5 9.5t52.5 22.5t29.5 45.5t6.5 81.5v975q0 36 -2 59t-10 41.5t-19 28t-33.5 17t-47.5 10.5t-68 6v68h709q149 0 260 -19t195.5 -61t127.5 -115t43 -176zM1079 1063q0 136 -80.5 196t-238.5 60h-185q-28 0 -44.5 -17
t-16.5 -45v-456h242q161 0 242 62t81 200z" />
    <glyph glyph-name="rcommaaccent" unicode="&#x157;" horiz-adv-x="866" 
d="M170 -233q0 51 35.5 87.5t93.5 36.5t93.5 -40t35.5 -105q0 -66 -41 -138.5t-92 -123.5l-41 33q38 79 51 123q-64 0 -99.5 36t-35.5 91zM852 821q0 -61 -35 -97t-86 -36q-29 0 -52 10.5t-37 25t-26 29t-27 25t-34 10.5q-34 0 -70.5 -20.5t-64.5 -60.5v-541
q0 -50 25.5 -69.5t101.5 -26.5v-70h-500v70q76 7 100.5 26.5t24.5 69.5v508q0 35 -13 49t-44 14h-68v62l285 166h88v-129q51 59 121.5 94t140.5 35q82 0 126 -39.5t44 -104.5z" />
    <glyph glyph-name="Rcaron" unicode="&#x158;" horiz-adv-x="1507" 
d="M625 1556l-207 310h102l219 -201l219 201h103l-207 -310q-27 -43 -70 -43h-90q-42 0 -69 43zM1386 1063q0 -165 -111.5 -254t-309.5 -109l348 -507q41 -61 87 -88.5t128 -34.5v-70h-404l-460 684h-150v-455q0 -53 6.5 -81.5t29.5 -45.5t52.5 -22.5t91.5 -9.5v-70h-643v70
q62 4 91.5 9.5t52.5 22.5t29.5 45.5t6.5 81.5v975q0 36 -2 59t-10 41.5t-19 28t-33.5 17t-47.5 10.5t-68 6v68h709q149 0 260 -19t195.5 -61t127.5 -115t43 -176zM1079 1063q0 136 -80.5 196t-238.5 60h-185q-28 0 -44.5 -17t-16.5 -45v-456h242q161 0 242 62t81 200z" />
    <glyph glyph-name="rcaron" unicode="&#x159;" horiz-adv-x="866" 
d="M332 1077l-207 309h102l219 -200l220 200h102l-207 -309q-27 -43 -69 -43h-91q-42 0 -69 43zM852 821q0 -61 -35 -97t-86 -36q-29 0 -52 10.5t-37 25t-26 29t-27 25t-34 10.5q-34 0 -70.5 -20.5t-64.5 -60.5v-541q0 -50 25.5 -69.5t101.5 -26.5v-70h-500v70
q76 7 100.5 26.5t24.5 69.5v508q0 35 -13 49t-44 14h-68v62l285 166h88v-129q51 59 121.5 94t140.5 35q82 0 126 -39.5t44 -104.5z" />
    <glyph glyph-name="Sacute" unicode="&#x15a;" horiz-adv-x="1388" 
d="M635 1516l180 309q18 37 64 37h145q37 0 37 -35q0 -28 -51 -70l-273 -241h-102zM387 1151q0 -56 31.5 -98.5t85.5 -69.5t123 -49t146 -42.5t154 -43.5t146 -58t123 -80.5t85.5 -116.5t31.5 -161q0 -135 -76.5 -241.5t-209 -164t-296.5 -57.5q-245 0 -434 107l-33 -76h-80
l-123 451l64 20q91 -183 248 -287t346 -104q138 0 232 72t93 180q0 79 -51 134.5t-131.5 87.5t-178 59t-195 59.5t-178 77.5t-131 125t-50.5 190q0 120 69.5 212t185 139.5t255.5 47.5q239 0 395 -96l29 66h80l112 -406l-61 -18q-78 164 -213.5 254t-318.5 90
q-127 0 -201 -57t-74 -146z" />
    <glyph glyph-name="sacute" unicode="&#x15b;" horiz-adv-x="972" 
d="M422 1036l180 310q17 36 64 36h145q37 0 37 -34q0 -28 -51 -70l-273 -242h-102zM311 756q0 -42 34 -72.5t88.5 -48.5t120.5 -35t131.5 -39.5t120 -54t88.5 -86.5t34 -129q0 -147 -112 -234.5t-284 -87.5q-93 0 -180.5 27t-142.5 67l-25 -63h-63l-74 324l55 16
q172 -270 422 -270q79 0 132 36t53 103q0 46 -34.5 78.5t-90 52t-123 36.5t-134.5 39.5t-122.5 53t-90 84.5t-34.5 127q0 122 104 203.5t260 81.5q170 0 281 -82l23 51h63l59 -283l-59 -18q-68 119 -158 177t-188 58q-73 0 -113.5 -31.5t-40.5 -80.5z" />
    <glyph glyph-name="Scircumflex" unicode="&#x15c;" horiz-adv-x="1388" 
d="M371 1513l207 312q27 41 69 41h90q43 0 70 -41l207 -312h-103l-219 201l-219 -201h-102zM387 1151q0 -56 31.5 -98.5t85.5 -69.5t123 -49t146 -42.5t154 -43.5t146 -58t123 -80.5t85.5 -116.5t31.5 -161q0 -135 -76.5 -241.5t-209 -164t-296.5 -57.5q-245 0 -434 107
l-33 -76h-80l-123 451l64 20q91 -183 248 -287t346 -104q138 0 232 72t93 180q0 79 -51 134.5t-131.5 87.5t-178 59t-195 59.5t-178 77.5t-131 125t-50.5 190q0 120 69.5 212t185 139.5t255.5 47.5q239 0 395 -96l29 66h80l112 -406l-61 -18q-78 164 -213.5 254t-318.5 90
q-127 0 -201 -57t-74 -146z" />
    <glyph glyph-name="scircumflex" unicode="&#x15d;" horiz-adv-x="972" 
d="M166 1034l207 312q27 40 69 40h90q43 0 70 -40l207 -312h-102l-220 201l-219 -201h-102zM311 756q0 -42 34 -72.5t88.5 -48.5t120.5 -35t131.5 -39.5t120 -54t88.5 -86.5t34 -129q0 -147 -112 -234.5t-284 -87.5q-93 0 -180.5 27t-142.5 67l-25 -63h-63l-74 324l55 16
q172 -270 422 -270q79 0 132 36t53 103q0 46 -34.5 78.5t-90 52t-123 36.5t-134.5 39.5t-122.5 53t-90 84.5t-34.5 127q0 122 104 203.5t260 81.5q170 0 281 -82l23 51h63l59 -283l-59 -18q-68 119 -158 177t-188 58q-73 0 -113.5 -31.5t-40.5 -80.5z" />
    <glyph glyph-name="Scedilla" unicode="&#x15e;" horiz-adv-x="1388" 
d="M778 -121q71 0 115.5 -35t44.5 -96q0 -79 -78 -140t-203 -61q-99 0 -163 38.5t-64 92.5q0 27 19 47.5t47 20.5t45 -12.5t25.5 -31t18.5 -36.5t31.5 -30.5t55.5 -12.5q53 0 83.5 26.5t30.5 69.5q0 29 -20.5 47.5t-54.5 18.5q-40 0 -74 -27l-55 27l80 186q-211 15 -365 105
l-33 -76h-80l-123 451l64 20q91 -183 248 -287t346 -104q138 0 232 72t93 180q0 79 -51 134.5t-131.5 87.5t-178 59t-195 59.5t-178 77.5t-131 125t-50.5 190q0 120 69.5 212t185 139.5t255.5 47.5q239 0 395 -96l29 66h80l112 -406l-61 -18q-78 164 -213.5 254t-318.5 90
q-127 0 -201 -57t-74 -146q0 -56 31.5 -98.5t85.5 -69.5t123 -49t146 -42.5t154 -43.5t146 -58t123 -80.5t85.5 -116.5t31.5 -161q0 -130 -71.5 -234t-195 -162.5t-278.5 -64.5l-43 -100q19 8 53 8z" />
    <glyph glyph-name="scedilla" unicode="&#x15f;" horiz-adv-x="972" 
d="M580 -121q71 0 115 -34.5t44 -96.5q0 -80 -77.5 -140.5t-202.5 -60.5q-99 0 -163.5 38.5t-64.5 92.5q0 27 19 47.5t47 20.5t45 -12.5t25.5 -31t18.5 -36.5t31.5 -30.5t55.5 -12.5q53 0 84 26.5t31 69.5q0 29 -21 47.5t-55 18.5q-40 0 -74 -27l-55 27l80 188
q-160 19 -254 90l-25 -63h-63l-74 324l55 16q172 -270 422 -270q79 0 132 36t53 103q0 46 -34.5 78.5t-90 52t-123 36.5t-134.5 39.5t-122.5 53t-90 84.5t-34.5 127q0 122 104 203.5t260 81.5q170 0 281 -82l23 51h63l59 -283l-59 -18q-68 119 -158 177t-188 58
q-73 0 -113.5 -31.5t-40.5 -80.5q0 -42 34 -72.5t88.5 -48.5t120.5 -35t131.5 -39.5t120 -54t88.5 -86.5t34 -129q0 -139 -100.5 -225t-258.5 -95l-43 -100q19 8 54 8z" />
    <glyph glyph-name="Scaron" unicode="&#x160;" horiz-adv-x="1388" 
d="M578 1556l-207 310h102l219 -201l219 201h103l-207 -310q-27 -43 -70 -43h-90q-42 0 -69 43zM387 1151q0 -56 31.5 -98.5t85.5 -69.5t123 -49t146 -42.5t154 -43.5t146 -58t123 -80.5t85.5 -116.5t31.5 -161q0 -135 -76.5 -241.5t-209 -164t-296.5 -57.5q-245 0 -434 107
l-33 -76h-80l-123 451l64 20q91 -183 248 -287t346 -104q138 0 232 72t93 180q0 79 -51 134.5t-131.5 87.5t-178 59t-195 59.5t-178 77.5t-131 125t-50.5 190q0 120 69.5 212t185 139.5t255.5 47.5q239 0 395 -96l29 66h80l112 -406l-61 -18q-78 164 -213.5 254t-318.5 90
q-127 0 -201 -57t-74 -146z" />
    <glyph glyph-name="scaron" unicode="&#x161;" horiz-adv-x="972" 
d="M373 1077l-207 309h102l219 -200l220 200h102l-207 -309q-27 -43 -70 -43h-90q-42 0 -69 43zM311 756q0 -42 34 -72.5t88.5 -48.5t120.5 -35t131.5 -39.5t120 -54t88.5 -86.5t34 -129q0 -147 -112 -234.5t-284 -87.5q-93 0 -180.5 27t-142.5 67l-25 -63h-63l-74 324
l55 16q172 -270 422 -270q79 0 132 36t53 103q0 46 -34.5 78.5t-90 52t-123 36.5t-134.5 39.5t-122.5 53t-90 84.5t-34.5 127q0 122 104 203.5t260 81.5q170 0 281 -82l23 51h63l59 -283l-59 -18q-68 119 -158 177t-188 58q-73 0 -113.5 -31.5t-40.5 -80.5z" />
    <glyph glyph-name="Tcommaaccent" unicode="&#x162;" horiz-adv-x="1392" 
d="M565 -233q0 51 35.5 87.5t93.5 36.5t93.5 -40t35.5 -105q0 -66 -41 -138.5t-92 -123.5l-41 33q38 79 51 123q-64 0 -99.5 36t-35.5 91zM551 229v1028q0 28 -16.5 45t-45.5 17q-134 0 -223 -58.5t-180 -205.5l-59 26l145 398h70q16 -45 63 -45h785q48 0 63 45h70l143 -398
l-59 -26q-88 145 -183 204.5t-229 59.5q-29 0 -45 -17t-16 -45v-1028q0 -53 6.5 -81.5t29.5 -45.5t52.5 -22.5t91.5 -9.5v-70h-643v70q62 4 91.5 9.5t52.5 22.5t29.5 45.5t6.5 81.5z" />
    <glyph glyph-name="tcommaaccent" unicode="&#x163;" horiz-adv-x="686" 
d="M223 -233q0 51 35.5 87.5t93.5 36.5t93.5 -40t35.5 -105q0 -66 -41 -138.5t-92 -123.5l-41 33q38 79 51 123q-64 0 -99.5 36t-35.5 91zM639 115v-103q-86 -39 -205 -39q-134 0 -205 59t-71 201v594h-127v60q123 45 189 130t95 224h91v-307h233v-107h-233v-596
q0 -141 112 -141q66 0 121 25z" />
    <glyph glyph-name="Tcaron" unicode="&#x164;" horiz-adv-x="1392" 
d="M582 1556l-207 310h102l219 -201l219 201h103l-207 -310q-27 -43 -70 -43h-90q-42 0 -69 43zM551 229v1028q0 28 -16.5 45t-45.5 17q-134 0 -223 -58.5t-180 -205.5l-59 26l145 398h70q16 -45 63 -45h785q48 0 63 45h70l143 -398l-59 -26q-88 145 -183 204.5t-229 59.5
q-29 0 -45 -17t-16 -45v-1028q0 -53 6.5 -81.5t29.5 -45.5t52.5 -22.5t91.5 -9.5v-70h-643v70q62 4 91.5 9.5t52.5 22.5t29.5 45.5t6.5 81.5z" />
    <glyph glyph-name="tcaron" unicode="&#x165;" horiz-adv-x="724" 
d="M461 1358q0 53 36 91t97 38t97 -41.5t36 -106.5q0 -81 -57 -183.5t-127 -170.5l-43 37q84 110 104 205q-68 0 -105.5 37.5t-37.5 93.5zM639 115v-103q-86 -39 -205 -39q-134 0 -205 59t-71 201v594h-127v60q123 45 189 130t95 224h91v-307h233v-107h-233v-596
q0 -141 112 -141q66 0 121 25z" />
    <glyph glyph-name="Tbar" unicode="&#x166;" horiz-adv-x="1392" 
d="M373 690v117h178v450q0 28 -16.5 45t-45.5 17q-134 0 -223 -58.5t-180 -205.5l-59 26l145 398h70q16 -45 63 -45h785q48 0 63 45h70l143 -398l-59 -26q-88 145 -183 204.5t-229 59.5q-29 0 -45 -17t-16 -45v-450h186v-117h-186v-461q0 -53 6.5 -81.5t29.5 -45.5
t52.5 -22.5t91.5 -9.5v-70h-643v70q62 4 91.5 9.5t52.5 22.5t29.5 45.5t6.5 81.5v461h-178z" />
    <glyph glyph-name="tbar" unicode="&#x167;" horiz-adv-x="686" 
d="M41 414v108h117v305h-127v60q123 45 189 130t95 224h91v-307h233v-107h-233v-305h135v-108h-135v-183q0 -141 112 -141q66 0 121 25v-103q-86 -39 -205 -39q-134 0 -205 59t-71 201v181h-117z" />
    <glyph glyph-name="Utilde" unicode="&#x168;" horiz-adv-x="1570" 
d="M500 1204v-778q0 -169 102 -252.5t264 -83.5t259.5 90t97.5 262v762q0 53 -6.5 82t-29.5 46.5t-53.5 23.5t-91.5 10v68h492v-68q-61 -4 -91 -10t-53 -23.5t-29.5 -46.5t-6.5 -82v-764q0 -217 -142 -344t-399 -127q-285 0 -440.5 120.5t-155.5 352.5v762q0 53 -6.5 82
t-29.5 46.5t-53 23.5t-91 10v68h643v-68q-62 -4 -92.5 -10t-53 -23.5t-28.5 -46.5t-6 -82zM1069 1835h78q-7 -117 -57.5 -172t-122.5 -55q-44 0 -90.5 25.5t-88 51t-73.5 25.5q-28 0 -50.5 -20.5t-29.5 -63.5h-80q7 117 57.5 172t120.5 55q45 0 92.5 -25.5t89.5 -51
t74 -25.5q28 0 50.5 20.5t29.5 63.5z" />
    <glyph glyph-name="utilde" unicode="&#x169;" horiz-adv-x="1196" 
d="M651 737v62l283 166h90v-799q0 -50 25.5 -69.5t101.5 -26.5v-70q-181 0 -375 -31v101q-66 -42 -150.5 -71.5t-160.5 -29.5q-45 0 -85 7t-82 27t-72 52t-49 87t-19 126v406q0 35 -13.5 49t-44.5 14h-69v62l284 166h91v-701q0 -155 145 -155q113 0 225 75v490q0 35 -13 49
t-44 14h-68zM809 1356h78q-7 -118 -57.5 -173t-122.5 -55q-35 0 -72 16t-63.5 35.5t-58.5 35.5t-58 16q-28 0 -50.5 -20.5t-29.5 -63.5h-80q7 117 57.5 172t120.5 55q45 0 92.5 -25.5t89.5 -51t74 -25.5q28 0 50.5 20.5t29.5 63.5z" />
    <glyph glyph-name="Umacron" unicode="&#x16a;" horiz-adv-x="1570" 
d="M500 1204v-778q0 -169 102 -252.5t264 -83.5t259.5 90t97.5 262v762q0 53 -6.5 82t-29.5 46.5t-53.5 23.5t-91.5 10v68h492v-68q-61 -4 -91 -10t-53 -23.5t-29.5 -46.5t-6.5 -82v-764q0 -217 -142 -344t-399 -127q-285 0 -440.5 120.5t-155.5 352.5v762q0 53 -6.5 82
t-29.5 46.5t-53 23.5t-91 10v68h643v-68q-62 -4 -92.5 -10t-53 -23.5t-28.5 -46.5t-6 -82zM573 1653v127h551v-127h-551z" />
    <glyph glyph-name="umacron" unicode="&#x16b;" horiz-adv-x="1196" 
d="M651 737v62l283 166h90v-799q0 -50 25.5 -69.5t101.5 -26.5v-70q-181 0 -375 -31v101q-66 -42 -150.5 -71.5t-160.5 -29.5q-45 0 -85 7t-82 27t-72 52t-49 87t-19 126v406q0 35 -13.5 49t-44.5 14h-69v62l284 166h91v-701q0 -155 145 -155q113 0 225 75v490q0 35 -13 49
t-44 14h-68zM315 1174v126h551v-126h-551z" />
    <glyph glyph-name="Ubreve" unicode="&#x16c;" horiz-adv-x="1570" 
d="M500 1204v-778q0 -169 102 -252.5t264 -83.5t259.5 90t97.5 262v762q0 53 -6.5 82t-29.5 46.5t-53.5 23.5t-91.5 10v68h492v-68q-61 -4 -91 -10t-53 -23.5t-29.5 -46.5t-6.5 -82v-764q0 -217 -142 -344t-399 -127q-285 0 -440.5 120.5t-155.5 352.5v762q0 53 -6.5 82
t-29.5 46.5t-53 23.5t-91 10v68h643v-68q-62 -4 -92.5 -10t-53 -23.5t-28.5 -46.5t-6 -82zM1059 1833h88q-16 -98 -93.5 -162.5t-203.5 -64.5q-125 0 -202 64.5t-93 162.5h90q14 -44 71.5 -68t133.5 -24q77 0 136 24t73 68z" />
    <glyph glyph-name="ubreve" unicode="&#x16d;" horiz-adv-x="1196" 
d="M651 737v62l283 166h90v-799q0 -50 25.5 -69.5t101.5 -26.5v-70q-181 0 -375 -31v101q-66 -42 -150.5 -71.5t-160.5 -29.5q-45 0 -85 7t-82 27t-72 52t-49 87t-19 126v406q0 35 -13.5 49t-44.5 14h-69v62l284 166h91v-701q0 -155 145 -155q113 0 225 75v490q0 35 -13 49
t-44 14h-68zM799 1354h88q-16 -98 -93.5 -163t-203.5 -65q-125 0 -202 65t-93 163h90q14 -44 71.5 -68t133.5 -24q77 0 136 24t73 68z" />
    <glyph glyph-name="Uring" unicode="&#x16e;" horiz-adv-x="1570" 
d="M647 1688q0 85 59.5 144.5t145.5 59.5q85 0 145 -59.5t60 -144.5q0 -83 -60 -143t-145 -60q-86 0 -145.5 59.5t-59.5 143.5zM743 1688q0 -46 31.5 -78.5t77.5 -32.5t78.5 32.5t32.5 78.5t-32.5 78t-78.5 32t-77.5 -32t-31.5 -78zM500 1204v-778q0 -169 102 -252.5
t264 -83.5t259.5 90t97.5 262v762q0 53 -6.5 82t-29.5 46.5t-53.5 23.5t-91.5 10v68h492v-68q-61 -4 -91 -10t-53 -23.5t-29.5 -46.5t-6.5 -82v-764q0 -217 -142 -344t-399 -127q-285 0 -440.5 120.5t-155.5 352.5v762q0 53 -6.5 82t-29.5 46.5t-53 23.5t-91 10v68h643v-68
q-62 -4 -92.5 -10t-53 -23.5t-28.5 -46.5t-6 -82z" />
    <glyph glyph-name="uring" unicode="&#x16f;" horiz-adv-x="1196" 
d="M385 1260q0 85 59.5 144.5t145.5 59.5q85 0 145 -59.5t60 -144.5q0 -83 -60 -143t-145 -60q-86 0 -145.5 59.5t-59.5 143.5zM481 1260q0 -46 31.5 -78.5t77.5 -32.5t78 32.5t32 78.5t-32 78t-78 32t-77.5 -32t-31.5 -78zM651 737v62l283 166h90v-799q0 -50 25.5 -69.5
t101.5 -26.5v-70q-181 0 -375 -31v101q-66 -42 -150.5 -71.5t-160.5 -29.5q-45 0 -85 7t-82 27t-72 52t-49 87t-19 126v406q0 35 -13.5 49t-44.5 14h-69v62l284 166h91v-701q0 -155 145 -155q113 0 225 75v490q0 35 -13 49t-44 14h-68z" />
    <glyph glyph-name="Uhungarumlaut" unicode="&#x170;" horiz-adv-x="1570" 
d="M500 1204v-778q0 -169 102 -252.5t264 -83.5t259.5 90t97.5 262v762q0 53 -6.5 82t-29.5 46.5t-53.5 23.5t-91.5 10v68h492v-68q-61 -4 -91 -10t-53 -23.5t-29.5 -46.5t-6.5 -82v-764q0 -217 -142 -344t-399 -127q-285 0 -440.5 120.5t-155.5 352.5v762q0 53 -6.5 82
t-29.5 46.5t-53 23.5t-91 10v68h643v-68q-62 -4 -92.5 -10t-53 -23.5t-28.5 -46.5t-6 -82zM633 1516l80 299q8 28 19.5 37.5t39.5 9.5h123q18 0 29.5 -10t11.5 -25q0 -26 -35 -70l-182 -241h-86zM940 1516l84 299q7 28 20.5 37.5t42.5 9.5h115q18 0 29.5 -10t11.5 -25
q0 -26 -35 -70l-182 -241h-86z" />
    <glyph glyph-name="uhungarumlaut" unicode="&#x171;" horiz-adv-x="1196" 
d="M651 737v62l283 166h90v-799q0 -50 25.5 -69.5t101.5 -26.5v-70q-181 0 -375 -31v101q-66 -42 -150.5 -71.5t-160.5 -29.5q-45 0 -85 7t-82 27t-72 52t-49 87t-19 126v406q0 35 -13.5 49t-44.5 14h-69v62l284 166h91v-701q0 -155 145 -155q113 0 225 75v490q0 35 -13 49
t-44 14h-68zM358 1036l80 299q7 28 19.5 37.5t40.5 9.5h123q19 0 30 -9.5t11 -24.5q0 -26 -35 -70l-183 -242h-86zM666 1036l84 299q7 28 20.5 37.5t42.5 9.5h115q19 0 30 -9.5t11 -24.5q0 -26 -35 -70l-182 -242h-86z" />
    <glyph glyph-name="Uogonek" unicode="&#x172;" horiz-adv-x="1570" 
d="M500 1204v-778q0 -169 102 -252.5t264 -83.5t259.5 90t97.5 262v762q0 53 -6.5 82t-29.5 46.5t-53.5 23.5t-91.5 10v68h492v-68q-61 -4 -91 -10t-53 -23.5t-29.5 -46.5t-6.5 -82v-764q0 -164 -83 -278.5t-237 -161.5h4q-60 -36 -93.5 -86.5t-33.5 -108.5q0 -48 33 -80
t78 -32q81 0 127 82l74 -39q-43 -78 -102.5 -116t-147.5 -38q-102 0 -165 51.5t-63 135.5q0 120 121 202q-16 -2 -53 -2q-285 0 -440.5 120.5t-155.5 352.5v762q0 53 -6.5 82t-29.5 46.5t-53 23.5t-91 10v68h643v-68q-62 -4 -92.5 -10t-53 -23.5t-28.5 -46.5t-6 -82z" />
    <glyph glyph-name="uogonek" unicode="&#x173;" horiz-adv-x="1196" 
d="M651 737v62l283 166h90v-799q0 -50 25.5 -69.5t101.5 -26.5v-70h-2q-60 -36 -93.5 -86.5t-33.5 -108.5q0 -48 33 -80t78 -32q81 0 127 82l73 -39q-43 -78 -102.5 -116t-147.5 -38q-102 0 -164.5 51.5t-62.5 135.5q0 73 44.5 131.5t119.5 97.5q-130 -9 -244 -29v101
q-66 -42 -150.5 -71.5t-160.5 -29.5q-45 0 -85 7t-82 27t-72 52t-49 87t-19 126v406q0 35 -13.5 49t-44.5 14h-69v62l284 166h91v-701q0 -155 145 -155q113 0 225 75v490q0 35 -13 49t-44 14h-68z" />
    <glyph glyph-name="Wcircumflex" unicode="&#x174;" horiz-adv-x="2002" 
d="M680 1513l207 312q27 41 69 41h91q42 0 69 -41l207 -312h-102l-220 201l-219 -201h-102zM571 1366q-110 -7 -137.5 -40.5t-1.5 -121.5l248 -786l252 792q-29 87 -58 118t-98 38v68h592v-68q-107 -8 -136 -41t-3 -121l250 -786l247 786q28 88 0 121.5t-135 40.5v68h432
v-68q-68 -8 -101.5 -41t-61.5 -121l-375 -1204h-174l-314 999l-309 -999h-174l-377 1204q-28 90 -58.5 122.5t-98.5 39.5v68h591v-68z" />
    <glyph glyph-name="wcircumflex" unicode="&#x175;" horiz-adv-x="1583" 
d="M467 1034l207 312q27 40 69 40h91q42 0 69 -40l207 -312h-102l-220 201l-219 -201h-102zM1010 0l-222 582l-219 -582h-172l-268 705q-33 90 -58.5 122t-86.5 39v68h497v-68q-89 -7 -105.5 -40t17.5 -121l160 -418l176 452q-29 64 -56 92.5t-75 34.5v68h498v-68
q-89 -7 -106.5 -40t16.5 -121l157 -418l160 418q31 88 8 120.5t-112 40.5v68h378v-68q-55 -7 -85.5 -41t-63.5 -120l-266 -705h-172z" />
    <glyph glyph-name="Ycircumflex" unicode="&#x176;" horiz-adv-x="1339" 
d="M350 70q62 4 91.5 9.5t52.5 22.5t29.5 45.5t6.5 81.5v308l-370 667q-48 91 -81.5 123t-98.5 39v68h600v-68q-99 -7 -122 -47.5t23 -122.5l275 -494l268 496q46 86 22 123t-124 45v68h438v-68q-70 -7 -106.5 -40t-82.5 -122l-358 -659v-316q0 -53 6.5 -81.5t29.5 -45.5
t52.5 -22.5t91.5 -9.5v-70h-643v70zM348 1513l207 312q27 41 70 41h90q42 0 69 -41l207 -312h-102l-219 201l-219 -201h-103z" />
    <glyph glyph-name="ycircumflex" unicode="&#x177;" horiz-adv-x="985" 
d="M850 705l-356 -879q-46 -115 -123.5 -174.5t-180.5 -59.5q-87 0 -147.5 42.5t-60.5 109.5q0 50 33.5 83.5t84.5 33.5q32 0 58 -15.5t40.5 -34t35.5 -34t45 -15.5q66 0 112 115l35 86l-293 742q-19 49 -28.5 70t-27 45t-39 33t-54.5 13v68h510v-68q-92 -7 -109.5 -40
t18.5 -121l158 -410l164 410q32 88 9.5 120.5t-105.5 40.5v68h372v-68q-56 -7 -87 -41.5t-64 -119.5zM172 1034l207 312q27 40 70 40h90q42 0 69 -40l207 -312h-102l-219 201l-220 -201h-102z" />
    <glyph glyph-name="Ydieresis" unicode="&#x178;" horiz-adv-x="1339" 
d="M350 70q62 4 91.5 9.5t52.5 22.5t29.5 45.5t6.5 81.5v308l-370 667q-48 91 -81.5 123t-98.5 39v68h600v-68q-99 -7 -122 -47.5t23 -122.5l275 -494l268 496q46 86 22 123t-124 45v68h438v-68q-70 -7 -106.5 -40t-82.5 -122l-358 -659v-316q0 -53 6.5 -81.5t29.5 -45.5
t52.5 -22.5t91.5 -9.5v-70h-643v70zM346 1739q0 50 36 87.5t93 37.5q59 0 95 -37.5t36 -87.5t-36 -86.5t-95 -36.5q-58 0 -93.5 36.5t-35.5 86.5zM729 1739q0 50 35 87.5t94 37.5t95 -37.5t36 -87.5t-36 -86.5t-95 -36.5t-94 36.5t-35 86.5z" />
    <glyph glyph-name="Zacute" unicode="&#x179;" horiz-adv-x="1343" 
d="M600 1516l180 309q18 37 64 37h145q37 0 37 -35q0 -28 -51 -70l-273 -241h-102zM57 70l836 1249h-219q-187 0 -304.5 -62.5t-219.5 -203.5l-58 28l127 353h1036v-68l-835 -1249h239q108 0 196.5 22.5t159 68t122.5 96.5t112 126l58 -35l-199 -395h-1051v70z" />
    <glyph glyph-name="zacute" unicode="&#x17a;" horiz-adv-x="993" 
d="M420 1036l180 310q17 36 64 36h145q37 0 37 -34q0 -28 -51 -70l-273 -242h-102zM45 70l539 764h-107q-126 0 -207 -44.5t-143 -152.5l-64 22l80 275h760v-68l-536 -764h147q73 0 133.5 18t107.5 53.5t81.5 74t72.5 94.5l60 -29l-133 -313h-791v70z" />
    <glyph glyph-name="Zdotaccent" unicode="&#x17b;" horiz-adv-x="1343" 
d="M57 70l836 1249h-219q-187 0 -304.5 -62.5t-219.5 -203.5l-58 28l127 353h1036v-68l-835 -1249h239q108 0 196.5 22.5t159 68t122.5 96.5t112 126l58 -35l-199 -395h-1051v70zM547 1739q0 50 35 87.5t94 37.5q57 0 93 -37.5t36 -87.5t-35.5 -86.5t-93.5 -36.5
q-59 0 -94 36.5t-35 86.5z" />
    <glyph glyph-name="zdotaccent" unicode="&#x17c;" horiz-adv-x="993" 
d="M45 70l539 764h-107q-126 0 -207 -44.5t-143 -152.5l-64 22l80 275h760v-68l-536 -764h147q73 0 133.5 18t107.5 53.5t81.5 74t72.5 94.5l60 -29l-133 -313h-791v70zM358 1260q0 50 35 87t94 37q58 0 93.5 -37t35.5 -87t-35.5 -86.5t-93.5 -36.5q-59 0 -94 36.5t-35 86.5
z" />
    <glyph glyph-name="Zcaron" unicode="&#x17d;" horiz-adv-x="1343" 
d="M561 1556l-207 310h103l219 -201l219 201h102l-206 -310q-27 -43 -70 -43h-90q-43 0 -70 43zM57 70l836 1249h-219q-187 0 -304.5 -62.5t-219.5 -203.5l-58 28l127 353h1036v-68l-835 -1249h239q108 0 196.5 22.5t159 68t122.5 96.5t112 126l58 -35l-199 -395h-1051v70z
" />
    <glyph glyph-name="zcaron" unicode="&#x17e;" horiz-adv-x="993" 
d="M373 1077l-207 309h102l219 -200l220 200h102l-207 -309q-27 -43 -70 -43h-90q-42 0 -69 43zM45 70l539 764h-107q-126 0 -207 -44.5t-143 -152.5l-64 22l80 275h760v-68l-536 -764h147q73 0 133.5 18t107.5 53.5t81.5 74t72.5 94.5l60 -29l-133 -313h-791v70z" />
    <glyph glyph-name="longs" unicode="&#x17f;" horiz-adv-x="636" 
d="M557 0h-510v70q76 7 100.5 26.5t24.5 69.5v661h-125v107h125v82q0 138 58 241t154.5 155t217.5 52q89 0 145 -36.5t56 -98.5q0 -55 -34 -90t-89 -35q-39 0 -65.5 21t-38 45.5t-30 45.5t-42.5 21q-38 0 -61 -36t-23 -99v-1036q0 -49 29.5 -68.5t107.5 -27.5v-70z" />
    <glyph glyph-name="florin" unicode="&#x192;" horiz-adv-x="1196" 
d="M90 698v103h324l55 215q54 210 190 329t318 119q89 0 145 -36.5t56 -98.5q0 -55 -34 -90t-89 -35q-39 0 -65.5 21t-37.5 45.5t-29 45.5t-42 21q-40 0 -71 -36t-46 -99l-102 -401h342v-103h-367l-160 -641q-57 -228 -193 -346.5t-315 -118.5q-92 0 -149 39t-56 111
q-1 46 34.5 80.5t82.5 34.5q39 0 66.5 -21.5t39.5 -47.5t30.5 -47.5t41.5 -21.5q38 0 71 35.5t50 100.5l209 843h-299z" />
    <glyph glyph-name="AEacute" unicode="&#x1fc;" horiz-adv-x="2205" 
d="M1102 1516l180 309q18 37 64 37h145q37 0 37 -35q0 -28 -51 -70l-273 -241h-102zM1366 117h160q104 0 195 23t165.5 66.5t134.5 98t117 125.5l57 -35l-198 -395h-1155v70q62 4 91.5 9.5t52.5 22.5t29.5 45.5t6.5 81.5v193h-549l-137 -197q-44 -68 -13.5 -107.5
t123.5 -47.5v-70h-473v70q119 6 226 159l768 1100q-44 27 -176 37v68h1204l127 -353l-58 -28q-101 139 -225.5 202.5t-314.5 63.5h-158q-28 0 -44.5 -17t-16.5 -45v-450h286q55 0 91 12t55 38t27 57t10 79h75v-489h-75q-2 48 -10 79t-27 57t-55 38t-91 12h-286v-512
q0 -29 16.5 -45t44.5 -16zM1022 537v667l-469 -667h469z" />
    <glyph glyph-name="aeacute" unicode="&#x1fd;" horiz-adv-x="1636" 
d="M745 1036l181 310q17 36 63 36h146q36 0 36 -34q0 -28 -51 -70l-272 -242h-103zM563 965q203 0 271 -144q115 144 315 144q202 0 316 -111.5t114 -310.5h-651q-2 -25 -2 -76q0 -188 67.5 -286.5t218.5 -98.5q94 0 174.5 60.5t131.5 170.5l94 -51q-135 -293 -426 -293
q-284 0 -422 181q-88 -73 -198.5 -125t-227.5 -52q-127 0 -202 61.5t-75 166.5q0 48 17 90t46.5 74t75 59.5t94 48t113.5 38.5t125.5 30.5t135.5 25.5v109q0 106 -26.5 147t-100.5 41q-75 0 -119 -34t-66 -109q-34 -111 -131 -111q-44 0 -71 28.5t-27 82.5
q0 103 121.5 173.5t314.5 70.5zM719 223q-51 105 -51 244q-84 -14 -143 -30.5t-107.5 -42t-72 -62.5t-23.5 -86q0 -63 35.5 -94t93.5 -31q127 0 268 102zM1153 862q-98 0 -148.5 -52.5t-68.5 -158.5h403q0 99 -51 155t-135 56z" />
    <glyph glyph-name="Oslashacute" unicode="&#x1fe;" horiz-adv-x="1579" 
d="M731 1516l180 309q18 37 64 37h145q37 0 37 -35q0 -28 -51 -70l-272 -241h-103zM78 717q0 221 85 389.5t247.5 263t380.5 94.5q263 0 446 -141l94 111h139l-155 -183q188 -204 188 -534q0 -221 -85 -389.5t-247.5 -263.5t-379.5 -95q-264 0 -449 142l-94 -111h-139
l153 180q-184 203 -184 537zM1196 717q0 210 -43 346l-682 -801q100 -182 320 -182q405 0 405 637zM385 717q0 -208 41 -344l682 798q-100 183 -317 183q-112 0 -192.5 -46.5t-126 -134t-66.5 -199.5t-21 -257z" />
    <glyph glyph-name="oslashacute" unicode="&#x1ff;" horiz-adv-x="1136" 
d="M61 467q0 218 140 358t368 140q173 0 301 -88l52 57h137l-111 -123q127 -140 127 -344q0 -217 -139.5 -357.5t-366.5 -140.5q-175 0 -303 86l-51 -55h-135l110 121q-129 138 -129 346zM322 467q0 -98 16 -180l422 467q-60 108 -191 108q-247 0 -247 -395zM815 467
q0 96 -16 178l-422 -467q61 -106 192 -106t188.5 102.5t57.5 292.5zM494 1036l180 310q17 36 63 36h146q37 0 37 -34q0 -27 -52 -70l-272 -242h-102z" />
    <glyph glyph-name="Scommaaccent" unicode="&#x218;" horiz-adv-x="1388" 
d="M563 -233q0 51 35.5 87.5t93.5 36.5t93.5 -40t35.5 -105q0 -66 -41 -138.5t-92 -123.5l-41 33q38 79 51 123q-64 0 -99.5 36t-35.5 91zM387 1151q0 -56 31.5 -98.5t85.5 -69.5t123 -49t146 -42.5t154 -43.5t146 -58t123 -80.5t85.5 -116.5t31.5 -161q0 -135 -76.5 -241.5
t-209 -164t-296.5 -57.5q-245 0 -434 107l-33 -76h-80l-123 451l64 20q91 -183 248 -287t346 -104q138 0 232 72t93 180q0 79 -51 134.5t-131.5 87.5t-178 59t-195 59.5t-178 77.5t-131 125t-50.5 190q0 120 69.5 212t185 139.5t255.5 47.5q239 0 395 -96l29 66h80l112 -406
l-61 -18q-78 164 -213.5 254t-318.5 90q-127 0 -201 -57t-74 -146z" />
    <glyph glyph-name="scommaaccent" unicode="&#x219;" horiz-adv-x="972" 
d="M358 -233q0 51 35.5 87.5t93.5 36.5t93.5 -40t35.5 -105q0 -66 -41 -138.5t-92 -123.5l-41 33q41 85 52 123q-64 0 -100 36t-36 91zM311 756q0 -42 34 -72.5t88.5 -48.5t120.5 -35t131.5 -39.5t120 -54t88.5 -86.5t34 -129q0 -147 -112 -234.5t-284 -87.5
q-93 0 -180.5 27t-142.5 67l-25 -63h-63l-74 324l55 16q172 -270 422 -270q79 0 132 36t53 103q0 46 -34.5 78.5t-90 52t-123 36.5t-134.5 39.5t-122.5 53t-90 84.5t-34.5 127q0 122 104 203.5t260 81.5q170 0 281 -82l23 51h63l59 -283l-59 -18q-68 119 -158 177t-188 58
q-73 0 -113.5 -31.5t-40.5 -80.5z" />
    <glyph glyph-name="uni021A" unicode="&#x21a;" horiz-adv-x="1392" 
d="M563 -233q0 51 35.5 87.5t93.5 36.5t93.5 -40t35.5 -105q0 -66 -41 -138.5t-92 -123.5l-41 33q38 79 51 123q-64 0 -99.5 36t-35.5 91zM551 229v1028q0 28 -16.5 45t-45.5 17q-134 0 -223 -58.5t-180 -205.5l-59 26l145 398h70q16 -45 63 -45h785q48 0 63 45h70l143 -398
l-59 -26q-88 145 -183 204.5t-229 59.5q-29 0 -45 -17t-16 -45v-1028q0 -53 6.5 -81.5t29.5 -45.5t52.5 -22.5t91.5 -9.5v-70h-643v70q62 4 91.5 9.5t52.5 22.5t29.5 45.5t6.5 81.5z" />
    <glyph glyph-name="uni021B" unicode="&#x21b;" horiz-adv-x="686" 
d="M223 -233q0 51 35.5 87.5t93.5 36.5t93.5 -40t35.5 -105q0 -66 -41 -138.5t-92 -123.5l-41 33q38 79 51 123q-64 0 -99.5 36t-35.5 91zM639 115v-103q-86 -39 -205 -39q-134 0 -205 59t-71 201v594h-127v60q123 45 189 130t95 224h91v-307h233v-107h-233v-596
q0 -141 112 -141q66 0 121 25z" />
    <glyph glyph-name="dotlessj" unicode="&#x237;" horiz-adv-x="571" 
d="M-10 -408q-91 0 -148 39t-57 111q0 46 37 80.5t84 34.5q39 0 66.5 -21.5t40 -47.5t31 -47.5t40.5 -21.5q40 0 64 35t24 101v819q0 35 -13 49t-44 14h-68v62l285 166h88v-908q0 -225 -121 -345t-309 -120z" />
    <glyph glyph-name="hsuperior" unicode="&#x2b0;" horiz-adv-x="919" 
d="M907 567h-409v64q55 6 72.5 19.5t17.5 47.5v377q0 54 -28.5 79.5t-76.5 25.5q-75 0 -151 -50v-432q0 -34 18.5 -47.5t73.5 -19.5v-64h-410v64q53 6 70.5 19.5t17.5 47.5v736q0 25 -8.5 35t-30.5 10h-49v59l236 127h82v-434q50 32 114.5 54t122.5 22q248 0 248 -238v-371
q0 -34 17.5 -47.5t72.5 -19.5v-64z" />
    <glyph glyph-name="circumflex" unicode="&#x2c6;" horiz-adv-x="1079" 
d="M217 1034l207 312q27 40 70 40h90q42 0 69 -40l207 -312h-102l-219 201l-220 -201h-102z" />
    <glyph glyph-name="caron" unicode="&#x2c7;" horiz-adv-x="1079" 
d="M424 1077l-207 309h102l220 -200l219 200h102l-207 -309q-27 -43 -69 -43h-90q-43 0 -70 43z" />
    <glyph glyph-name="breve" unicode="&#x2d8;" horiz-adv-x="1079" 
d="M748 1354h88q-16 -98 -93.5 -163t-203.5 -65q-125 0 -202 65t-93 163h90q14 -44 71.5 -68t133.5 -24q77 0 136 24t73 68z" />
    <glyph glyph-name="dotaccent" unicode="&#x2d9;" horiz-adv-x="1048" 
d="M395 1260q0 50 35 87t94 37q58 0 93.5 -37t35.5 -87t-35.5 -86.5t-93.5 -36.5q-59 0 -94 36.5t-35 86.5z" />
    <glyph glyph-name="ring" unicode="&#x2da;" horiz-adv-x="1048" 
d="M319 1260q0 85 59.5 144.5t145.5 59.5q85 0 145 -59.5t60 -144.5q0 -83 -60 -143t-145 -60q-86 0 -145.5 59.5t-59.5 143.5zM416 1260q0 -46 31.5 -78.5t76.5 -32.5q46 0 78.5 32.5t32.5 78.5t-32.5 78t-78.5 32t-77 -32t-31 -78z" />
    <glyph glyph-name="ogonek" unicode="&#x2db;" horiz-adv-x="1079" 
d="M662 0h120q-60 -36 -93.5 -86.5t-33.5 -108.5q0 -48 33 -80t78 -32q81 0 127 82l74 -39q-43 -78 -102.5 -116t-147.5 -38q-102 0 -165 51.5t-63 135.5q0 74 47 133t126 98z" />
    <glyph glyph-name="tilde" unicode="&#x2dc;" horiz-adv-x="1079" 
d="M758 1356h78q-7 -117 -58 -172.5t-123 -55.5q-35 0 -72 16t-63.5 35.5t-58.5 35.5t-58 16q-28 0 -50 -20.5t-29 -63.5h-80q7 117 57.5 172t120.5 55q45 0 92.5 -25.5t89.5 -51t74 -25.5q28 0 50.5 20.5t29.5 63.5z" />
    <glyph glyph-name="hungarumlaut" unicode="&#x2dd;" horiz-adv-x="1079" 
d="M309 1036l80 299q7 28 19.5 37.5t40.5 9.5h122q19 0 30 -9.5t11 -24.5q0 -27 -34 -70l-183 -242h-86zM616 1036l84 299q7 27 20.5 37t43.5 10h115q19 0 30 -9.5t11 -24.5q0 -26 -35 -70l-183 -242h-86z" />
    <glyph glyph-name="uni0312" unicode="&#x312;" horiz-adv-x="1048" 
d="M666 1227q0 -52 -35.5 -88.5t-93.5 -36.5t-93.5 40t-35.5 105q0 66 41 138.5t92 123.5l41 -32q-41 -85 -52 -123q64 0 100 -36t36 -91z" />
    <glyph glyph-name="uni0394" unicode="&#x394;" horiz-adv-x="1406" 
d="M616 1434h185l549 -1434h-1280zM618 1116l-380 -999h768z" />
    <glyph glyph-name="uni03A9" unicode="&#x3a9;" horiz-adv-x="1583" 
d="M1456 -45h-76q0 45 -41 45h-471v229q176 148 253 297.5t77 352.5q0 477 -405 477q-406 0 -406 -477q0 -204 76.5 -353t253.5 -297v-229h-471q-41 0 -41 -45h-76l-51 432h76q12 -57 22 -88.5t26 -47.5t32 -20t47 -4h268q-469 301 -469 668q0 256 192 412.5t521 156.5
q328 0 520 -156.5t192 -412.5q0 -367 -469 -668h267q32 0 48 3.5t32 20.5t25.5 47.5t21.5 88.5h75z" />
    <glyph glyph-name="uni03BC" unicode="&#x3bc;" horiz-adv-x="1157" 
d="M500 -31q-125 0 -207 76q22 -48 61 -111t61.5 -108t22.5 -80q0 -70 -42 -112t-105 -42q-62 0 -104 42.5t-42 111.5v1188h248v-670q0 -79 39 -117t107 -38q112 0 227 75q-2 25 -2 74v676h248v-744q0 -96 61 -96q27 0 68 21v-90q-74 -50 -174 -50q-146 0 -189 109
q-51 -50 -124.5 -82.5t-153.5 -32.5z" />
    <glyph glyph-name="pi" unicode="&#x3c0;" horiz-adv-x="1157" 
d="M213 -31q-79 0 -129.5 35.5t-50.5 101.5q0 41 32.5 73t75.5 32q35 0 58.5 -17.5t33 -39t26 -39t38.5 -17.5q40 0 64 35t24 100v480h-33q-67 0 -104 -38t-37 -97h-94q0 50 8.5 96.5t32.5 95t61 84t99 58t141 22.5h409q196 0 271 33v-74q-35 -69 -85.5 -109.5t-146.5 -56.5
v-539q0 -94 62 -94q26 0 67 21v-90q-59 -50 -153 -50q-183 0 -183 183v555h-202v-410q0 -70 -15.5 -128.5t-48 -105.5t-89 -73.5t-132.5 -26.5z" />
    <glyph glyph-name="Wgrave" unicode="&#x1e80;" horiz-adv-x="2002" 
d="M571 1366q-110 -7 -137.5 -40.5t-1.5 -121.5l248 -786l252 792q-29 87 -58 118t-98 38v68h592v-68q-107 -8 -136 -41t-3 -121l250 -786l247 786q28 88 0 121.5t-135 40.5v68h432v-68q-68 -8 -101.5 -41t-61.5 -121l-375 -1204h-174l-314 999l-309 -999h-174l-377 1204
q-28 90 -58.5 122.5t-98.5 39.5v68h591v-68zM897 1825l178 -309h-100l-275 241q-28 24 -39.5 39t-11.5 31q0 35 37 35h148q42 0 63 -37z" />
    <glyph glyph-name="wgrave" unicode="&#x1e81;" horiz-adv-x="1583" 
d="M1010 0l-222 582l-219 -582h-172l-268 705q-33 90 -58.5 122t-86.5 39v68h497v-68q-89 -7 -105.5 -40t17.5 -121l160 -418l176 452q-29 64 -56 92.5t-75 34.5v68h498v-68q-89 -7 -106.5 -40t16.5 -121l157 -418l160 418q31 88 8 120.5t-112 40.5v68h378v-68
q-55 -7 -85.5 -41t-63.5 -120l-266 -705h-172zM688 1346l178 -310h-100l-274 242q-29 25 -40.5 39.5t-11.5 30.5q0 34 37 34h148q43 0 63 -36z" />
    <glyph glyph-name="Wacute" unicode="&#x1e82;" horiz-adv-x="2002" 
d="M903 1516l180 309q18 37 64 37h145q37 0 37 -35q0 -28 -51 -70l-272 -241h-103zM571 1366q-110 -7 -137.5 -40.5t-1.5 -121.5l248 -786l252 792q-29 87 -58 118t-98 38v68h592v-68q-107 -8 -136 -41t-3 -121l250 -786l247 786q28 88 0 121.5t-135 40.5v68h432v-68
q-68 -8 -101.5 -41t-61.5 -121l-375 -1204h-174l-314 999l-309 -999h-174l-377 1204q-28 90 -58.5 122.5t-98.5 39.5v68h591v-68z" />
    <glyph glyph-name="wacute" unicode="&#x1e83;" horiz-adv-x="1583" 
d="M723 1036l180 310q17 36 64 36h145q37 0 37 -34q0 -28 -51 -70l-273 -242h-102zM1010 0l-222 582l-219 -582h-172l-268 705q-33 90 -58.5 122t-86.5 39v68h497v-68q-89 -7 -105.5 -40t17.5 -121l160 -418l176 452q-29 64 -56 92.5t-75 34.5v68h498v-68q-89 -7 -106.5 -40
t16.5 -121l157 -418l160 418q31 88 8 120.5t-112 40.5v68h378v-68q-55 -7 -85.5 -41t-63.5 -120l-266 -705h-172z" />
    <glyph glyph-name="Wdieresis" unicode="&#x1e84;" horiz-adv-x="2002" 
d="M676 1739q0 50 36 87.5t93 37.5q59 0 95 -37.5t36 -87.5t-36 -86.5t-95 -36.5q-58 0 -93.5 36.5t-35.5 86.5zM1059 1739q0 50 35 87.5t94 37.5t95 -37.5t36 -87.5t-36 -86.5t-95 -36.5t-94 36.5t-35 86.5zM571 1366q-110 -7 -137.5 -40.5t-1.5 -121.5l248 -786l252 792
q-29 87 -58 118t-98 38v68h592v-68q-107 -8 -136 -41t-3 -121l250 -786l247 786q28 88 0 121.5t-135 40.5v68h432v-68q-68 -8 -101.5 -41t-61.5 -121l-375 -1204h-174l-314 999l-309 -999h-174l-377 1204q-28 90 -58.5 122.5t-98.5 39.5v68h591v-68z" />
    <glyph glyph-name="wdieresis" unicode="&#x1e85;" horiz-adv-x="1583" 
d="M467 1260q0 50 35.5 87t93.5 37q59 0 95 -37t36 -87t-36 -86.5t-95 -36.5q-58 0 -93.5 36.5t-35.5 86.5zM850 1260q0 50 35 87t94 37t95 -37t36 -87t-36 -86.5t-95 -36.5t-94 36.5t-35 86.5zM1010 0l-222 582l-219 -582h-172l-268 705q-33 90 -58.5 122t-86.5 39v68h497
v-68q-89 -7 -105.5 -40t17.5 -121l160 -418l176 452q-29 64 -56 92.5t-75 34.5v68h498v-68q-89 -7 -106.5 -40t16.5 -121l157 -418l160 418q31 88 8 120.5t-112 40.5v68h378v-68q-55 -7 -85.5 -41t-63.5 -120l-266 -705h-172z" />
    <glyph glyph-name="uni1E9E" unicode="&#x1e9e;" horiz-adv-x="1562" 
d="M1378 1274l-323 -449h6q193 0 324 -117t131 -300q0 -189 -135 -314t-353 -125q-156 0 -280 82l45 90q80 -59 180 -59q118 0 176.5 90.5t58.5 235.5q0 136 -78.5 223.5t-195.5 87.5q-85 0 -156 -39l-47 68l373 518q-83 77 -246 77t-260.5 -104.5t-97.5 -327.5v-682
q0 -53 6 -81.5t29 -45.5t52.5 -22.5t92.5 -9.5v-70h-643v70q62 4 91.5 9.5t52.5 22.5t29.5 45.5t6.5 81.5v643q0 184 81.5 319.5t222.5 204t325 68.5q336 0 532 -190z" />
    <glyph glyph-name="Ygrave" unicode="&#x1ef2;" horiz-adv-x="1339" 
d="M350 70q62 4 91.5 9.5t52.5 22.5t29.5 45.5t6.5 81.5v308l-370 667q-48 91 -81.5 123t-98.5 39v68h600v-68q-99 -7 -122 -47.5t23 -122.5l275 -494l268 496q46 86 22 123t-124 45v68h438v-68q-70 -7 -106.5 -40t-82.5 -122l-358 -659v-316q0 -53 6.5 -81.5t29.5 -45.5
t52.5 -22.5t91.5 -9.5v-70h-643v70zM641 1825l178 -309h-100l-275 241q-28 24 -39.5 39t-11.5 31q0 35 37 35h148q42 0 63 -37z" />
    <glyph glyph-name="ygrave" unicode="&#x1ef3;" horiz-adv-x="985" 
d="M850 705l-356 -879q-46 -115 -123.5 -174.5t-180.5 -59.5q-87 0 -147.5 42.5t-60.5 109.5q0 50 33.5 83.5t84.5 33.5q32 0 58 -15.5t40.5 -34t35.5 -34t45 -15.5q66 0 112 115l35 86l-293 742q-19 49 -28.5 70t-27 45t-39 33t-54.5 13v68h510v-68q-92 -7 -109.5 -40
t18.5 -121l158 -410l164 410q32 88 9.5 120.5t-105.5 40.5v68h372v-68q-56 -7 -87 -41.5t-64 -119.5zM440 1346l178 -310h-100l-274 242q-28 24 -39.5 39t-11.5 31q0 34 36 34h148q43 0 63 -36z" />
    <glyph glyph-name="endash" unicode="&#x2013;" horiz-adv-x="1144" 
d="M18 416v102h1108v-102h-1108z" />
    <glyph glyph-name="emdash" unicode="&#x2014;" horiz-adv-x="1699" 
d="M18 416v102h1663v-102h-1663z" />
    <glyph glyph-name="quoteleft" unicode="&#x2018;" horiz-adv-x="520" 
d="M422 1014q0 -64 -45 -111t-119 -47t-119 50.5t-45 129.5q0 99 71 228t157 211l53 -45q-103 -134 -129 -254q84 0 130 -46.5t46 -115.5z" />
    <glyph glyph-name="quoteright" unicode="&#x2019;" horiz-adv-x="520" 
d="M96 1307q0 64 45 110.5t119 46.5t119 -50.5t45 -129.5q0 -99 -70.5 -227.5t-156.5 -210.5l-54 45q103 134 129 254q-84 0 -130 46.5t-46 115.5z" />
    <glyph glyph-name="quotesinglbase" unicode="&#x201a;" horiz-adv-x="520" 
d="M96 137q0 64 45 111t119 47t119 -50.5t45 -129.5q0 -99 -70.5 -228t-156.5 -211l-54 45q103 134 129 254q-84 0 -130 46.5t-46 115.5z" />
    <glyph glyph-name="quotedblleft" unicode="&#x201c;" horiz-adv-x="942" 
d="M846 1014q0 -64 -45 -111t-119 -47t-119 50.5t-45 129.5q0 99 70.5 228t156.5 211l54 -45q-103 -134 -129 -254q84 0 130 -46.5t46 -115.5zM422 1014q0 -64 -45 -111t-119 -47t-119 50.5t-45 129.5q0 99 71 228t157 211l53 -45q-103 -134 -129 -254q84 0 130 -46.5
t46 -115.5z" />
    <glyph glyph-name="quotedblright" unicode="&#x201d;" horiz-adv-x="942" 
d="M518 1307q0 64 45 110.5t119 46.5t119 -50.5t45 -129.5q0 -99 -71 -227t-157 -211l-53 45q103 134 129 254q-84 0 -130 46.5t-46 115.5zM96 1307q0 64 45 110.5t119 46.5t119 -50.5t45 -129.5q0 -99 -70.5 -227.5t-156.5 -210.5l-54 45q103 134 129 254q-84 0 -130 46.5
t-46 115.5z" />
    <glyph glyph-name="quotedblbase" unicode="&#x201e;" horiz-adv-x="942" 
d="M518 137q0 64 45 111t119 47t119 -50.5t45 -129.5q0 -99 -71 -228t-157 -211l-53 45q103 134 129 254q-84 0 -130 46.5t-46 115.5zM96 137q0 64 45 111t119 47t119 -50.5t45 -129.5q0 -99 -70.5 -228t-156.5 -211l-54 45q103 134 129 254q-84 0 -130 46.5t-46 115.5z" />
    <glyph glyph-name="dagger" unicode="&#x2020;" horiz-adv-x="841" 
d="M506 1374q0 -33 -26 -110t-36 -148q72 9 149.5 35.5t108.5 26.5q42 0 67.5 -25t25.5 -61t-25.5 -60t-67.5 -24q-31 0 -108.5 25t-149.5 34q7 -43 18 -70t20.5 -36t16.5 -23.5t7 -36.5q0 -89 -27 -340.5t-57 -251.5t-58 252.5t-28 339.5q0 27 10.5 41.5t25.5 42.5t23 82
q-70 -9 -146.5 -34t-109.5 -25q-40 0 -65 24t-25 60t25 61t65 25q32 0 109 -26.5t147 -35.5q-9 71 -34 148.5t-25 109.5q0 40 25 65t61 25t60 -25t24 -65z" />
    <glyph glyph-name="daggerdbl" unicode="&#x2021;" horiz-adv-x="841" 
d="M506 1374q0 -33 -26 -110t-36 -148q72 9 149.5 35.5t108.5 26.5q42 0 67.5 -25t25.5 -61t-25.5 -60t-67.5 -24q-31 0 -108.5 25t-149.5 34q7 -43 18 -70t20.5 -36t16.5 -23.5t7 -36.5q0 -66 -26.5 -211t-57.5 -145t-58.5 145.5t-27.5 210.5q0 27 10.5 41.5t25.5 42.5
t23 82q-70 -9 -146.5 -34t-109.5 -25q-40 0 -65 24t-25 60t25 61t65 25q32 0 109 -26.5t147 -35.5q-9 71 -34 148.5t-25 109.5q0 40 25 65t61 25t60 -25t24 -65zM336 -317q0 32 25 109.5t34 148.5q-71 -9 -148 -35.5t-108 -26.5q-40 0 -65 25t-25 61t25 61t65 25
q32 0 109.5 -25.5t146.5 -35.5q-8 53 -23 81t-25.5 43t-10.5 42q0 66 27.5 209t58.5 143t57.5 -142.5t26.5 -209.5q0 -27 -11 -42t-27 -43t-24 -81q71 10 148.5 35.5t109.5 25.5q41 0 67 -25t26 -61t-25.5 -61t-64.5 -25q-32 0 -110.5 26.5t-150.5 35.5q10 -71 36 -148
t26 -110q0 -41 -24 -66t-60 -25t-61 25.5t-25 65.5z" />
    <glyph glyph-name="bullet" unicode="&#x2022;" horiz-adv-x="595" 
d="M49 477q0 104 73 177t177 73q103 0 176.5 -73t73.5 -177q0 -103 -73.5 -176.5t-176.5 -73.5q-104 0 -177 73.5t-73 176.5z" />
    <glyph glyph-name="ellipsis" unicode="&#x2026;" horiz-adv-x="1558" 
d="M96 137q0 64 45 111t119 47q72 0 118 -47t46 -111q0 -67 -45.5 -114.5t-118.5 -47.5q-74 0 -119 47.5t-45 114.5zM614 137q0 64 45 111t119 47q72 0 118 -47t46 -111q0 -67 -45.5 -114.5t-118.5 -47.5q-74 0 -119 47.5t-45 114.5zM1135 137q0 65 44.5 111.5t118.5 46.5
q72 0 118 -47t46 -111q0 -67 -45.5 -114.5t-118.5 -47.5q-74 0 -118.5 47.5t-44.5 114.5z" />
    <glyph glyph-name="perthousand" unicode="&#x2030;" horiz-adv-x="2582" 
d="M51 1004q0 215 89 331.5t251 116.5t251 -116.5t89 -331.5t-89 -332t-251 -117t-251 117t-89 332zM258 1004q0 -102 5.5 -168t20 -114.5t40.5 -69.5t67 -21q79 0 107 85t28 288q0 205 -28 288.5t-107 83.5t-106 -83t-27 -289zM377 0l938 1434h108l-938 -1434h-108z
M1069 430q0 215 89 332t251 117t251 -117t89 -332t-89 -331.5t-251 -116.5t-251 116.5t-89 331.5zM1276 430q0 -102 5.5 -168t20 -114.5t40.5 -69.5t67 -21q79 0 107 85t28 288q0 205 -28 289t-107 84t-106 -83.5t-27 -289.5zM1851 430q0 215 89 332t251 117t251 -117
t89 -332t-89 -331.5t-251 -116.5t-251 116.5t-89 331.5zM2058 430q0 -102 5.5 -168t20 -114.5t40.5 -69.5t67 -21q79 0 107.5 85.5t28.5 287.5q0 204 -28.5 288.5t-107.5 84.5t-106 -83.5t-27 -289.5z" />
    <glyph glyph-name="guilsinglleft" unicode="&#x2039;" horiz-adv-x="649" 
d="M547 63l-51 -38l-363 383q-31 31 -31 69q0 41 31 72l363 381l51 -37l-189 -416z" />
    <glyph glyph-name="guilsinglright" unicode="&#x203a;" horiz-adv-x="649" 
d="M154 25l-52 38l189 414l-189 416l52 37l362 -381q31 -31 31 -72q0 -38 -31 -69z" />
    <glyph glyph-name="fraction" unicode="&#x2044;" horiz-adv-x="235" 
d="M-406 0l938 1434h109l-938 -1434h-109z" />
    <glyph glyph-name="zerosuperior" unicode="&#x2070;" horiz-adv-x="782" 
d="M51 1004q0 215 89 331.5t251 116.5t251 -116.5t89 -331.5t-89 -332t-251 -117t-251 117t-89 332zM258 1004q0 -102 5.5 -168t20 -114.5t40.5 -69.5t67 -21q79 0 107 85t28 288q0 205 -28 288.5t-107 83.5t-106 -83t-27 -289z" />
    <glyph glyph-name="foursuperior" unicode="&#x2074;" horiz-adv-x="782" 
d="M590 573h-199v205h-342v64l402 610h139v-590h145v-84h-145v-205zM391 1200l-225 -338h225v338z" />
    <glyph glyph-name="fivesuperior" unicode="&#x2075;" horiz-adv-x="782" 
d="M369 1145q159 0 255.5 -79t96.5 -204q0 -132 -98.5 -219.5t-266.5 -87.5q-69 0 -133.5 14t-112 48.5t-47.5 82.5q0 38 25.5 64.5t61.5 26.5q35 0 60 -15.5t40 -37.5t30.5 -44t41.5 -37.5t63 -15.5q78 0 126 44.5t48 117.5q0 77 -64.5 127.5t-172.5 50.5q-113 0 -179 -35
l-55 21l72 467h407q31 0 37 26h62l-25 -188h-418l-22 -150q79 23 168 23z" />
    <glyph glyph-name="sixsuperior" unicode="&#x2076;" horiz-adv-x="782" 
d="M637 1452v-76q-58 -4 -109 -20t-100 -47t-86.5 -85.5t-58.5 -127.5q77 34 153 34q138 0 216.5 -85t78.5 -195q0 -118 -95 -206.5t-245 -88.5q-158 0 -249 105t-91 284q0 98 34.5 181t92 140.5t134 98.5t158 62t167.5 26zM373 1044q-60 0 -109 -36q-6 -50 -6 -107
q0 -135 29.5 -202.5t103.5 -67.5q70 0 102.5 59.5t32.5 159.5q0 87 -40 140.5t-113 53.5z" />
    <glyph glyph-name="sevensuperior" unicode="&#x2077;" horiz-adv-x="782" 
d="M426 573h-205q27 195 115.5 374t212.5 313h-322q-39 0 -54 -14t-28 -70h-59l33 284h61q0 -26 29 -26h493v-101q-239 -298 -276 -760z" />
    <glyph glyph-name="eightsuperior" unicode="&#x2078;" horiz-adv-x="782" 
d="M694 1251q0 -69 -36.5 -113t-102.5 -77q83 -38 130.5 -94t47.5 -154q0 -115 -93.5 -186.5t-260.5 -71.5q-147 0 -236.5 66.5t-89.5 164.5q0 75 41 124.5t115 88.5q-117 74 -117 222q0 96 85 163.5t231 67.5q134 0 210 -59.5t76 -141.5zM182 780q0 -66 50.5 -107.5
t136.5 -41.5q78 0 120.5 36.5t42.5 96.5q0 22 -6 41t-13 32.5t-23.5 27.5t-27.5 22t-35.5 19.5t-37 16.5t-42 16t-40.5 15q-59 -31 -92 -72t-33 -102zM293 1253q0 -57 38.5 -89t114.5 -60q63 30 97.5 66.5t34.5 91.5q0 51 -38.5 82.5t-105.5 31.5q-64 0 -102.5 -32
t-38.5 -91z" />
    <glyph glyph-name="ninesuperior" unicode="&#x2079;" horiz-adv-x="782" 
d="M145 555v76q58 4 110 20t100.5 47.5t86 85.5t58.5 127q-76 -32 -152 -32q-140 0 -218.5 84.5t-78.5 195.5q0 118 95 205.5t245 87.5q158 0 249 -105t91 -284q0 -99 -34.5 -181.5t-91.5 -139.5t-133.5 -98t-158 -62t-168.5 -27zM412 965q57 0 106 36q8 62 8 105
q0 135 -30 203.5t-105 68.5q-69 0 -101 -59.5t-32 -159.5q0 -88 40.5 -141t113.5 -53z" />
    <glyph glyph-name="minussuperior" unicode="&#x207b;" horiz-adv-x="782" 
d="M37 969v73h708v-73h-708z" />
    <glyph glyph-name="parenleftsuperior" unicode="&#x207d;" horiz-adv-x="458" 
d="M51 1008q0 106 30 199.5t82.5 165t114 124.5t134.5 94l32 -41q-99 -74 -162 -221t-63 -321q0 -172 62.5 -318t162.5 -225l-32 -41q-73 41 -134.5 94.5t-114 125t-82.5 165t-30 199.5z" />
    <glyph glyph-name="parenrightsuperior" unicode="&#x207e;" horiz-adv-x="458" 
d="M408 1008q0 -106 -30 -199.5t-82.5 -165t-114.5 -125.5t-136 -94l-31 41q100 79 163 225t63 318q0 174 -63.5 321t-162.5 221l31 41q74 -41 136 -94t114.5 -124.5t82.5 -165t30 -199.5z" />
    <glyph glyph-name="nsuperior" unicode="&#x207f;" horiz-adv-x="919" 
d="M907 567h-409v64q55 6 72.5 19.5t17.5 47.5v377q0 54 -28.5 79.5t-76.5 25.5q-75 0 -151 -50v-432q0 -34 18.5 -47.5t73.5 -19.5v-64h-410v64q53 6 70.5 19.5t17.5 47.5v377q0 25 -8.5 35t-30.5 10h-49v58l236 129h82v-76q50 32 114.5 54t122.5 22q248 0 248 -238v-371
q0 -34 17.5 -47.5t72.5 -19.5v-64z" />
    <glyph glyph-name="zeroinferior" unicode="&#x2080;" horiz-adv-x="782" 
d="M51 53q0 215 89 332t251 117t251 -117t89 -332t-89 -331.5t-251 -116.5t-251 116.5t-89 331.5zM258 53q0 -205 27 -290t106 -85t107 85.5t28 289.5q0 205 -28 289t-107 84t-106 -83.5t-27 -289.5z" />
    <glyph glyph-name="oneinferior" unicode="&#x2081;" horiz-adv-x="782" 
d="M594 -377h-404v53q65 5 84 19t19 65v537q0 19 -7 27t-24 8h-72v51l230 119h72v-742q0 -51 19 -65t83 -19v-53z" />
    <glyph glyph-name="twoinferior" unicode="&#x2082;" horiz-adv-x="782" 
d="M174 209h-88q0 135 83 214t224 79q127 0 207 -70t80 -180q0 -237 -385 -455h274q40 0 54.5 14t27.5 70h62l-35 -284h-60q0 26 -30 26h-492v101q83 59 145.5 113.5t118.5 121t85.5 141t29.5 152.5q0 76 -36 120t-105 44q-71 0 -115.5 -53t-44.5 -154z" />
    <glyph glyph-name="threeinferior" unicode="&#x2083;" horiz-adv-x="782" 
d="M668 309q0 -63 -42.5 -112t-119.5 -74q95 -14 155 -76t60 -149q0 -127 -97.5 -210t-269.5 -83q-70 0 -134 14t-110.5 48t-46.5 81q0 39 24.5 64.5t59.5 25.5q36 0 61 -15.5t39 -37t27.5 -43.5t36.5 -37.5t56 -15.5q78 0 112.5 46t34.5 134q0 83 -52.5 134.5t-150.5 51.5
h-22v84h22q73 0 112.5 38.5t39.5 107.5q0 60 -33 95.5t-92 35.5q-62 0 -105 -42t-49 -120h-88q11 118 86.5 183t206.5 65q132 0 205.5 -53.5t73.5 -139.5z" />
    <glyph glyph-name="fourinferior" unicode="&#x2084;" horiz-adv-x="782" 
d="M590 -377h-199v203h-342v63l402 613h139v-590h145v-86h-145v-203zM391 250l-225 -338h225v338z" />
    <glyph glyph-name="fiveinferior" unicode="&#x2085;" horiz-adv-x="782" 
d="M369 195q159 0 255.5 -79.5t96.5 -205.5q0 -131 -98.5 -218t-266.5 -87q-69 0 -133.5 14t-112 48t-47.5 81q0 39 25.5 64.5t61.5 25.5q35 0 60 -15.5t40 -37t30.5 -43.5t41.5 -37.5t63 -15.5q78 0 126 44t48 117q0 77 -65 129t-172 52q-115 0 -179 -37l-55 22l72 467h407
q30 0 37 27h62l-25 -188h-418l-22 -150q79 23 168 23z" />
    <glyph glyph-name="sixinferior" unicode="&#x2086;" horiz-adv-x="782" 
d="M637 502v-76q-58 -4 -109 -20t-100 -47.5t-86.5 -86t-58.5 -127.5q79 35 153 35q94 0 163 -43t100.5 -106t31.5 -133q0 -118 -95 -205.5t-245 -87.5q-158 0 -249 105t-91 284q0 98 34.5 181t92 140.5t134 98.5t158 62t167.5 26zM373 94q-59 0 -109 -37q-6 -49 -6 -106
q0 -135 29.5 -204t103.5 -69q70 0 102.5 60.5t32.5 159.5q0 89 -40 142.5t-113 53.5z" />
    <glyph glyph-name="seveninferior" unicode="&#x2087;" horiz-adv-x="782" 
d="M426 -377h-205q27 195 115 373.5t213 312.5h-322q-39 0 -54 -14t-28 -70h-59l33 285h61q0 -27 29 -27h493v-100q-239 -298 -276 -760z" />
    <glyph glyph-name="eightinferior" unicode="&#x2088;" horiz-adv-x="782" 
d="M53 -164q0 75 41 124.5t115 88.5q-56 36 -86.5 87.5t-30.5 133.5q0 96 85 164t231 68q134 0 210 -59.5t76 -141.5q0 -69 -36.5 -113t-102.5 -77q83 -38 130.5 -94t47.5 -154q0 -115 -93.5 -186.5t-260.5 -71.5q-147 0 -236.5 66.5t-89.5 164.5zM182 -170
q0 -67 50.5 -109.5t136.5 -42.5q77 0 120 37.5t43 96.5q0 22 -6 41.5t-13 33.5t-23.5 28t-27.5 22t-35.5 19.5t-36.5 16t-42 16t-41 15.5q-60 -34 -92.5 -73.5t-32.5 -100.5zM293 303q0 -57 38.5 -89t114.5 -60q64 30 98 66t34 91q0 51 -38.5 83t-105.5 32q-64 0 -102.5 -32
t-38.5 -91z" />
    <glyph glyph-name="nineinferior" unicode="&#x2089;" horiz-adv-x="782" 
d="M145 -395v76q124 7 219.5 72.5t135.5 205.5q-89 -33 -152 -33q-72 0 -130 25t-93.5 66t-54.5 90.5t-19 101.5q0 118 95 205.5t245 87.5q158 0 249 -105t91 -284q0 -99 -34.5 -181.5t-91.5 -140t-133.5 -98.5t-158.5 -62t-168 -26zM412 14q56 0 106 37q8 62 8 105
q0 135 -30 203.5t-105 68.5q-69 0 -101 -59.5t-32 -159.5q0 -88 40.5 -141.5t113.5 -53.5z" />
    <glyph glyph-name="parenleftinferior" unicode="&#x208d;" horiz-adv-x="458" 
d="M51 57q0 106 30 199.5t82.5 165t114 125t134.5 94.5l32 -41q-99 -74 -162 -221t-63 -322q0 -174 62.5 -319.5t162.5 -222.5l-32 -41q-73 41 -134.5 94t-114 124.5t-82.5 165t-30 199.5z" />
    <glyph glyph-name="parenrightinferior" unicode="&#x208e;" horiz-adv-x="458" 
d="M408 57q0 -106 -30 -199.5t-82.5 -165t-114.5 -124.5t-136 -94l-31 41q100 78 163 223.5t63 318.5q0 174 -63.5 321.5t-162.5 221.5l31 41q74 -40 136 -94t114.5 -125.5t82.5 -165t30 -199.5z" />
    <glyph glyph-name="colonmonetary" unicode="&#x20a1;" horiz-adv-x="1302" 
d="M309 -61l60 215q-137 81 -214 227t-77 336q0 290 175 469.5t458 179.5h2l37 129h108l-39 -137q62 -10 107 -27l47 164h108l-45 -156h84l99 -356l-64 -18q-72 131 -166 204l-282 -999h28q148 0 258 85t150 214l108 -35q-136 -368 -540 -368h-35l-35 -127h-109l39 139
q-66 14 -106 28l-47 -167h-109zM377 717q0 -212 55 -342l250 885q-305 -40 -305 -543zM508 256q43 -43 96 -63l293 1034q-54 25 -106 33z" />
    <glyph glyph-name="cruzeiro" unicode="&#x20a2;" horiz-adv-x="1427" 
d="M1323 750q0 -61 -30 -97.5t-76 -36.5q-32 0 -56 16t-36.5 34.5t-30 34.5t-37.5 16q-67 0 -125 -76v-543q121 34 209 120.5t123 205.5l112 -39q-150 -416 -600 -416q-205 0 -364 94.5t-246.5 264.5t-87.5 389q0 164 51 303t142.5 236.5t221.5 152.5t283 55q208 0 346 -96
l29 66h80l112 -406l-65 -20q-85 162 -207 254t-270 92q-110 0 -191.5 -46.5t-130 -133.5t-71.5 -200.5t-23 -256.5q0 -122 17 -223t52 -183.5t93 -138t137 -78.5v508q0 35 -13 49.5t-44 14.5h-60v61l285 166h80v-125q47 56 111 90.5t128 34.5q74 0 113 -39t39 -104z" />
    <glyph glyph-name="franc" unicode="&#x20a3;" horiz-adv-x="1323" 
d="M47 346v115h180v743q0 53 -6.5 82t-29.5 46.5t-53 23.5t-91 10v68h1153l127 -353l-57 -28q-101 139 -226 202.5t-315 63.5h-158q-28 0 -44.5 -17t-16.5 -45v-450h287q105 0 141 44t41 142h76v-489h-76q-5 98 -41 142t-141 44h-287v-229h186v-115h-186v-117
q0 -35 2.5 -58.5t12 -41.5t20.5 -27.5t34.5 -16.5t47.5 -9.5t67 -5.5v-70h-647v70q62 4 91.5 9.5t52.5 22.5t29.5 45.5t6.5 81.5v117h-180z" />
    <glyph glyph-name="peseta" unicode="&#x20a7;" horiz-adv-x="1521" 
d="M49 1004v116h180v84q0 37 -2 60t-10.5 41.5t-19 28t-33.5 16.5t-47.5 10t-67.5 6v68h709q279 0 438.5 -73.5t183.5 -240.5h142v-116h-142q-13 -95 -60 -158.5t-130.5 -98.5t-187 -49t-248.5 -14h-242v-455q0 -53 6.5 -81.5t29.5 -45.5t52.5 -22.5t91.5 -9.5v-70h-643v70
q62 4 91.5 9.5t52.5 22.5t29.5 45.5t6.5 81.5v775h-180zM754 801q289 0 317 203h-559v-203h242zM512 1257v-137h559q-28 199 -313 199h-185q-29 0 -45 -17t-16 -45z" />
    <glyph glyph-name="Euro" unicode="&#x20ac;" horiz-adv-x="1196" 
d="M68 797v102h116q39 274 184.5 419.5t352.5 145.5q170 0 278.5 -90.5t108.5 -210.5q0 -90 -50.5 -146t-125.5 -56q-62 0 -99.5 37t-37.5 89q0 54 31.5 86t78.5 37q31 7 31 23q0 52 -51.5 88.5t-132.5 36.5q-136 0 -197 -112.5t-72 -346.5h383v-102h-387v-80q0 -63 2 -92
h385v-103h-379q17 -218 86.5 -327t196.5 -109q189 0 285 229l98 -53q-130 -293 -418 -293q-215 0 -362 141.5t-187 411.5h-118v103h108q-4 58 -4 92q0 55 2 80h-106z" />
    <glyph glyph-name="afii61289" unicode="&#x2113;" horiz-adv-x="849" 
d="M362 815v-219q248 221 248 455q0 79 -32.5 129.5t-85.5 50.5q-70 0 -100 -100t-30 -316zM201 487v185q0 164 17.5 271t44.5 161t75 104q86 92 194 92q91 0 147 -65t56 -184q0 -67 -26.5 -136t-63.5 -122t-90.5 -108t-93.5 -89.5t-86 -71.5q-9 -7 -13 -10v-131
q0 -279 166 -279q123 0 220 127l38 -36q-131 -220 -327 -220q-125 0 -189 80q-69 79 -69 277v76l-113 -84l-25 49z" />
    <glyph glyph-name="published" unicode="&#x2117;" horiz-adv-x="1597" 
d="M51 717q0 152 59.5 290t159.5 238.5t238.5 159.5t290.5 59t290 -59t238.5 -159.5t159.5 -238.5t59 -290t-59 -290.5t-159.5 -238.5t-238.5 -159.5t-290 -59.5q-203 0 -375 100.5t-272.5 272.5t-100.5 375zM131 717q0 -182 89.5 -335.5t243 -243t335.5 -89.5q137 0 261 53
t213 142.5t142 213t53 259.5q0 137 -53 261t-142 213t-213 142t-261 53q-136 0 -259.5 -53t-213 -142t-142.5 -213t-53 -261zM1022 924q0 80 -44.5 109.5t-127.5 29.5h-76q-37 0 -37 -37v-250h99q92 0 139 33.5t47 114.5zM831 291h-415v55q60 5 78 19.5t18 64.5v582
q0 51 -17 65t-79 19v55h424q207 0 307 -50t100 -177q0 -133 -100.5 -184.5t-310.5 -51.5h-99v-258q0 -50 17 -64.5t77 -19.5v-55z" />
    <glyph glyph-name="trademark" unicode="&#x2122;" horiz-adv-x="1009" 
d="M981 1004h-211v28q30 3 38.5 10t8.5 31v262l-121 -331h-39l-120 331v-262q0 -24 8 -31t37 -10v-28h-142v28q29 3 37 10t8 31v291q0 25 -8 32.5t-37 10.5v27h187l86 -236l84 236h184v-27q-29 -3 -38 -10.5t-9 -32.5v-291q0 -24 9 -31t38 -10v-28zM156 1073v299
q0 19 -19 19q-58 0 -108 -80l-25 10l41 127h27q7 -14 20 -14h246q17 0 20 14h29l37 -127l-25 -10q-47 80 -106 80q-19 0 -19 -19v-299q0 -24 8 -31t37 -10v-28h-210v28q29 3 38 10t9 31z" />
    <glyph glyph-name="Omega" unicode="&#x2126;" horiz-adv-x="1583" 
d="M1456 -45h-76q0 45 -41 45h-471v229q176 148 253 297.5t77 352.5q0 477 -405 477q-406 0 -406 -477q0 -204 76.5 -353t253.5 -297v-229h-471q-41 0 -41 -45h-76l-51 432h76q12 -57 22 -88.5t26 -47.5t32 -20t47 -4h268q-469 301 -469 668q0 256 192 412.5t521 156.5
q328 0 520 -156.5t192 -412.5q0 -367 -469 -668h267q32 0 48 3.5t32 20.5t25.5 47.5t21.5 88.5h75z" />
    <glyph glyph-name="estimated" unicode="&#x212e;" horiz-adv-x="1724" 
d="M1661 664h-1294q-11 0 -11 -11v-389q0 -28 19 -47q94 -99 221.5 -155t269.5 -56q152 0 284 62.5t228 173.5h117q-111 -130 -277 -204.5t-356 -74.5q-162 0 -310 57t-255 153t-170.5 229.5t-63.5 279.5t63.5 279.5t170.5 229.5t255 153t310 57t310 -57t255 -153
t170.5 -229.5t63.5 -279.5v-18zM1368 715v391q0 29 -20 49q-94 96 -219 149.5t-263 53.5q-141 0 -267.5 -55.5t-221.5 -153.5q-21 -21 -21 -49v-385q0 -13 11 -13h993q8 0 8 13z" />
    <glyph glyph-name="partialdiff" unicode="&#x2202;" horiz-adv-x="1124" 
d="M1063 584q0 -284 -135.5 -449.5t-364.5 -165.5q-233 0 -373.5 140.5t-140.5 357.5q0 216 135 357t346 141q132 0 238 -82q-15 228 -64 330t-137 102q-27 0 -51.5 -18t-42 -39.5t-44.5 -39.5t-58 -18q-51 0 -82 30.5t-31 78.5q0 69 51 112t152 43q121 0 230 -60t192 -170
t131.5 -278.5t48.5 -371.5zM780 522q0 102 -4 242q-94 98 -219 98q-82 0 -133 -50t-71.5 -136t-20.5 -213q0 -391 231 -391q61 0 103.5 31t67 91.5t35.5 140t11 187.5z" />
    <glyph glyph-name="Delta" unicode="&#x2206;" horiz-adv-x="1406" 
d="M616 1434h185l549 -1434h-1280zM618 1116l-380 -999h768z" />
    <glyph glyph-name="product" unicode="&#x220f;" horiz-adv-x="1640" 
d="M1589 0h-643v70q62 4 91.5 9.5t52.5 22.5t29.5 45.5t6.5 81.5v1028q0 28 -16.5 45t-44.5 17h-490q-28 0 -44.5 -17t-16.5 -45v-1028q0 -53 6.5 -81.5t29.5 -45.5t52.5 -22.5t91.5 -9.5v-70h-643v70q62 4 91.5 9.5t52.5 22.5t29.5 45.5t6.5 81.5v975q0 53 -6.5 82
t-29.5 46.5t-53 23.5t-91 10v68h1538v-68q-61 -4 -91 -10t-53 -23.5t-29.5 -46.5t-6.5 -82v-975q0 -53 6.5 -81.5t29.5 -45.5t52.5 -22.5t91.5 -9.5v-70z" />
    <glyph glyph-name="summation" unicode="&#x2211;" horiz-adv-x="1298" 
d="M332 227h368q161 0 254.5 18t156.5 59.5t130 125.5l57 -35l-198 -395h-1049v70l432 618l-426 678v68h1041l127 -353l-58 -28q-101 139 -223.5 202.5t-310.5 63.5h-209l319 -502z" />
    <glyph glyph-name="minus" unicode="&#x2212;" horiz-adv-x="1144" 
d="M18 662v116h1108v-116h-1108z" />
    <glyph glyph-name="radical" unicode="&#x221a;" horiz-adv-x="1144" 
d="M18 451v116h301l170 -413l531 1280h127l-594 -1434h-127l-186 451h-222z" />
    <glyph glyph-name="infinity" unicode="&#x221e;" horiz-adv-x="1751" 
d="M1317 309q-81 0 -149 23.5t-122 69t-92.5 92.5t-81.5 114q-43 -67 -81.5 -114t-91.5 -92.5t-119.5 -69t-145.5 -23.5q-163 0 -282 119.5t-119 288.5t119 288t282 119q80 0 148 -23.5t122 -69t93 -92.5t82 -114q43 67 81.5 114t91.5 92.5t119.5 69t145.5 23.5
q164 0 282.5 -119t118.5 -288t-118.5 -288.5t-282.5 -119.5zM1317 1010q-65 0 -120 -22t-101 -66t-79.5 -88t-74.5 -111q34 -55 59 -91t62 -78t72 -66.5t82.5 -41t99.5 -16.5q120 0 202.5 83.5t82.5 203.5q0 122 -82.5 207.5t-202.5 85.5zM434 426q52 0 99.5 16t82.5 40
t72 65t62 76t59 88q-34 55 -59 91t-62 78t-72 66.5t-82.5 41t-99.5 16.5q-120 0 -202 -83t-82 -204t82.5 -206t201.5 -85z" />
    <glyph glyph-name="integral" unicode="&#x222b;" horiz-adv-x="536" 
d="M393 1575v-1518q0 -114 -34 -204t-93 -146.5t-136 -85.5t-167 -29q-91 0 -148 39t-57 111q0 46 36 80.5t83 34.5q39 0 66.5 -21.5t40 -47.5t31 -47.5t40.5 -21.5q41 0 65.5 35t24.5 101v1534q0 207 121 327.5t307 120.5q89 0 145 -36.5t56 -98.5q0 -54 -33.5 -89.5
t-87.5 -35.5q-39 0 -66.5 21t-38.5 45.5t-29 45.5t-42 21q-40 0 -62 -36t-22 -99z" />
    <glyph glyph-name="approxequal" unicode="&#x2248;" horiz-adv-x="1144" 
d="M1126 606v-108q-107 43 -198 43q-88 0 -162 -15t-129.5 -37t-112 -44t-135 -37t-172.5 -15q-91 0 -199 35v109q95 -41 199 -41q88 0 163 15t131 37t112.5 43.5t134.5 36.5t172 15q97 0 196 -37zM1126 1012v-109q-107 43 -198 43q-88 0 -162 -15t-129.5 -37t-112 -43.5
t-135 -36.5t-172.5 -15q-91 0 -199 35v108q95 -41 199 -41q88 0 163 15t131 37t112.5 44t134.5 37t172 15q97 0 196 -37z" />
    <glyph glyph-name="notequal" unicode="&#x2260;" horiz-adv-x="1144" 
d="M18 864v117h566l84 291h120l-83 -291h421v-117h-454l-82 -289h536v-116h-569l-82 -295h-121l82 295h-418v116h451l82 289h-533z" />
    <glyph glyph-name="lessequal" unicode="&#x2264;" horiz-adv-x="1144" 
d="M1085 340v-127l-1024 422v127l1024 424v-127l-870 -361zM18 0v111h1108v-111h-1108z" />
    <glyph glyph-name="greaterequal" unicode="&#x2265;" horiz-adv-x="1144" 
d="M61 213v127l869 358l-869 361v127l1022 -424v-127zM1126 111v-111h-1108v111h1108z" />
    <glyph glyph-name="lozenge" unicode="&#x25ca;" horiz-adv-x="1144" 
d="M86 717l424 717h127l422 -717l-422 -717h-127zM213 717l358 -611l361 611l-361 610z" />
    <glyph glyph-name="commaaccent" unicode="&#xf6c3;" horiz-adv-x="1048" 
d="M408 -233q0 51 35.5 87.5t93.5 36.5t93.5 -40t35.5 -105q0 -66 -41.5 -138.5t-92.5 -123.5l-40 33q38 79 51 123q-64 0 -99.5 36t-35.5 91z" />
    <glyph glyph-name="rupiah" unicode="&#xf6dd;" horiz-adv-x="2537" 
d="M1892 -377h-499v68q76 7 100.5 27t24.5 71v211h-394l-460 684h-150v-455q0 -53 6.5 -81.5t29.5 -45.5t52.5 -22.5t91.5 -9.5v-70h-643v70q62 4 91.5 9.5t52.5 22.5t29.5 45.5t6.5 81.5v975q0 36 -2 59t-10 41.5t-19 28t-33.5 17t-47.5 10.5t-68 6v68h709q149 0 260 -19
t195.5 -61t127.5 -115t43 -176q0 -165 -111.5 -254t-309.5 -109l348 -507q38 -59 83 -87.5t122 -35.5v604q0 35 -13.5 49t-44.5 14h-74v62l291 166h88v-101q106 101 271 101q195 0 312.5 -138t117.5 -360q0 -223 -122.5 -360.5t-336.5 -137.5q-149 0 -242 80v-260
q0 -51 25.5 -71t101.5 -27v-68zM1962 848q-127 0 -197 -98v-566q70 -98 197 -98q128 0 186 97t58 284t-58 284t-186 97zM1079 1063q0 136 -80.5 196t-238.5 60h-185q-28 0 -44.5 -17t-16.5 -45v-456h242q161 0 242 62t81 200z" />
    <glyph glyph-name="dollarsuperior" unicode="&#xf6e4;" horiz-adv-x="782" 
d="M365 436v119q-108 11 -172 57l-17 -39h-59l-74 275l47 14q57 -108 128 -169.5t147 -61.5v305q-118 49 -159 76q-115 76 -116 207q0 90 76.5 157.5t206.5 73.5v57h67v-57q81 -10 127 -49l17 33h57l68 -246l-45 -14q-51 100 -104.5 149.5t-119.5 52.5v-278q121 -49 160 -72
q127 -84 131 -213q0 -109 -80.5 -180t-218.5 -78v-119h-67zM541 764q0 48 -28 80t-81 61v-268q52 13 80.5 47.5t28.5 79.5zM274 1251q0 -75 99 -125v242q-45 -11 -72 -41.5t-27 -75.5z" />
    <glyph glyph-name="hyphensuperior" unicode="&#xf6e6;" horiz-adv-x="378" 
d="M18 950v113h342v-113h-342z" />
    <glyph glyph-name="periodsuperior" unicode="&#xf6e8;" horiz-adv-x="440" 
d="M96 674q0 47 33 82t90 35t91 -35t34 -82t-34 -82t-91 -35t-90 35t-33 82z" />
    <glyph glyph-name="asuperior" unicode="&#xf6e9;" horiz-adv-x="876" 
d="M684 549q-141 0 -162 98q-139 -100 -262 -100q-97 0 -155 47.5t-58 124.5q0 52 27.5 94.5t71 71.5t108.5 53t126.5 38.5t139.5 27.5v90q0 72 -19.5 100.5t-72.5 28.5q-49 0 -77.5 -23.5t-47.5 -79.5q-15 -43 -47.5 -65.5t-75.5 -22.5q-38 0 -62 24t-24 68q0 79 103.5 131
t259.5 52q61 0 112 -12t92.5 -38t65 -72t23.5 -108v-364q0 -60 43 -60q22 0 47 11v-76q-64 -39 -156 -39zM373 676q67 0 147 55v191q-123 -21 -184.5 -55t-61.5 -99q0 -43 28 -67.5t71 -24.5z" />
    <glyph glyph-name="bsuperior" unicode="&#xf6ea;" horiz-adv-x="915" 
d="M14 1479v59l236 127h82v-428q83 70 203 70q153 0 250.5 -106t97.5 -275q0 -172 -103 -276.5t-276 -104.5q-133 0 -213 71l-101 -71h-88v887q0 26 -8.5 36.5t-30.5 10.5h-49zM469 1200q-90 0 -137 -72v-405q47 -74 137 -74q176 0 176 277q0 137 -42.5 205.5t-133.5 68.5z
" />
    <glyph glyph-name="dsuperior" unicode="&#xf6eb;" horiz-adv-x="915" 
d="M492 1479v59l235 127h84v-967q0 -34 17.5 -47.5t72.5 -19.5v-64q-173 0 -319 -22v67q-76 -67 -201 -67q-153 0 -250.5 106t-97.5 275t97.5 275t250.5 106q124 0 201 -68v195q0 25 -9 35t-32 10h-49zM444 651q90 0 138 70v407q-47 74 -138 74q-176 0 -176 -276
q0 -275 176 -275z" />
    <glyph glyph-name="esuperior" unicode="&#xf6ec;" horiz-adv-x="823" 
d="M795 969h-525q-2 -14 -2 -43q0 -281 211 -281q72 0 142 45.5t108 124.5l84 -47q-114 -223 -360 -223q-192 0 -306 107t-114 274q0 165 111 273t284 108t270 -90.5t97 -247.5zM426 1217q-122 0 -147 -148h274q0 71 -33.5 109.5t-93.5 38.5z" />
    <glyph glyph-name="isuperior" unicode="&#xf6ed;" horiz-adv-x="436" 
d="M424 567h-410v64q53 6 70.5 19.5t17.5 47.5v377q0 25 -8.5 35t-30.5 10h-49v58l236 129h82v-609q0 -34 18.5 -47.5t73.5 -19.5v-64zM90 1532q0 49 36 87t97 38q60 0 96.5 -38t36.5 -87t-36.5 -86t-96.5 -37q-61 0 -97 37t-36 86z" />
    <glyph glyph-name="lsuperior" unicode="&#xf6ee;" horiz-adv-x="436" 
d="M424 567h-410v64q53 6 70.5 19.5t17.5 47.5v736q0 25 -8.5 35t-30.5 10h-49v59l236 127h82v-967q0 -34 18.5 -47.5t73.5 -19.5v-64z" />
    <glyph glyph-name="msuperior" unicode="&#xf6ef;" horiz-adv-x="1402" 
d="M907 567h-409v64q55 6 72.5 19.5t17.5 47.5v377q0 54 -28.5 79.5t-76.5 25.5q-75 0 -151 -50v-432q0 -34 18.5 -47.5t73.5 -19.5v-64h-410v64q53 6 70.5 19.5t17.5 47.5v377q0 25 -8.5 35t-30.5 10h-49v58l236 129h82v-76q50 32 114.5 54t122.5 22q157 0 215 -97
q52 41 128.5 69t140.5 28q245 0 245 -238v-371q0 -34 18.5 -47.5t72.5 -19.5v-64h-408v64q53 6 70.5 19.5t17.5 47.5v377q0 105 -104 105q-80 0 -154 -52q6 -54 6 -59v-371q0 -34 17.5 -47.5t72.5 -19.5v-64z" />
    <glyph glyph-name="osuperior" unicode="&#xf6f0;" horiz-adv-x="882" 
d="M33 926q0 167 111 274t296 107q187 0 299.5 -107t112.5 -274t-112.5 -274t-299.5 -107q-185 0 -296 107t-111 274zM268 926q0 -143 39.5 -218t132.5 -75q95 0 133.5 74.5t38.5 218.5t-38.5 217.5t-133.5 73.5q-93 0 -132.5 -74t-39.5 -217z" />
    <glyph glyph-name="rsuperior" unicode="&#xf6f1;" horiz-adv-x="675" 
d="M666 1186q0 -53 -31 -85t-74 -32q-31 0 -53 12.5t-32 27.5t-24.5 27.5t-31.5 12.5q-48 0 -88 -49v-402q0 -34 18.5 -47.5t73.5 -19.5v-64h-410v64q53 6 70.5 19.5t17.5 47.5v377q0 25 -8.5 35t-30.5 10h-49v58l236 129h82v-95q38 42 90.5 68.5t105.5 26.5q64 0 101 -32.5
t37 -88.5z" />
    <glyph glyph-name="ssuperior" unicode="&#xf6f2;" horiz-adv-x="751" 
d="M272 1145q0 -38 46.5 -64t113.5 -44.5t133.5 -42.5t113 -73t46.5 -122q0 -116 -91 -183t-231 -67q-70 0 -138 18t-107 45l-19 -45h-57l-55 250l49 14q61 -95 147 -144.5t174 -49.5q53 0 87 24t34 66q0 30 -26 52.5t-67 37t-90.5 28.5t-99.5 32.5t-91 43t-67 65.5t-26 95
q0 97 86 159.5t213 62.5t215 -58l19 39h55l47 -223l-55 -17q-50 85 -120 130t-138 45q-48 0 -74.5 -21t-26.5 -53z" />
    <glyph glyph-name="tsuperior" unicode="&#xf6f3;" horiz-adv-x="530" 
d="M508 1184h-176v-432q0 -105 86 -105q48 0 90 17v-91q-80 -26 -168 -26q-116 0 -177 47t-61 160v430h-88v57q97 35 154 102.5t82 172.5h82v-232h176v-100z" />
    <glyph glyph-name="uniF8FF" unicode="&#xf8ff;" horiz-adv-x="2381" 
d="M176 526q45 0 75 -29.5t30 -74.5q0 -36 -27 -65.5t-68 -45.5q-39 -14 -39 -51q0 -54 52.5 -104t150.5 -50q95 0 179.5 69.5t84.5 133.5q0 34 -20.5 67t-20.5 68q0 41 30.5 67t84.5 26q51 0 78 -35t27 -80q0 -51 -45 -112.5t-107 -106.5l6 -13q115 58 266 183
q50 42 85.5 86.5t55 85t30 91.5t13.5 92.5t3 102.5q0 148 98 148q35 0 78 -43q52 -45 80 -45q20 0 32.5 11.5t12.5 29.5q0 5 -1 9.5t-3.5 9t-4 7.5t-7 9t-7 7.5l-8.5 8.5l-8 8q-15 15 -22.5 24.5t-17 37.5t-9.5 65q0 63 48.5 120.5t113.5 57.5q36 0 64 -27.5t38 -76.5
q9 -44 22 -61t35 -17q14 0 24.5 16.5t10.5 45.5q0 15 -7 41t-7 69q0 37 26.5 64t61.5 32q30 4 60 22.5t55 18.5q29 0 55 -28.5t26 -71.5q0 -34 -20 -63q-29 -41 -29 -66q0 -31 37 -31t58 76q19 68 51 133q19 38 56.5 56t117.5 18q76 0 102.5 -32t26.5 -83q0 -26 -7.5 -47.5
t-16.5 -35t-29 -38.5q-12 -15 -28 -28t-23 -20t-7 -15t7 -14t24.5 -15t26.5 -16q59 -40 59 -131q0 -56 -43.5 -99t-89.5 -43q-25 0 -50 13t-43.5 26t-25.5 13q-13 0 -21 -11t-8 -24q0 -19 12 -31.5t46 -32.5q78 -47 78 -112q0 -57 -40 -88t-85 -31q-24 0 -44.5 11t-50.5 44
q-31 34 -53.5 47t-48.5 13q-16 0 -26.5 -12t-10.5 -27q0 -9 1.5 -17t3 -13t7 -12.5t8 -10.5t11.5 -13t12 -14q35 -40 35 -98q0 -31 -32.5 -59t-71.5 -28q-55 0 -106.5 29.5t-113.5 89.5q-50 47 -67 47q-7 0 -14 -7t-7 -15q0 -23 47 -70q39 -39 39 -86q0 -32 -31.5 -59
t-88.5 -27q-46 0 -86 17.5t-90 35t-121 17.5q-161 0 -381 -156l6 -12q115 59 190 59q47 0 84.5 -12.5t61 -32.5t39 -47t22 -53t6.5 -53q0 -48 -20.5 -89.5t-44.5 -62.5h-23q-41 238 -201 238q-54 0 -114 -22t-108 -48t-125.5 -48t-161.5 -22q-112 0 -198 54t-128.5 135.5
t-42.5 173.5q0 82 40.5 136t98.5 54zM705 631q-110 0 -194.5 65t-84.5 166q0 28 21 45.5t47 22.5q0 112 14 181t61 118q56 59 86 100q7 9 13.5 25.5t14 24t22.5 7.5t22.5 -8t14 -24.5t12.5 -24.5q30 -41 86 -100q47 -49 61 -118t14 -181q26 -5 47 -22.5t21 -45.5
q0 -102 -84 -166.5t-194 -64.5z" />
    <glyph glyph-name="s_t" unicode="&#xfb06;" horiz-adv-x="1640" 
d="M1593 827h-233v-596q0 -141 113 -141q65 0 120 25v-103q-86 -39 -204 -39q-134 0 -205.5 59t-71.5 201v594h-127v60q227 82 227 278q0 104 -71 174t-180 70q-126 0 -205.5 -72.5t-79.5 -181.5q0 -70 17.5 -123.5t54.5 -120.5l131 -239l-68 -39q-68 119 -158 177t-188 58
q-73 0 -113.5 -31.5t-40.5 -80.5q0 -42 34 -72.5t88.5 -49.5t120.5 -36t131.5 -40t120 -54t88.5 -85.5t34 -127.5q0 -148 -111 -235t-285 -87q-93 0 -180.5 27t-142.5 67l-25 -63h-63l-74 324l55 16q172 -270 422 -270q79 0 132 36t53 103q0 46 -34.5 78.5t-90 52t-123 36.5
t-134.5 39.5t-122.5 53t-90 84.5t-34.5 127q0 123 102 204t262 81q97 0 166 -29q-53 109 -53 219q0 145 116.5 253t287.5 108q79 0 150.5 -25.5t127 -73.5t88.5 -123.5t33 -167.5v-192h233v-107z" />
    <glyph glyph-name="zero.pl" horiz-adv-x="1167" 
d="M63 717q0 344 136.5 545.5t384.5 201.5q249 0 385.5 -201.5t136.5 -545.5t-136.5 -546t-385.5 -202q-248 0 -384.5 202t-136.5 546zM350 717q0 -129 6 -223t21 -176t41 -132t67.5 -78t98.5 -28q58 0 99.5 28t67.5 78t41.5 132t21 176t5.5 223q0 108 -4 190t-13.5 157
t-27 126t-43 89.5t-62.5 56.5t-85 18t-84.5 -18t-62 -56.5t-42.5 -90t-27 -126t-14 -156.5t-4 -190z" />
    <glyph glyph-name="one.pl" horiz-adv-x="737" 
d="M686 0h-633v70q62 4 91.5 9.5t52.5 22.5t29.5 45.5t6.5 81.5v912q0 34 -13 48.5t-44 14.5h-121v62l338 198h113v-1235q0 -53 6.5 -81.5t29.5 -45.5t52.5 -22.5t91.5 -9.5v-70z" />
    <glyph glyph-name="two.pl" horiz-adv-x="1067" 
d="M178 997h-121q0 216 126.5 341.5t328.5 125.5t330.5 -116t128.5 -299q0 -90 -33 -179.5t-87.5 -167t-137.5 -158.5t-171 -149t-200 -143h469q32 0 48 3.5t32 20.5t25.5 47.5t21.5 88.5h76l-56 -457h-75q0 45 -41 45h-768v141q105 89 181 160t162.5 167.5t140.5 183
t90 191t36 206.5q0 143 -58.5 220t-176.5 77q-121 0 -196 -88.5t-75 -260.5z" />
    <glyph glyph-name="three.pl" horiz-adv-x="1103" 
d="M967 1145q0 -111 -67 -194.5t-189 -121.5q144 -26 237.5 -131t93.5 -245q0 -102 -37.5 -189.5t-108 -153.5t-179.5 -103.5t-244 -37.5q-105 0 -198.5 23.5t-159.5 78t-66 130.5q0 57 34.5 92t88.5 35q50 0 85 -25t55.5 -60.5t40 -71t53 -60.5t81.5 -25q269 0 269 320
q0 141 -83.5 233t-236.5 92h-37v115h41q118 0 179 73t61 191q0 102 -54 169t-155 67q-103 0 -173.5 -71t-80.5 -206h-121q18 186 130 290.5t304 104.5q206 0 321.5 -92.5t115.5 -226.5z" />
    <glyph glyph-name="four.pl" horiz-adv-x="1153" 
d="M887 0h-273v354h-561v88l619 992h215v-963h215v-117h-215v-354zM614 1122l-405 -651h405v651z" />
    <glyph glyph-name="five.pl" horiz-adv-x="1097" 
d="M489 950q125 0 228.5 -37t173 -101.5t107.5 -151t38 -185.5q0 -104 -37.5 -195.5t-106.5 -161t-175.5 -109.5t-235.5 -40q-106 0 -201.5 23.5t-164 78t-68.5 130.5q0 56 33.5 91.5t81.5 35.5q37 0 66 -13.5t48.5 -34.5t36.5 -47t35 -52t38.5 -47t52 -34.5t71.5 -13.5
q139 0 218 81t79 218q0 135 -100.5 223t-264.5 88q-160 0 -278 -69l-70 28l115 779h608q51 0 60 45h75l-34 -297h-631l-39 -277q91 45 241 45z" />
    <glyph glyph-name="six.pl" horiz-adv-x="1167" 
d="M973 1464v-106q-108 -10 -199 -43.5t-168.5 -92t-134.5 -150.5t-88 -212q125 64 248 64q113 0 205.5 -40.5t150 -108t88.5 -150.5t31 -172q0 -94 -38 -181.5t-105 -154.5t-166 -107.5t-213 -40.5q-242 0 -381.5 175t-139.5 464q0 158 50 293t136 232.5t202 169.5
t247.5 111t274.5 50zM563 807q-107 0 -203 -70q-10 -92 -10 -176q0 -115 11 -199t37 -149.5t72.5 -99t113.5 -33.5q118 0 176.5 102t58.5 271q0 158 -66.5 256t-189.5 98z" />
    <glyph glyph-name="seven.pl" horiz-adv-x="1017" 
d="M537 0h-287q38 315 181.5 623.5t350.5 558.5h-544q-32 0 -48 -3.5t-32 -20t-25.5 -47.5t-21.5 -89h-76l49 457h76q0 -45 41 -45h784v-142q-384 -519 -448 -1292z" />
    <glyph glyph-name="eight.pl" horiz-adv-x="1167" 
d="M1044 1135q0 -65 -18 -118t-53.5 -92.5t-76 -68t-95.5 -55.5q68 -34 116 -67.5t94.5 -82.5t70.5 -116t24 -150q0 -185 -142 -300.5t-395 -115.5q-118 0 -215.5 32t-160 85.5t-96.5 121t-34 140.5q0 72 21 131t61.5 103.5t85 76t105.5 62.5q-64 40 -108.5 87t-73.5 120
t-29 164q0 68 29.5 132.5t86.5 119t151.5 87.5t213.5 33q203 0 320.5 -97t117.5 -232zM252 352q0 -117 78.5 -194.5t226.5 -77.5q138 0 207.5 67.5t69.5 165.5q0 29 -6 55t-14 47t-25 42t-30.5 35.5t-38.5 32t-42.5 28t-49 26.5t-49.5 24t-53.5 24t-52.5 24
q-106 -54 -163.5 -122.5t-57.5 -176.5zM395 1151q0 -44 14.5 -81.5t36 -64t59.5 -53.5t69.5 -43.5t82.5 -40.5q103 51 159 112.5t56 154.5q0 98 -61 158.5t-176 60.5q-111 0 -175.5 -53.5t-64.5 -149.5z" />
    <glyph glyph-name="nine.pl" horiz-adv-x="1167" 
d="M197 -31v107q107 10 197.5 43.5t168.5 92t135 150t88 211.5q-123 -63 -249 -63q-113 0 -205.5 41t-149.5 108.5t-88 151t-31 172.5q0 93 38 180t104.5 153.5t165.5 107t213 40.5q242 0 382 -174.5t140 -464.5q0 -158 -50 -293t-135.5 -232t-202 -169t-247.5 -111.5
t-274 -50.5zM604 629q110 0 205 67q10 92 10 176q0 115 -11 199t-36.5 150t-72.5 99.5t-115 33.5q-118 0 -176 -101t-58 -270q0 -158 66 -256t188 -98z" />
    <glyph glyph-name="zero.os" horiz-adv-x="1196" 
d="M78 528q0 109 34.5 208.5t98.5 178t164.5 125.5t222.5 47q123 0 223.5 -47t165 -125.5t99 -178t34.5 -208.5q0 -108 -34.5 -207.5t-99 -178.5t-165 -126t-223.5 -47q-122 0 -222.5 47t-164.5 126t-98.5 178.5t-34.5 207.5zM365 528q0 -83 5.5 -146.5t21 -122t41 -96.5
t67 -60.5t98.5 -22.5t99.5 22.5t68 60.5t41.5 96.5t21.5 122t5.5 146.5t-5.5 147t-21.5 123t-42 96.5t-68 60t-99 22.5q-70 0 -117.5 -32.5t-72 -96t-34 -139t-9.5 -181.5z" />
    <glyph glyph-name="one.os" horiz-adv-x="1196" 
d="M977 0h-756v70q63 3 97.5 7t67 13.5t46.5 26.5t22.5 43.5t8.5 68.5v535q0 34 -13 48.5t-44 14.5h-185v62l402 198h112v-858q0 -42 8 -68.5t22 -43.5t46.5 -26.5t67 -13.5t98.5 -7v-70z" />
    <glyph glyph-name="one.os.a1" horiz-adv-x="1196" 
d="M463 229v598q0 42 -8.5 69t-23.5 44.5t-47 27t-67 14t-96 7.5v68h756v-68q-63 -3 -98.5 -7.5t-67 -14t-46 -27t-22.5 -44.5t-8 -69v-598q0 -42 8 -68.5t22 -43.5t46.5 -26.5t67 -13.5t98.5 -7v-70h-756v70q63 3 97.5 7t67 13.5t46.5 26.5t22.5 43.5t8.5 68.5z" />
    <glyph glyph-name="two.os" horiz-adv-x="1196" 
d="M225 621h-121q0 216 128.5 341t334.5 125q199 0 323 -91.5t124 -241.5q0 -90 -43.5 -170t-123.5 -144t-174.5 -114t-215.5 -95h403q31 0 47 4t32 20t26 47.5t22 88.5h76l-53 -436h-76q0 45 -41 45h-772v152q90 47 156 85t141.5 86.5t127 94.5t96.5 98.5t67 109.5t22 117
q0 102 -58 158.5t-173 56.5q-124 0 -199.5 -85.5t-75.5 -251.5z" />
    <glyph glyph-name="three.os" horiz-adv-x="1196" 
d="M1004 768q0 -111 -67 -194t-189 -123q144 -25 237.5 -130t93.5 -245q0 -210 -151.5 -347t-419.5 -137q-104 0 -197.5 23.5t-160 78t-66.5 130.5q0 55 35 91t88 36q51 0 86 -25t55 -61l40 -72t53 -61t81 -25q271 0 271 322q0 140 -84.5 232.5t-237.5 92.5h-37v115h43
q117 0 178.5 73t61.5 191q0 102 -54 169t-155 67q-104 0 -174.5 -71t-79.5 -206h-121q15 185 127 290t305 105q206 0 322.5 -92.5t116.5 -226.5z" />
    <glyph glyph-name="four.os" horiz-adv-x="1196" 
d="M907 -377h-272v377h-561v88l604 969h229v-940h215v-117h-215v-377zM635 766l-406 -649h406v649z" />
    <glyph glyph-name="five.os" horiz-adv-x="1196" 
d="M532 573q125 0 228.5 -37t173 -101.5t107.5 -151t38 -185.5q0 -104 -37.5 -195.5t-106.5 -161t-175.5 -109.5t-235.5 -40q-106 0 -201.5 23.5t-164 78t-68.5 130.5q0 55 33.5 91t81.5 36q42 0 75 -18t52 -45t41 -59t42.5 -59t56 -45t81.5 -18q139 0 218 82t79 219
q0 135 -100.5 223t-264.5 88q-160 0 -278 -69l-70 29l115 778h608q51 0 60 45h75l-34 -297h-631l-39 -277q91 45 241 45z" />
    <glyph glyph-name="six.os" horiz-adv-x="1196" 
d="M987 1464v-106q-108 -10 -199 -43.5t-168.5 -92t-134.5 -150.5t-88 -212q125 64 248 64q113 0 205.5 -40.5t150 -108t88.5 -150.5t31 -172q0 -94 -38 -181.5t-105 -154.5t-166 -107.5t-213 -40.5q-242 0 -381 175t-139 464q0 158 50 293t135.5 232.5t202 169.5t247.5 111
t274 50zM578 807q-107 0 -203 -70q-10 -92 -10 -176q0 -115 11 -199t36.5 -150t72 -99t113.5 -33q118 0 177 102t59 271q0 158 -66.5 256t-189.5 98z" />
    <glyph glyph-name="seven.os" horiz-adv-x="1196" 
d="M621 -377h-287q38 315 181.5 623.5t350.5 558.5h-544q-32 0 -48 -3.5t-32 -20t-25.5 -47.5t-21.5 -89h-76l49 457h76q0 -45 41 -45h784v-142q-384 -519 -448 -1292z" />
    <glyph glyph-name="eight.os" horiz-adv-x="1196" 
d="M1059 1135q0 -65 -18.5 -118t-54 -92.5t-76 -68t-95.5 -55.5q68 -34 116 -67.5t94.5 -82.5t70.5 -116t24 -150q0 -185 -141.5 -300.5t-394.5 -115.5q-118 0 -215.5 32t-160 85.5t-96.5 121t-34 140.5q0 72 21 131t61 103.5t84.5 76t105.5 62.5q-64 40 -108.5 87
t-73.5 120t-29 164q0 68 29.5 132.5t86.5 119t152 87.5t214 33q203 0 320.5 -97t117.5 -232zM266 352q0 -117 78.5 -194.5t226.5 -77.5q138 0 207.5 67.5t69.5 165.5q0 29 -6 55t-14 47t-25 42t-30.5 35.5t-38.5 32t-42.5 28t-49 26.5t-49.5 24t-53.5 24t-52.5 24
q-106 -54 -163.5 -122.5t-57.5 -176.5zM410 1151q0 -44 14.5 -81.5t36 -64t59.5 -53.5t69.5 -43.5t82.5 -40.5q103 51 159 112.5t56 154.5q0 98 -61.5 158.5t-176.5 60.5q-111 0 -175 -53.5t-64 -149.5z" />
    <glyph glyph-name="nine.os" horiz-adv-x="1196" 
d="M211 -408v107q107 10 197.5 43.5t168.5 92t135.5 150.5t88.5 212q-125 -64 -250 -64q-113 0 -205 41t-149.5 108.5t-88 151t-30.5 172.5q0 93 38 180t104.5 153.5t165 107t212.5 40.5q242 0 382 -174t140 -464q0 -158 -50 -293t-135.5 -232.5t-202 -170t-247.5 -111.5
t-274 -50zM618 252q110 0 205 67q11 101 11 177q0 115 -11 199t-37 149.5t-73 99t-115 33.5q-118 0 -175.5 -101t-57.5 -270q0 -158 65.5 -256t187.5 -98z" />
    <glyph glyph-name="zero.p.os" horiz-adv-x="1167" 
d="M63 528q0 109 35 208.5t99 178t164.5 125.5t222.5 47q123 0 223.5 -47t165 -125.5t99 -178t34.5 -208.5q0 -108 -34.5 -207.5t-99 -178.5t-165 -126t-223.5 -47q-122 0 -222.5 47t-164.5 126t-99 178.5t-35 207.5zM350 528q0 -105 10 -180.5t34.5 -139t72 -96
t117.5 -32.5q71 0 118.5 32.5t72.5 96t34.5 139t9.5 180.5q0 84 -5.5 147.5t-21 122.5t-41.5 96.5t-68 60t-99 22.5q-70 0 -117.5 -32.5t-72 -96t-34.5 -139.5t-10 -181z" />
    <glyph glyph-name="one.p.os" horiz-adv-x="737" 
d="M686 0h-633v70q62 4 91.5 9.5t52.5 22.5t29.5 45.5t6.5 81.5v535q0 34 -13 48.5t-44 14.5h-123v62l340 198h113v-858q0 -53 6.5 -81.5t29.5 -45.5t52.5 -22.5t91.5 -9.5v-70z" />
    <glyph glyph-name="one.p.os.a1" horiz-adv-x="737" 
d="M233 229v598q0 53 -6.5 82t-29.5 46.5t-53 23.5t-91 10v68h633v-68q-61 -4 -91 -10t-53 -23.5t-29.5 -46.5t-6.5 -82v-598q0 -53 6.5 -81.5t29.5 -45.5t52.5 -22.5t91.5 -9.5v-70h-633v70q62 4 91.5 9.5t52.5 22.5t29.5 45.5t6.5 81.5z" />
    <glyph glyph-name="two.p.os" horiz-adv-x="1069" 
d="M180 621h-121q0 216 128.5 341t334.5 125q199 0 323 -91.5t124 -241.5q0 -90 -43.5 -170t-123.5 -144t-174.5 -114t-215.5 -95h403q31 0 47 4t32 20t26 47.5t22 88.5h76l-53 -436h-76q0 45 -41 45h-772v152q90 47 156 85t141.5 86.5t127 94.5t96.5 98.5t67 109.5t22 117
q0 102 -58 158.5t-173 56.5q-124 0 -199.5 -85.5t-75.5 -251.5z" />
    </font>
</defs>
</svg>
