<svg width="7" height="13" viewBox="0 0 7 13" fill="none" xmlns="http://www.w3.org/2000/svg">
<path fill-rule="evenodd" clip-rule="evenodd" d="M1.54374 12.3434C1.54374 12.4312 1.62669 12.5 1.73267 12.5H4.43767C4.54366 12.5 4.62661 12.4312 4.62661 12.3434V6.20034H6.58969C6.68646 6.20034 6.76941 6.13921 6.77863 6.05516L6.96756 4.20614C6.97678 4.11446 6.88922 4.03423 6.77863 4.03423H4.62661V2.72387C4.62661 2.41443 4.92614 2.16611 5.2994 2.16611H6.81088C6.91687 2.16611 6.99982 2.09734 6.99982 2.00947V0.156632C7.00443 0.0687653 6.92148 0 6.81549 0H4.25795C2.7603 0 1.54374 1.00856 1.54374 2.25015V4.03423H0.188935C0.0829471 4.03423 0 4.10682 0 4.19086V6.03988C0 6.12775 0.0829471 6.19652 0.188935 6.19652H1.54374V12.3434Z" fill="white"/>
</svg>
