<svg width="13" height="13" viewBox="0 0 13 13" fill="none" xmlns="http://www.w3.org/2000/svg">
<path d="M9.91855 2.39203C9.49575 2.39203 9.15294 2.73484 9.15294 3.15763C9.15294 3.58043 9.49575 3.92323 9.91855 3.92323C10.3413 3.92323 10.6841 3.58043 10.6841 3.15763C10.6841 2.73484 10.3413 2.39203 9.91855 2.39203ZM6.52095 3.37474C4.74978 3.37474 3.30999 4.81453 3.30999 6.5857C3.30999 8.35687 4.74978 9.79666 6.52095 9.79666C8.29212 9.79666 9.73191 8.35687 9.73191 6.5857C9.73191 4.81453 8.29212 3.37474 6.52095 3.37474ZM6.52095 8.63873C5.38588 8.63873 4.46411 7.71696 4.46411 6.58189C4.46411 5.44682 5.38588 4.52505 6.52095 4.52505C7.65602 4.52505 8.57779 5.44682 8.57779 6.58189C8.57779 7.71696 7.65602 8.63873 6.52095 8.63873ZM13 3.91562C13 1.75212 11.2479 0 9.08438 0H3.91562C1.75212 0 0 1.75212 0 3.91562V9.08438C0 11.2479 1.75212 13 3.91562 13H9.08438C11.2479 13 13 11.2479 13 9.08438V3.91562ZM11.7735 9.08438C11.7735 10.5699 10.5699 11.7735 9.08438 11.7735H3.91562C2.43012 11.7735 1.22649 10.5699 1.22649 9.08438V3.91562C1.22649 2.43012 2.43012 1.22649 3.91562 1.22649H9.08438C10.5699 1.22649 11.7735 2.43012 11.7735 3.91562V9.08438Z" fill="white"/>
</svg>
